G04 (created by PCBNEW (2013-may-18)-stable) date Fr 02 Mai 2014 14:18:07 CEST*
%MOIN*%
G04 Gerber Fmt 3.4, Leading zero omitted, Abs format*
%FSLAX34Y34*%
G01*
G70*
G90*
G04 APERTURE LIST*
%ADD10C,0.00590551*%
%ADD11R,0.0276X0.0985*%
%ADD12R,0.0394X0.0985*%
%ADD13R,0.0787X0.0315*%
%ADD14R,0.0579X0.0165*%
%ADD15R,0.0866X0.063*%
%ADD16O,0.0708X0.1417*%
%ADD17R,0.08X0.06*%
%ADD18R,0.06X0.08*%
%ADD19O,0.1417X0.0708*%
%ADD20R,0.0787402X0.224409*%
%ADD21R,0.224409X0.0787402*%
G04 APERTURE END LIST*
G54D10*
G36*
X66122Y-40295D02*
X65925Y-40590D01*
X65531Y-40590D01*
X65334Y-40295D01*
X66122Y-40295D01*
X66122Y-40295D01*
G37*
G54D11*
X66319Y-41083D03*
X65137Y-41083D03*
X66319Y-39231D03*
G54D12*
X65728Y-39231D03*
G54D11*
X65137Y-39231D03*
G54D12*
X65728Y-41083D03*
G54D10*
G36*
X65334Y-40018D02*
X65531Y-39723D01*
X65925Y-39723D01*
X66122Y-40018D01*
X65334Y-40018D01*
X65334Y-40018D01*
G37*
G54D13*
X65728Y-40157D03*
G54D10*
G36*
X62579Y-40295D02*
X62382Y-40590D01*
X61988Y-40590D01*
X61791Y-40295D01*
X62579Y-40295D01*
X62579Y-40295D01*
G37*
G54D11*
X62776Y-41083D03*
X61594Y-41083D03*
X62776Y-39231D03*
G54D12*
X62185Y-39231D03*
G54D11*
X61594Y-39231D03*
G54D12*
X62185Y-41083D03*
G54D10*
G36*
X61791Y-40018D02*
X61988Y-39723D01*
X62382Y-39723D01*
X62579Y-40018D01*
X61791Y-40018D01*
X61791Y-40018D01*
G37*
G54D13*
X62185Y-40157D03*
G54D10*
G36*
X59035Y-40295D02*
X58838Y-40590D01*
X58444Y-40590D01*
X58247Y-40295D01*
X59035Y-40295D01*
X59035Y-40295D01*
G37*
G54D11*
X59232Y-41083D03*
X58050Y-41083D03*
X59232Y-39231D03*
G54D12*
X58641Y-39231D03*
G54D11*
X58050Y-39231D03*
G54D12*
X58641Y-41083D03*
G54D10*
G36*
X58247Y-40018D02*
X58444Y-39723D01*
X58838Y-39723D01*
X59035Y-40018D01*
X58247Y-40018D01*
X58247Y-40018D01*
G37*
G54D13*
X58641Y-40157D03*
G54D10*
G36*
X55492Y-40295D02*
X55295Y-40590D01*
X54901Y-40590D01*
X54704Y-40295D01*
X55492Y-40295D01*
X55492Y-40295D01*
G37*
G54D11*
X55689Y-41083D03*
X54507Y-41083D03*
X55689Y-39231D03*
G54D12*
X55098Y-39231D03*
G54D11*
X54507Y-39231D03*
G54D12*
X55098Y-41083D03*
G54D10*
G36*
X54704Y-40018D02*
X54901Y-39723D01*
X55295Y-39723D01*
X55492Y-40018D01*
X54704Y-40018D01*
X54704Y-40018D01*
G37*
G54D13*
X55098Y-40157D03*
G54D10*
G36*
X48405Y-40295D02*
X48208Y-40590D01*
X47814Y-40590D01*
X47617Y-40295D01*
X48405Y-40295D01*
X48405Y-40295D01*
G37*
G54D11*
X48602Y-41083D03*
X47420Y-41083D03*
X48602Y-39231D03*
G54D12*
X48011Y-39231D03*
G54D11*
X47420Y-39231D03*
G54D12*
X48011Y-41083D03*
G54D10*
G36*
X47617Y-40018D02*
X47814Y-39723D01*
X48208Y-39723D01*
X48405Y-40018D01*
X47617Y-40018D01*
X47617Y-40018D01*
G37*
G54D13*
X48011Y-40157D03*
G54D10*
G36*
X51949Y-40295D02*
X51752Y-40590D01*
X51358Y-40590D01*
X51161Y-40295D01*
X51949Y-40295D01*
X51949Y-40295D01*
G37*
G54D11*
X52146Y-41083D03*
X50964Y-41083D03*
X52146Y-39231D03*
G54D12*
X51555Y-39231D03*
G54D11*
X50964Y-39231D03*
G54D12*
X51555Y-41083D03*
G54D10*
G36*
X51161Y-40018D02*
X51358Y-39723D01*
X51752Y-39723D01*
X51949Y-40018D01*
X51161Y-40018D01*
X51161Y-40018D01*
G37*
G54D13*
X51555Y-40157D03*
G54D10*
G36*
X44862Y-40295D02*
X44665Y-40590D01*
X44271Y-40590D01*
X44074Y-40295D01*
X44862Y-40295D01*
X44862Y-40295D01*
G37*
G54D11*
X45059Y-41083D03*
X43877Y-41083D03*
X45059Y-39231D03*
G54D12*
X44468Y-39231D03*
G54D11*
X43877Y-39231D03*
G54D12*
X44468Y-41083D03*
G54D10*
G36*
X44074Y-40018D02*
X44271Y-39723D01*
X44665Y-39723D01*
X44862Y-40018D01*
X44074Y-40018D01*
X44074Y-40018D01*
G37*
G54D13*
X44468Y-40157D03*
G54D10*
G36*
X41319Y-40295D02*
X41122Y-40590D01*
X40728Y-40590D01*
X40531Y-40295D01*
X41319Y-40295D01*
X41319Y-40295D01*
G37*
G54D11*
X41516Y-41083D03*
X40334Y-41083D03*
X41516Y-39231D03*
G54D12*
X40925Y-39231D03*
G54D11*
X40334Y-39231D03*
G54D12*
X40925Y-41083D03*
G54D10*
G36*
X40531Y-40018D02*
X40728Y-39723D01*
X41122Y-39723D01*
X41319Y-40018D01*
X40531Y-40018D01*
X40531Y-40018D01*
G37*
G54D13*
X40925Y-40157D03*
G54D10*
G36*
X37775Y-40295D02*
X37578Y-40590D01*
X37184Y-40590D01*
X36987Y-40295D01*
X37775Y-40295D01*
X37775Y-40295D01*
G37*
G54D11*
X37972Y-41083D03*
X36790Y-41083D03*
X37972Y-39231D03*
G54D12*
X37381Y-39231D03*
G54D11*
X36790Y-39231D03*
G54D12*
X37381Y-41083D03*
G54D10*
G36*
X36987Y-40018D02*
X37184Y-39723D01*
X37578Y-39723D01*
X37775Y-40018D01*
X36987Y-40018D01*
X36987Y-40018D01*
G37*
G54D13*
X37381Y-40157D03*
G54D10*
G36*
X61810Y-26633D02*
X62007Y-26338D01*
X62401Y-26338D01*
X62598Y-26633D01*
X61810Y-26633D01*
X61810Y-26633D01*
G37*
G54D11*
X61613Y-25845D03*
X62795Y-25845D03*
X61613Y-27697D03*
G54D12*
X62204Y-27697D03*
G54D11*
X62795Y-27697D03*
G54D12*
X62204Y-25845D03*
G54D10*
G36*
X62598Y-26910D02*
X62401Y-27205D01*
X62007Y-27205D01*
X61810Y-26910D01*
X62598Y-26910D01*
X62598Y-26910D01*
G37*
G54D13*
X62204Y-26771D03*
G54D10*
G36*
X58267Y-26633D02*
X58464Y-26338D01*
X58858Y-26338D01*
X59055Y-26633D01*
X58267Y-26633D01*
X58267Y-26633D01*
G37*
G54D11*
X58070Y-25845D03*
X59252Y-25845D03*
X58070Y-27697D03*
G54D12*
X58661Y-27697D03*
G54D11*
X59252Y-27697D03*
G54D12*
X58661Y-25845D03*
G54D10*
G36*
X59055Y-26910D02*
X58858Y-27205D01*
X58464Y-27205D01*
X58267Y-26910D01*
X59055Y-26910D01*
X59055Y-26910D01*
G37*
G54D13*
X58661Y-26771D03*
G54D10*
G36*
X51180Y-26633D02*
X51377Y-26338D01*
X51771Y-26338D01*
X51968Y-26633D01*
X51180Y-26633D01*
X51180Y-26633D01*
G37*
G54D11*
X50983Y-25845D03*
X52165Y-25845D03*
X50983Y-27697D03*
G54D12*
X51574Y-27697D03*
G54D11*
X52165Y-27697D03*
G54D12*
X51574Y-25845D03*
G54D10*
G36*
X51968Y-26910D02*
X51771Y-27205D01*
X51377Y-27205D01*
X51180Y-26910D01*
X51968Y-26910D01*
X51968Y-26910D01*
G37*
G54D13*
X51574Y-26771D03*
G54D10*
G36*
X47637Y-26633D02*
X47834Y-26338D01*
X48228Y-26338D01*
X48425Y-26633D01*
X47637Y-26633D01*
X47637Y-26633D01*
G37*
G54D11*
X47440Y-25845D03*
X48622Y-25845D03*
X47440Y-27697D03*
G54D12*
X48031Y-27697D03*
G54D11*
X48622Y-27697D03*
G54D12*
X48031Y-25845D03*
G54D10*
G36*
X48425Y-26910D02*
X48228Y-27205D01*
X47834Y-27205D01*
X47637Y-26910D01*
X48425Y-26910D01*
X48425Y-26910D01*
G37*
G54D13*
X48031Y-26771D03*
G54D10*
G36*
X44094Y-26633D02*
X44291Y-26338D01*
X44685Y-26338D01*
X44882Y-26633D01*
X44094Y-26633D01*
X44094Y-26633D01*
G37*
G54D11*
X43897Y-25845D03*
X45079Y-25845D03*
X43897Y-27697D03*
G54D12*
X44488Y-27697D03*
G54D11*
X45079Y-27697D03*
G54D12*
X44488Y-25845D03*
G54D10*
G36*
X44882Y-26910D02*
X44685Y-27205D01*
X44291Y-27205D01*
X44094Y-26910D01*
X44882Y-26910D01*
X44882Y-26910D01*
G37*
G54D13*
X44488Y-26771D03*
G54D10*
G36*
X40550Y-26633D02*
X40747Y-26338D01*
X41141Y-26338D01*
X41338Y-26633D01*
X40550Y-26633D01*
X40550Y-26633D01*
G37*
G54D11*
X40353Y-25845D03*
X41535Y-25845D03*
X40353Y-27697D03*
G54D12*
X40944Y-27697D03*
G54D11*
X41535Y-27697D03*
G54D12*
X40944Y-25845D03*
G54D10*
G36*
X41338Y-26910D02*
X41141Y-27205D01*
X40747Y-27205D01*
X40550Y-26910D01*
X41338Y-26910D01*
X41338Y-26910D01*
G37*
G54D13*
X40944Y-26771D03*
G54D14*
X56515Y-33690D03*
X56515Y-33434D03*
X56515Y-33178D03*
X56515Y-32922D03*
X54313Y-34454D03*
X56515Y-34458D03*
X56515Y-34202D03*
X56515Y-33946D03*
X54311Y-32666D03*
X54311Y-32922D03*
X54311Y-33178D03*
X54311Y-33434D03*
X54311Y-33690D03*
X54311Y-33946D03*
X56515Y-32666D03*
X54313Y-34202D03*
X56515Y-34714D03*
X56515Y-32410D03*
X54311Y-32410D03*
X54311Y-34714D03*
X56515Y-34969D03*
X56515Y-32155D03*
X54311Y-32155D03*
X54311Y-34969D03*
X56515Y-35225D03*
X56515Y-31899D03*
X54311Y-31899D03*
X54311Y-35225D03*
G54D10*
G36*
X54724Y-26633D02*
X54921Y-26338D01*
X55315Y-26338D01*
X55512Y-26633D01*
X54724Y-26633D01*
X54724Y-26633D01*
G37*
G54D11*
X54527Y-25845D03*
X55709Y-25845D03*
X54527Y-27697D03*
G54D12*
X55118Y-27697D03*
G54D11*
X55709Y-27697D03*
G54D12*
X55118Y-25845D03*
G54D10*
G36*
X55512Y-26910D02*
X55315Y-27205D01*
X54921Y-27205D01*
X54724Y-26910D01*
X55512Y-26910D01*
X55512Y-26910D01*
G37*
G54D13*
X55118Y-26771D03*
G54D15*
X42696Y-39409D03*
X42696Y-40905D03*
X56889Y-27519D03*
X56889Y-26023D03*
X50629Y-34015D03*
X50629Y-32519D03*
X39153Y-39409D03*
X39153Y-40905D03*
X49803Y-27519D03*
X49803Y-26023D03*
X53346Y-27519D03*
X53346Y-26023D03*
X60433Y-27519D03*
X60433Y-26023D03*
X49783Y-39409D03*
X49783Y-40905D03*
X53326Y-39409D03*
X53326Y-40905D03*
X56870Y-39409D03*
X56870Y-40905D03*
X67500Y-39409D03*
X67500Y-40905D03*
X38976Y-24960D03*
X38976Y-23464D03*
X63956Y-39409D03*
X63956Y-40905D03*
X60413Y-39409D03*
X60413Y-40905D03*
X46259Y-27519D03*
X46259Y-26023D03*
X42716Y-27519D03*
X42716Y-26023D03*
X46240Y-39409D03*
X46240Y-40905D03*
G54D16*
X67026Y-47834D03*
X66042Y-47834D03*
X65058Y-47834D03*
X64074Y-47834D03*
X63090Y-47834D03*
X62106Y-47834D03*
X67026Y-45866D03*
X66042Y-45866D03*
X65058Y-45866D03*
X64074Y-45866D03*
X63090Y-45866D03*
X62106Y-45866D03*
X40059Y-19094D03*
X41043Y-19094D03*
X42027Y-19094D03*
X43011Y-19094D03*
X43995Y-19094D03*
X44979Y-19094D03*
X40059Y-21062D03*
X41043Y-21062D03*
X42027Y-21062D03*
X43011Y-21062D03*
X43995Y-21062D03*
X44979Y-21062D03*
X56003Y-47834D03*
X55019Y-47834D03*
X54035Y-47834D03*
X53051Y-47834D03*
X52067Y-47834D03*
X51083Y-47834D03*
X56003Y-45866D03*
X55019Y-45866D03*
X54035Y-45866D03*
X53051Y-45866D03*
X52067Y-45866D03*
X51083Y-45866D03*
X51083Y-19094D03*
X52067Y-19094D03*
X53051Y-19094D03*
X54035Y-19094D03*
X55019Y-19094D03*
X56003Y-19094D03*
X51083Y-21062D03*
X52067Y-21062D03*
X53051Y-21062D03*
X54035Y-21062D03*
X55019Y-21062D03*
X56003Y-21062D03*
X44979Y-47834D03*
X43995Y-47834D03*
X43011Y-47834D03*
X42027Y-47834D03*
X41043Y-47834D03*
X40059Y-47834D03*
X44979Y-45866D03*
X43995Y-45866D03*
X43011Y-45866D03*
X42027Y-45866D03*
X41043Y-45866D03*
X40059Y-45866D03*
X62106Y-19094D03*
X63090Y-19094D03*
X62106Y-21062D03*
X63090Y-21062D03*
G54D17*
X64370Y-42066D03*
X64370Y-43366D03*
G54D18*
X68327Y-31574D03*
X67027Y-31574D03*
X68327Y-28366D03*
X67027Y-28366D03*
G54D17*
X57283Y-42066D03*
X57283Y-43366D03*
G54D18*
X68327Y-29448D03*
X67027Y-29448D03*
X68327Y-30511D03*
X67027Y-30511D03*
X68327Y-27283D03*
X67027Y-27283D03*
X68327Y-26200D03*
X67027Y-26200D03*
G54D17*
X39566Y-42066D03*
X39566Y-43366D03*
X60826Y-42066D03*
X60826Y-43366D03*
X43110Y-42066D03*
X43110Y-43366D03*
X50196Y-42066D03*
X50196Y-43366D03*
X46653Y-42066D03*
X46653Y-43366D03*
X56496Y-24862D03*
X56496Y-23562D03*
X53740Y-42066D03*
X53740Y-43366D03*
X67913Y-42066D03*
X67913Y-43366D03*
X45866Y-24862D03*
X45866Y-23562D03*
X52952Y-24862D03*
X52952Y-23562D03*
X60039Y-24862D03*
X60039Y-23562D03*
X63582Y-24862D03*
X63582Y-23562D03*
X42322Y-24862D03*
X42322Y-23562D03*
X49409Y-24862D03*
X49409Y-23562D03*
X52480Y-35216D03*
X52480Y-33916D03*
X69881Y-23484D03*
X69881Y-22184D03*
G54D19*
X40433Y-32307D03*
X40433Y-34307D03*
X38465Y-32307D03*
X38465Y-34307D03*
G54D18*
X64508Y-33070D03*
X63208Y-33070D03*
G54D20*
X44291Y-37303D03*
X46023Y-37303D03*
X51377Y-37303D03*
X53110Y-37303D03*
X47401Y-29685D03*
X49133Y-29685D03*
X58464Y-37303D03*
X60196Y-37303D03*
G54D21*
X38818Y-27795D03*
X38818Y-29527D03*
G54D20*
X62007Y-37303D03*
X63740Y-37303D03*
X65551Y-37303D03*
X67283Y-37303D03*
X54921Y-37303D03*
X56653Y-37303D03*
X47834Y-37303D03*
X49566Y-37303D03*
X43779Y-29685D03*
X45511Y-29685D03*
X61614Y-29724D03*
X63346Y-29724D03*
X54566Y-29724D03*
X56299Y-29724D03*
X40748Y-37303D03*
X42480Y-37303D03*
X58110Y-29724D03*
X59842Y-29724D03*
X37224Y-37283D03*
X38956Y-37283D03*
X50984Y-29685D03*
X52716Y-29685D03*
M02*
