G04 (created by PCBNEW (2013-may-18)-stable) date Di 28 Okt 2014 23:26:28 CET*
%MOIN*%
G04 Gerber Fmt 3.4, Leading zero omitted, Abs format*
%FSLAX34Y34*%
G01*
G70*
G90*
G04 APERTURE LIST*
%ADD10C,0.00590551*%
%ADD11C,0.00984252*%
%ADD12C,0.011811*%
%ADD13O,0.1417X0.0708*%
%ADD14R,0.0276X0.0985*%
%ADD15R,0.0394X0.0985*%
%ADD16R,0.0787X0.0315*%
%ADD17C,0.114173*%
%ADD18R,0.07X0.07*%
%ADD19C,0.07*%
%ADD20R,0.0579X0.0165*%
%ADD21R,0.0866X0.063*%
%ADD22O,0.0708X0.1417*%
%ADD23R,0.055X0.055*%
%ADD24C,0.055*%
%ADD25R,0.08X0.06*%
%ADD26R,0.06X0.08*%
%ADD27C,0.16*%
%ADD28R,0.0787402X0.224409*%
%ADD29R,0.224409X0.0787402*%
%ADD30C,0.0389764*%
%ADD31C,0.0393701*%
%ADD32C,0.019685*%
%ADD33C,0.01*%
%ADD34C,0.0984252*%
G04 APERTURE END LIST*
G54D10*
G54D11*
X46631Y-19955D02*
X46612Y-19936D01*
X46574Y-19880D01*
X46556Y-19842D01*
X46537Y-19786D01*
X46518Y-19692D01*
X46518Y-19617D01*
X46537Y-19523D01*
X46556Y-19467D01*
X46574Y-19430D01*
X46612Y-19373D01*
X46631Y-19355D01*
X46949Y-19786D02*
X46912Y-19805D01*
X46837Y-19805D01*
X46799Y-19786D01*
X46781Y-19767D01*
X46762Y-19730D01*
X46762Y-19617D01*
X46781Y-19580D01*
X46799Y-19561D01*
X46837Y-19542D01*
X46912Y-19542D01*
X46949Y-19561D01*
X47080Y-19955D02*
X47099Y-19936D01*
X47137Y-19880D01*
X47155Y-19842D01*
X47174Y-19786D01*
X47193Y-19692D01*
X47193Y-19617D01*
X47174Y-19523D01*
X47155Y-19467D01*
X47137Y-19430D01*
X47099Y-19373D01*
X47080Y-19355D01*
X47662Y-19448D02*
X47680Y-19430D01*
X47718Y-19411D01*
X47812Y-19411D01*
X47849Y-19430D01*
X47868Y-19448D01*
X47887Y-19486D01*
X47887Y-19523D01*
X47868Y-19580D01*
X47643Y-19805D01*
X47887Y-19805D01*
X48130Y-19411D02*
X48168Y-19411D01*
X48205Y-19430D01*
X48224Y-19448D01*
X48243Y-19486D01*
X48262Y-19561D01*
X48262Y-19655D01*
X48243Y-19730D01*
X48224Y-19767D01*
X48205Y-19786D01*
X48168Y-19805D01*
X48130Y-19805D01*
X48093Y-19786D01*
X48074Y-19767D01*
X48055Y-19730D01*
X48037Y-19655D01*
X48037Y-19561D01*
X48055Y-19486D01*
X48074Y-19448D01*
X48093Y-19430D01*
X48130Y-19411D01*
X48637Y-19805D02*
X48412Y-19805D01*
X48524Y-19805D02*
X48524Y-19411D01*
X48487Y-19467D01*
X48449Y-19505D01*
X48412Y-19523D01*
X48974Y-19542D02*
X48974Y-19805D01*
X48880Y-19392D02*
X48787Y-19673D01*
X49030Y-19673D01*
X46368Y-20248D02*
X46424Y-20267D01*
X46443Y-20285D01*
X46462Y-20323D01*
X46462Y-20379D01*
X46443Y-20417D01*
X46424Y-20435D01*
X46387Y-20454D01*
X46237Y-20454D01*
X46237Y-20060D01*
X46368Y-20060D01*
X46406Y-20079D01*
X46424Y-20098D01*
X46443Y-20135D01*
X46443Y-20173D01*
X46424Y-20210D01*
X46406Y-20229D01*
X46368Y-20248D01*
X46237Y-20248D01*
X46706Y-20267D02*
X46706Y-20454D01*
X46574Y-20060D02*
X46706Y-20267D01*
X46837Y-20060D01*
X46968Y-20304D02*
X47268Y-20304D01*
X47455Y-20454D02*
X47455Y-20060D01*
X47680Y-20454D01*
X47680Y-20060D01*
X48093Y-20417D02*
X48074Y-20435D01*
X48018Y-20454D01*
X47980Y-20454D01*
X47924Y-20435D01*
X47887Y-20398D01*
X47868Y-20360D01*
X47849Y-20285D01*
X47849Y-20229D01*
X47868Y-20154D01*
X47887Y-20117D01*
X47924Y-20079D01*
X47980Y-20060D01*
X48018Y-20060D01*
X48074Y-20079D01*
X48093Y-20098D01*
X48262Y-20304D02*
X48562Y-20304D01*
X48730Y-20435D02*
X48787Y-20454D01*
X48880Y-20454D01*
X48918Y-20435D01*
X48937Y-20417D01*
X48955Y-20379D01*
X48955Y-20342D01*
X48937Y-20304D01*
X48918Y-20285D01*
X48880Y-20267D01*
X48805Y-20248D01*
X48768Y-20229D01*
X48749Y-20210D01*
X48730Y-20173D01*
X48730Y-20135D01*
X48749Y-20098D01*
X48768Y-20079D01*
X48805Y-20060D01*
X48899Y-20060D01*
X48955Y-20079D01*
X49105Y-20342D02*
X49293Y-20342D01*
X49068Y-20454D02*
X49199Y-20060D01*
X49330Y-20454D01*
G54D12*
X35756Y-36023D02*
X35756Y-36304D01*
X35587Y-35967D02*
X36178Y-36164D01*
X35587Y-36361D01*
X35587Y-36642D02*
X35615Y-36586D01*
X35672Y-36557D01*
X36178Y-36557D01*
X35981Y-36867D02*
X35390Y-36867D01*
X35953Y-36867D02*
X35981Y-36923D01*
X35981Y-37035D01*
X35953Y-37092D01*
X35925Y-37120D01*
X35868Y-37148D01*
X35700Y-37148D01*
X35643Y-37120D01*
X35615Y-37092D01*
X35587Y-37035D01*
X35587Y-36923D01*
X35615Y-36867D01*
X35615Y-37626D02*
X35587Y-37570D01*
X35587Y-37457D01*
X35615Y-37401D01*
X35672Y-37373D01*
X35897Y-37373D01*
X35953Y-37401D01*
X35981Y-37457D01*
X35981Y-37570D01*
X35953Y-37626D01*
X35897Y-37654D01*
X35840Y-37654D01*
X35784Y-37373D01*
X35981Y-37907D02*
X35587Y-37907D01*
X35925Y-37907D02*
X35953Y-37935D01*
X35981Y-37992D01*
X35981Y-38076D01*
X35953Y-38132D01*
X35897Y-38160D01*
X35587Y-38160D01*
X35981Y-38695D02*
X35503Y-38695D01*
X35447Y-38667D01*
X35419Y-38638D01*
X35390Y-38582D01*
X35390Y-38498D01*
X35419Y-38442D01*
X35615Y-38695D02*
X35587Y-38638D01*
X35587Y-38526D01*
X35615Y-38470D01*
X35643Y-38442D01*
X35700Y-38413D01*
X35868Y-38413D01*
X35925Y-38442D01*
X35953Y-38470D01*
X35981Y-38526D01*
X35981Y-38638D01*
X35953Y-38695D01*
X35587Y-39060D02*
X35615Y-39004D01*
X35672Y-38976D01*
X36178Y-38976D01*
X35981Y-39538D02*
X35587Y-39538D01*
X35981Y-39285D02*
X35672Y-39285D01*
X35615Y-39313D01*
X35587Y-39370D01*
X35587Y-39454D01*
X35615Y-39510D01*
X35643Y-39538D01*
X35615Y-40044D02*
X35587Y-39988D01*
X35587Y-39876D01*
X35615Y-39820D01*
X35672Y-39791D01*
X35897Y-39791D01*
X35953Y-39820D01*
X35981Y-39876D01*
X35981Y-39988D01*
X35953Y-40044D01*
X35897Y-40073D01*
X35840Y-40073D01*
X35784Y-39791D01*
X35587Y-40326D02*
X36178Y-40326D01*
X35587Y-40579D02*
X35897Y-40579D01*
X35953Y-40551D01*
X35981Y-40494D01*
X35981Y-40410D01*
X35953Y-40354D01*
X35925Y-40326D01*
X35981Y-40860D02*
X35587Y-40860D01*
X35925Y-40860D02*
X35953Y-40888D01*
X35981Y-40944D01*
X35981Y-41029D01*
X35953Y-41085D01*
X35897Y-41113D01*
X35587Y-41113D01*
X36122Y-41816D02*
X36150Y-41844D01*
X36178Y-41901D01*
X36178Y-42041D01*
X36150Y-42097D01*
X36122Y-42125D01*
X36065Y-42154D01*
X36009Y-42154D01*
X35925Y-42125D01*
X35587Y-41788D01*
X35587Y-42154D01*
X35643Y-42407D02*
X35615Y-42435D01*
X35587Y-42407D01*
X35615Y-42379D01*
X35643Y-42407D01*
X35587Y-42407D01*
X36178Y-42800D02*
X36178Y-42857D01*
X36150Y-42913D01*
X36122Y-42941D01*
X36065Y-42969D01*
X35953Y-42997D01*
X35812Y-42997D01*
X35700Y-42969D01*
X35643Y-42941D01*
X35615Y-42913D01*
X35587Y-42857D01*
X35587Y-42800D01*
X35615Y-42744D01*
X35643Y-42716D01*
X35700Y-42688D01*
X35812Y-42660D01*
X35953Y-42660D01*
X36065Y-42688D01*
X36122Y-42716D01*
X36150Y-42744D01*
X36178Y-42800D01*
X35615Y-43503D02*
X35587Y-43447D01*
X35587Y-43335D01*
X35615Y-43278D01*
X35643Y-43250D01*
X35700Y-43222D01*
X35868Y-43222D01*
X35925Y-43250D01*
X35953Y-43278D01*
X35981Y-43335D01*
X35981Y-43447D01*
X35953Y-43503D01*
X34670Y-36487D02*
X34642Y-36543D01*
X34642Y-36656D01*
X34670Y-36712D01*
X34727Y-36740D01*
X34755Y-36740D01*
X34811Y-36712D01*
X34839Y-36656D01*
X34839Y-36571D01*
X34867Y-36515D01*
X34924Y-36487D01*
X34952Y-36487D01*
X35008Y-36515D01*
X35036Y-36571D01*
X35036Y-36656D01*
X35008Y-36712D01*
X34642Y-37078D02*
X34670Y-37021D01*
X34699Y-36993D01*
X34755Y-36965D01*
X34924Y-36965D01*
X34980Y-36993D01*
X35008Y-37021D01*
X35036Y-37078D01*
X35036Y-37162D01*
X35008Y-37218D01*
X34980Y-37246D01*
X34924Y-37275D01*
X34755Y-37275D01*
X34699Y-37246D01*
X34670Y-37218D01*
X34642Y-37162D01*
X34642Y-37078D01*
X35036Y-37781D02*
X34642Y-37781D01*
X35036Y-37528D02*
X34727Y-37528D01*
X34670Y-37556D01*
X34642Y-37612D01*
X34642Y-37696D01*
X34670Y-37753D01*
X34699Y-37781D01*
X34642Y-38062D02*
X35036Y-38062D01*
X34924Y-38062D02*
X34980Y-38090D01*
X35008Y-38118D01*
X35036Y-38174D01*
X35036Y-38231D01*
X34670Y-38681D02*
X34642Y-38624D01*
X34642Y-38512D01*
X34670Y-38456D01*
X34699Y-38428D01*
X34755Y-38399D01*
X34924Y-38399D01*
X34980Y-38428D01*
X35008Y-38456D01*
X35036Y-38512D01*
X35036Y-38624D01*
X35008Y-38681D01*
X34670Y-39159D02*
X34642Y-39102D01*
X34642Y-38990D01*
X34670Y-38934D01*
X34727Y-38906D01*
X34952Y-38906D01*
X35008Y-38934D01*
X35036Y-38990D01*
X35036Y-39102D01*
X35008Y-39159D01*
X34952Y-39187D01*
X34895Y-39187D01*
X34839Y-38906D01*
X34642Y-39693D02*
X35233Y-39693D01*
X34670Y-39693D02*
X34642Y-39637D01*
X34642Y-39524D01*
X34670Y-39468D01*
X34699Y-39440D01*
X34755Y-39412D01*
X34924Y-39412D01*
X34980Y-39440D01*
X35008Y-39468D01*
X35036Y-39524D01*
X35036Y-39637D01*
X35008Y-39693D01*
X34642Y-39974D02*
X35036Y-39974D01*
X35233Y-39974D02*
X35205Y-39946D01*
X35177Y-39974D01*
X35205Y-40002D01*
X35233Y-39974D01*
X35177Y-39974D01*
X35036Y-40199D02*
X34642Y-40340D01*
X35036Y-40480D01*
X34670Y-40930D02*
X34642Y-40874D01*
X34642Y-40762D01*
X34670Y-40705D01*
X34727Y-40677D01*
X34952Y-40677D01*
X35008Y-40705D01*
X35036Y-40762D01*
X35036Y-40874D01*
X35008Y-40930D01*
X34952Y-40958D01*
X34895Y-40958D01*
X34839Y-40677D01*
X34642Y-41212D02*
X35036Y-41212D01*
X34924Y-41212D02*
X34980Y-41240D01*
X35008Y-41268D01*
X35036Y-41324D01*
X35036Y-41380D01*
X34699Y-41577D02*
X34670Y-41605D01*
X34642Y-41577D01*
X34670Y-41549D01*
X34699Y-41577D01*
X34642Y-41577D01*
X34642Y-41943D02*
X34670Y-41886D01*
X34699Y-41858D01*
X34755Y-41830D01*
X34924Y-41830D01*
X34980Y-41858D01*
X35008Y-41886D01*
X35036Y-41943D01*
X35036Y-42027D01*
X35008Y-42083D01*
X34980Y-42111D01*
X34924Y-42140D01*
X34755Y-42140D01*
X34699Y-42111D01*
X34670Y-42083D01*
X34642Y-42027D01*
X34642Y-41943D01*
X34642Y-42393D02*
X35036Y-42393D01*
X34924Y-42393D02*
X34980Y-42421D01*
X35008Y-42449D01*
X35036Y-42505D01*
X35036Y-42561D01*
X35036Y-43011D02*
X34558Y-43011D01*
X34502Y-42983D01*
X34474Y-42955D01*
X34446Y-42899D01*
X34446Y-42814D01*
X34474Y-42758D01*
X34670Y-43011D02*
X34642Y-42955D01*
X34642Y-42843D01*
X34670Y-42786D01*
X34699Y-42758D01*
X34755Y-42730D01*
X34924Y-42730D01*
X34980Y-42758D01*
X35008Y-42786D01*
X35036Y-42843D01*
X35036Y-42955D01*
X35008Y-43011D01*
G54D13*
X40433Y-32307D03*
X40433Y-34307D03*
X38465Y-32307D03*
X38465Y-34307D03*
G54D10*
G36*
X66122Y-40295D02*
X65925Y-40590D01*
X65531Y-40590D01*
X65334Y-40295D01*
X66122Y-40295D01*
X66122Y-40295D01*
G37*
G54D14*
X66319Y-41083D03*
X65137Y-41083D03*
X66319Y-39231D03*
G54D15*
X65728Y-39231D03*
G54D14*
X65137Y-39231D03*
G54D15*
X65728Y-41083D03*
G54D10*
G36*
X65334Y-40018D02*
X65531Y-39723D01*
X65925Y-39723D01*
X66122Y-40018D01*
X65334Y-40018D01*
X65334Y-40018D01*
G37*
G54D16*
X65728Y-40157D03*
G54D10*
G36*
X62579Y-40295D02*
X62382Y-40590D01*
X61988Y-40590D01*
X61791Y-40295D01*
X62579Y-40295D01*
X62579Y-40295D01*
G37*
G54D14*
X62776Y-41083D03*
X61594Y-41083D03*
X62776Y-39231D03*
G54D15*
X62185Y-39231D03*
G54D14*
X61594Y-39231D03*
G54D15*
X62185Y-41083D03*
G54D10*
G36*
X61791Y-40018D02*
X61988Y-39723D01*
X62382Y-39723D01*
X62579Y-40018D01*
X61791Y-40018D01*
X61791Y-40018D01*
G37*
G54D16*
X62185Y-40157D03*
G54D10*
G36*
X59035Y-40295D02*
X58838Y-40590D01*
X58444Y-40590D01*
X58247Y-40295D01*
X59035Y-40295D01*
X59035Y-40295D01*
G37*
G54D14*
X59232Y-41083D03*
X58050Y-41083D03*
X59232Y-39231D03*
G54D15*
X58641Y-39231D03*
G54D14*
X58050Y-39231D03*
G54D15*
X58641Y-41083D03*
G54D10*
G36*
X58247Y-40018D02*
X58444Y-39723D01*
X58838Y-39723D01*
X59035Y-40018D01*
X58247Y-40018D01*
X58247Y-40018D01*
G37*
G54D16*
X58641Y-40157D03*
G54D10*
G36*
X55492Y-40295D02*
X55295Y-40590D01*
X54901Y-40590D01*
X54704Y-40295D01*
X55492Y-40295D01*
X55492Y-40295D01*
G37*
G54D14*
X55689Y-41083D03*
X54507Y-41083D03*
X55689Y-39231D03*
G54D15*
X55098Y-39231D03*
G54D14*
X54507Y-39231D03*
G54D15*
X55098Y-41083D03*
G54D10*
G36*
X54704Y-40018D02*
X54901Y-39723D01*
X55295Y-39723D01*
X55492Y-40018D01*
X54704Y-40018D01*
X54704Y-40018D01*
G37*
G54D16*
X55098Y-40157D03*
G54D10*
G36*
X48405Y-40295D02*
X48208Y-40590D01*
X47814Y-40590D01*
X47617Y-40295D01*
X48405Y-40295D01*
X48405Y-40295D01*
G37*
G54D14*
X48602Y-41083D03*
X47420Y-41083D03*
X48602Y-39231D03*
G54D15*
X48011Y-39231D03*
G54D14*
X47420Y-39231D03*
G54D15*
X48011Y-41083D03*
G54D10*
G36*
X47617Y-40018D02*
X47814Y-39723D01*
X48208Y-39723D01*
X48405Y-40018D01*
X47617Y-40018D01*
X47617Y-40018D01*
G37*
G54D16*
X48011Y-40157D03*
G54D10*
G36*
X51949Y-40295D02*
X51752Y-40590D01*
X51358Y-40590D01*
X51161Y-40295D01*
X51949Y-40295D01*
X51949Y-40295D01*
G37*
G54D14*
X52146Y-41083D03*
X50964Y-41083D03*
X52146Y-39231D03*
G54D15*
X51555Y-39231D03*
G54D14*
X50964Y-39231D03*
G54D15*
X51555Y-41083D03*
G54D10*
G36*
X51161Y-40018D02*
X51358Y-39723D01*
X51752Y-39723D01*
X51949Y-40018D01*
X51161Y-40018D01*
X51161Y-40018D01*
G37*
G54D16*
X51555Y-40157D03*
G54D10*
G36*
X44862Y-40295D02*
X44665Y-40590D01*
X44271Y-40590D01*
X44074Y-40295D01*
X44862Y-40295D01*
X44862Y-40295D01*
G37*
G54D14*
X45059Y-41083D03*
X43877Y-41083D03*
X45059Y-39231D03*
G54D15*
X44468Y-39231D03*
G54D14*
X43877Y-39231D03*
G54D15*
X44468Y-41083D03*
G54D10*
G36*
X44074Y-40018D02*
X44271Y-39723D01*
X44665Y-39723D01*
X44862Y-40018D01*
X44074Y-40018D01*
X44074Y-40018D01*
G37*
G54D16*
X44468Y-40157D03*
G54D10*
G36*
X41319Y-40295D02*
X41122Y-40590D01*
X40728Y-40590D01*
X40531Y-40295D01*
X41319Y-40295D01*
X41319Y-40295D01*
G37*
G54D14*
X41516Y-41083D03*
X40334Y-41083D03*
X41516Y-39231D03*
G54D15*
X40925Y-39231D03*
G54D14*
X40334Y-39231D03*
G54D15*
X40925Y-41083D03*
G54D10*
G36*
X40531Y-40018D02*
X40728Y-39723D01*
X41122Y-39723D01*
X41319Y-40018D01*
X40531Y-40018D01*
X40531Y-40018D01*
G37*
G54D16*
X40925Y-40157D03*
G54D10*
G36*
X37775Y-40295D02*
X37578Y-40590D01*
X37184Y-40590D01*
X36987Y-40295D01*
X37775Y-40295D01*
X37775Y-40295D01*
G37*
G54D14*
X37972Y-41083D03*
X36790Y-41083D03*
X37972Y-39231D03*
G54D15*
X37381Y-39231D03*
G54D14*
X36790Y-39231D03*
G54D15*
X37381Y-41083D03*
G54D10*
G36*
X36987Y-40018D02*
X37184Y-39723D01*
X37578Y-39723D01*
X37775Y-40018D01*
X36987Y-40018D01*
X36987Y-40018D01*
G37*
G54D16*
X37381Y-40157D03*
G54D10*
G36*
X61810Y-26633D02*
X62007Y-26338D01*
X62401Y-26338D01*
X62598Y-26633D01*
X61810Y-26633D01*
X61810Y-26633D01*
G37*
G54D14*
X61613Y-25845D03*
X62795Y-25845D03*
X61613Y-27697D03*
G54D15*
X62204Y-27697D03*
G54D14*
X62795Y-27697D03*
G54D15*
X62204Y-25845D03*
G54D10*
G36*
X62598Y-26910D02*
X62401Y-27205D01*
X62007Y-27205D01*
X61810Y-26910D01*
X62598Y-26910D01*
X62598Y-26910D01*
G37*
G54D16*
X62204Y-26771D03*
G54D10*
G36*
X58267Y-26633D02*
X58464Y-26338D01*
X58858Y-26338D01*
X59055Y-26633D01*
X58267Y-26633D01*
X58267Y-26633D01*
G37*
G54D14*
X58070Y-25845D03*
X59252Y-25845D03*
X58070Y-27697D03*
G54D15*
X58661Y-27697D03*
G54D14*
X59252Y-27697D03*
G54D15*
X58661Y-25845D03*
G54D10*
G36*
X59055Y-26910D02*
X58858Y-27205D01*
X58464Y-27205D01*
X58267Y-26910D01*
X59055Y-26910D01*
X59055Y-26910D01*
G37*
G54D16*
X58661Y-26771D03*
G54D10*
G36*
X51180Y-26633D02*
X51377Y-26338D01*
X51771Y-26338D01*
X51968Y-26633D01*
X51180Y-26633D01*
X51180Y-26633D01*
G37*
G54D14*
X50983Y-25845D03*
X52165Y-25845D03*
X50983Y-27697D03*
G54D15*
X51574Y-27697D03*
G54D14*
X52165Y-27697D03*
G54D15*
X51574Y-25845D03*
G54D10*
G36*
X51968Y-26910D02*
X51771Y-27205D01*
X51377Y-27205D01*
X51180Y-26910D01*
X51968Y-26910D01*
X51968Y-26910D01*
G37*
G54D16*
X51574Y-26771D03*
G54D10*
G36*
X47637Y-26633D02*
X47834Y-26338D01*
X48228Y-26338D01*
X48425Y-26633D01*
X47637Y-26633D01*
X47637Y-26633D01*
G37*
G54D14*
X47440Y-25845D03*
X48622Y-25845D03*
X47440Y-27697D03*
G54D15*
X48031Y-27697D03*
G54D14*
X48622Y-27697D03*
G54D15*
X48031Y-25845D03*
G54D10*
G36*
X48425Y-26910D02*
X48228Y-27205D01*
X47834Y-27205D01*
X47637Y-26910D01*
X48425Y-26910D01*
X48425Y-26910D01*
G37*
G54D16*
X48031Y-26771D03*
G54D10*
G36*
X44094Y-26633D02*
X44291Y-26338D01*
X44685Y-26338D01*
X44882Y-26633D01*
X44094Y-26633D01*
X44094Y-26633D01*
G37*
G54D14*
X43897Y-25845D03*
X45079Y-25845D03*
X43897Y-27697D03*
G54D15*
X44488Y-27697D03*
G54D14*
X45079Y-27697D03*
G54D15*
X44488Y-25845D03*
G54D10*
G36*
X44882Y-26910D02*
X44685Y-27205D01*
X44291Y-27205D01*
X44094Y-26910D01*
X44882Y-26910D01*
X44882Y-26910D01*
G37*
G54D16*
X44488Y-26771D03*
G54D10*
G36*
X40550Y-26633D02*
X40747Y-26338D01*
X41141Y-26338D01*
X41338Y-26633D01*
X40550Y-26633D01*
X40550Y-26633D01*
G37*
G54D14*
X40353Y-25845D03*
X41535Y-25845D03*
X40353Y-27697D03*
G54D15*
X40944Y-27697D03*
G54D14*
X41535Y-27697D03*
G54D15*
X40944Y-25845D03*
G54D10*
G36*
X41338Y-26910D02*
X41141Y-27205D01*
X40747Y-27205D01*
X40550Y-26910D01*
X41338Y-26910D01*
X41338Y-26910D01*
G37*
G54D16*
X40944Y-26771D03*
G54D17*
X35669Y-21732D03*
X35669Y-31574D03*
G54D18*
X71366Y-43732D03*
G54D19*
X70366Y-43732D03*
X71366Y-42732D03*
X70366Y-42732D03*
X71366Y-41732D03*
X70366Y-41732D03*
X71366Y-40732D03*
X70366Y-40732D03*
X71366Y-39732D03*
X70366Y-39732D03*
G54D18*
X71366Y-35464D03*
G54D19*
X70366Y-35464D03*
X71366Y-34464D03*
X70366Y-34464D03*
X71366Y-33464D03*
X70366Y-33464D03*
X71366Y-32464D03*
X70366Y-32464D03*
X71366Y-31464D03*
X70366Y-31464D03*
X71153Y-22393D03*
X72153Y-22393D03*
G54D18*
X72153Y-28393D03*
G54D19*
X71153Y-28393D03*
X72153Y-27393D03*
X71153Y-27393D03*
X72153Y-26393D03*
X71153Y-26393D03*
X72153Y-25393D03*
X71153Y-25393D03*
X72153Y-24393D03*
X71153Y-24393D03*
X72153Y-23393D03*
X71153Y-23393D03*
X68429Y-24153D03*
X68429Y-23153D03*
X68429Y-22153D03*
X68429Y-21153D03*
X68429Y-20153D03*
X68429Y-19153D03*
X65429Y-19153D03*
X65429Y-20153D03*
X65429Y-21153D03*
X65429Y-22153D03*
X65429Y-23153D03*
X65429Y-24153D03*
G54D20*
X56515Y-33690D03*
X56515Y-33434D03*
X56515Y-33178D03*
X56515Y-32922D03*
X54313Y-34454D03*
X56515Y-34458D03*
X56515Y-34202D03*
X56515Y-33946D03*
X54311Y-32666D03*
X54311Y-32922D03*
X54311Y-33178D03*
X54311Y-33434D03*
X54311Y-33690D03*
X54311Y-33946D03*
X56515Y-32666D03*
X54313Y-34202D03*
X56515Y-34714D03*
X56515Y-32410D03*
X54311Y-32410D03*
X54311Y-34714D03*
X56515Y-34969D03*
X56515Y-32155D03*
X54311Y-32155D03*
X54311Y-34969D03*
X56515Y-35225D03*
X56515Y-31899D03*
X54311Y-31899D03*
X54311Y-35225D03*
G54D10*
G36*
X54724Y-26633D02*
X54921Y-26338D01*
X55315Y-26338D01*
X55512Y-26633D01*
X54724Y-26633D01*
X54724Y-26633D01*
G37*
G54D14*
X54527Y-25845D03*
X55709Y-25845D03*
X54527Y-27697D03*
G54D15*
X55118Y-27697D03*
G54D14*
X55709Y-27697D03*
G54D15*
X55118Y-25845D03*
G54D10*
G36*
X55512Y-26910D02*
X55315Y-27205D01*
X54921Y-27205D01*
X54724Y-26910D01*
X55512Y-26910D01*
X55512Y-26910D01*
G37*
G54D16*
X55118Y-26771D03*
G54D21*
X42696Y-39409D03*
X42696Y-40905D03*
X56889Y-27519D03*
X56889Y-26023D03*
X50629Y-34015D03*
X50629Y-32519D03*
X39153Y-39409D03*
X39153Y-40905D03*
X49803Y-27519D03*
X49803Y-26023D03*
X53346Y-27519D03*
X53346Y-26023D03*
X60433Y-27519D03*
X60433Y-26023D03*
X49783Y-39409D03*
X49783Y-40905D03*
X53326Y-39409D03*
X53326Y-40905D03*
X56870Y-39409D03*
X56870Y-40905D03*
X67500Y-39409D03*
X67500Y-40905D03*
X38976Y-24960D03*
X38976Y-23464D03*
X63956Y-39409D03*
X63956Y-40905D03*
X60413Y-39409D03*
X60413Y-40905D03*
X46259Y-27519D03*
X46259Y-26023D03*
X42716Y-27519D03*
X42716Y-26023D03*
X46240Y-39409D03*
X46240Y-40905D03*
G54D22*
X67026Y-47834D03*
X66042Y-47834D03*
X65058Y-47834D03*
X64074Y-47834D03*
X63090Y-47834D03*
X62106Y-47834D03*
X67026Y-45866D03*
X66042Y-45866D03*
X65058Y-45866D03*
X64074Y-45866D03*
X63090Y-45866D03*
X62106Y-45866D03*
X40059Y-19094D03*
X41043Y-19094D03*
X42027Y-19094D03*
X43011Y-19094D03*
X43995Y-19094D03*
X44979Y-19094D03*
X40059Y-21062D03*
X41043Y-21062D03*
X42027Y-21062D03*
X43011Y-21062D03*
X43995Y-21062D03*
X44979Y-21062D03*
X56003Y-47834D03*
X55019Y-47834D03*
X54035Y-47834D03*
X53051Y-47834D03*
X52067Y-47834D03*
X51083Y-47834D03*
X56003Y-45866D03*
X55019Y-45866D03*
X54035Y-45866D03*
X53051Y-45866D03*
X52067Y-45866D03*
X51083Y-45866D03*
X51083Y-19094D03*
X52067Y-19094D03*
X53051Y-19094D03*
X54035Y-19094D03*
X55019Y-19094D03*
X56003Y-19094D03*
X51083Y-21062D03*
X52067Y-21062D03*
X53051Y-21062D03*
X54035Y-21062D03*
X55019Y-21062D03*
X56003Y-21062D03*
X44979Y-47834D03*
X43995Y-47834D03*
X43011Y-47834D03*
X42027Y-47834D03*
X41043Y-47834D03*
X40059Y-47834D03*
X44979Y-45866D03*
X43995Y-45866D03*
X43011Y-45866D03*
X42027Y-45866D03*
X41043Y-45866D03*
X40059Y-45866D03*
X62106Y-19094D03*
X63090Y-19094D03*
X62106Y-21062D03*
X63090Y-21062D03*
G54D18*
X47086Y-32346D03*
G54D19*
X47086Y-34346D03*
G54D23*
X49102Y-42716D03*
G54D24*
X48102Y-42716D03*
G54D23*
X52645Y-42716D03*
G54D24*
X51645Y-42716D03*
G54D23*
X56188Y-42716D03*
G54D24*
X55188Y-42716D03*
G54D23*
X66818Y-42716D03*
G54D24*
X65818Y-42716D03*
G54D23*
X40248Y-24212D03*
G54D24*
X41248Y-24212D03*
G54D23*
X63275Y-42716D03*
G54D24*
X62275Y-42716D03*
G54D23*
X59732Y-42716D03*
G54D24*
X58732Y-42716D03*
G54D23*
X46940Y-24212D03*
G54D24*
X47940Y-24212D03*
G54D23*
X43397Y-24212D03*
G54D24*
X44397Y-24212D03*
G54D23*
X45559Y-42716D03*
G54D24*
X44559Y-42716D03*
G54D23*
X61114Y-24212D03*
G54D24*
X62114Y-24212D03*
G54D23*
X54027Y-24212D03*
G54D24*
X55027Y-24212D03*
G54D23*
X57570Y-24212D03*
G54D24*
X58570Y-24212D03*
G54D23*
X42015Y-42716D03*
G54D24*
X41015Y-42716D03*
G54D23*
X38472Y-42716D03*
G54D24*
X37472Y-42716D03*
G54D23*
X50484Y-24212D03*
G54D24*
X51484Y-24212D03*
G54D25*
X64370Y-42066D03*
X64370Y-43366D03*
G54D26*
X68327Y-31574D03*
X67027Y-31574D03*
X68327Y-28366D03*
X67027Y-28366D03*
G54D25*
X57283Y-42066D03*
X57283Y-43366D03*
G54D26*
X68327Y-29448D03*
X67027Y-29448D03*
X68327Y-30511D03*
X67027Y-30511D03*
X68327Y-27283D03*
X67027Y-27283D03*
X68327Y-26200D03*
X67027Y-26200D03*
G54D25*
X39566Y-42066D03*
X39566Y-43366D03*
X60826Y-42066D03*
X60826Y-43366D03*
X43110Y-42066D03*
X43110Y-43366D03*
X50196Y-42066D03*
X50196Y-43366D03*
X46653Y-42066D03*
X46653Y-43366D03*
X56496Y-24862D03*
X56496Y-23562D03*
X53740Y-42066D03*
X53740Y-43366D03*
X67913Y-42066D03*
X67913Y-43366D03*
X45866Y-24862D03*
X45866Y-23562D03*
X52952Y-24862D03*
X52952Y-23562D03*
X60039Y-24862D03*
X60039Y-23562D03*
X63582Y-24862D03*
X63582Y-23562D03*
X42322Y-24862D03*
X42322Y-23562D03*
X49409Y-24862D03*
X49409Y-23562D03*
X52480Y-35216D03*
X52480Y-33916D03*
X69881Y-23484D03*
X69881Y-22184D03*
G54D27*
X35433Y-19291D03*
X71653Y-19291D03*
X35433Y-47637D03*
X71653Y-47637D03*
G54D26*
X64508Y-33070D03*
X63208Y-33070D03*
G54D28*
X44291Y-37303D03*
X46023Y-37303D03*
X51377Y-37303D03*
X53110Y-37303D03*
X47401Y-29685D03*
X49133Y-29685D03*
X58464Y-37303D03*
X60196Y-37303D03*
G54D29*
X38818Y-27795D03*
X38818Y-29527D03*
G54D28*
X62007Y-37303D03*
X63740Y-37303D03*
X65551Y-37303D03*
X67283Y-37303D03*
X54921Y-37303D03*
X56653Y-37303D03*
X47834Y-37303D03*
X49566Y-37303D03*
X43779Y-29685D03*
X45511Y-29685D03*
X61614Y-29724D03*
X63346Y-29724D03*
X54566Y-29724D03*
X56299Y-29724D03*
X40748Y-37303D03*
X42480Y-37303D03*
X58110Y-29724D03*
X59842Y-29724D03*
X37224Y-37283D03*
X38956Y-37283D03*
X50984Y-29685D03*
X52716Y-29685D03*
G54D30*
X53740Y-42716D03*
X39566Y-42716D03*
X60039Y-24212D03*
X52952Y-24212D03*
X56496Y-24212D03*
X49409Y-24212D03*
X45866Y-24212D03*
X42322Y-24212D03*
X67913Y-42706D03*
X50177Y-42716D03*
X64350Y-42716D03*
X60767Y-42716D03*
X57263Y-42716D03*
X46633Y-42716D03*
X43090Y-42716D03*
X66622Y-35496D03*
X62433Y-33059D03*
X65236Y-29881D03*
X67322Y-34488D03*
X67834Y-33385D03*
X66515Y-34212D03*
X66850Y-33385D03*
X65846Y-33897D03*
X65708Y-33405D03*
X58494Y-33769D03*
X55196Y-34330D03*
X53366Y-34744D03*
X55826Y-33976D03*
X37244Y-43543D03*
X51574Y-34842D03*
X57263Y-33818D03*
X51732Y-31732D03*
X52519Y-32519D03*
X53228Y-32755D03*
X52244Y-31692D03*
X52933Y-31614D03*
X51732Y-32519D03*
X51889Y-33188D03*
X53523Y-31476D03*
X53622Y-28897D03*
X59015Y-28897D03*
X41653Y-43464D03*
X51653Y-35354D03*
X57785Y-33641D03*
X45118Y-43464D03*
X46948Y-36062D03*
X58248Y-33307D03*
X47519Y-43464D03*
X59409Y-33385D03*
X54055Y-35728D03*
X51417Y-43464D03*
X59960Y-33425D03*
X54055Y-36476D03*
X55511Y-43700D03*
X59724Y-32677D03*
X57559Y-36417D03*
X58818Y-43700D03*
X60157Y-32204D03*
X61082Y-36456D03*
X62755Y-43385D03*
X64645Y-36397D03*
X54311Y-31437D03*
X65511Y-43700D03*
X41555Y-28799D03*
X40669Y-28818D03*
X68779Y-32440D03*
X60944Y-32185D03*
X62421Y-32185D03*
X55807Y-34685D03*
X69342Y-34964D03*
X70314Y-37933D03*
X68346Y-37933D03*
X54602Y-35720D03*
X67885Y-35594D03*
X55472Y-35078D03*
X57519Y-31850D03*
X64291Y-21614D03*
X37007Y-21377D03*
X60629Y-22283D03*
X66771Y-40118D03*
X63228Y-40157D03*
X59685Y-40157D03*
X49055Y-40196D03*
X56141Y-40157D03*
X52598Y-40157D03*
X45511Y-40157D03*
X41968Y-40157D03*
X38385Y-40157D03*
X64566Y-29724D03*
X65196Y-33070D03*
X67637Y-34881D03*
G54D31*
X47086Y-32346D02*
X50456Y-32346D01*
X50456Y-32346D02*
X50629Y-32519D01*
G54D32*
X35669Y-21732D02*
X35748Y-21732D01*
X37480Y-23464D02*
X38976Y-23464D01*
X35748Y-21732D02*
X37480Y-23464D01*
X60039Y-24212D02*
X60039Y-24862D01*
X56496Y-24212D02*
X56496Y-24862D01*
X52952Y-24212D02*
X52952Y-24862D01*
X49409Y-24212D02*
X49409Y-24862D01*
X45866Y-24212D02*
X45866Y-24862D01*
X42322Y-24212D02*
X42322Y-24862D01*
X43090Y-42716D02*
X43090Y-42086D01*
X43090Y-42086D02*
X43110Y-42066D01*
X50177Y-42716D02*
X50177Y-42086D01*
X50177Y-42086D02*
X50196Y-42066D01*
X46633Y-42716D02*
X46633Y-42086D01*
X46633Y-42086D02*
X46653Y-42066D01*
X57283Y-42066D02*
X57283Y-42696D01*
X57283Y-42696D02*
X57263Y-42716D01*
X60767Y-42716D02*
X60767Y-42125D01*
X60767Y-42125D02*
X60826Y-42066D01*
X64350Y-42716D02*
X64350Y-42086D01*
X64350Y-42086D02*
X64370Y-42066D01*
X67913Y-42706D02*
X67913Y-42066D01*
X53740Y-42716D02*
X53740Y-42066D01*
X39566Y-42716D02*
X39566Y-42066D01*
X66810Y-41574D02*
X67480Y-40905D01*
X67480Y-40905D02*
X67500Y-40905D01*
X66319Y-41083D02*
X66810Y-41574D01*
X66810Y-41574D02*
X66820Y-41584D01*
X66820Y-42714D02*
X66818Y-42716D01*
X66820Y-41584D02*
X66820Y-42714D01*
X63267Y-41574D02*
X63937Y-40905D01*
X63937Y-40905D02*
X63956Y-40905D01*
X62776Y-41083D02*
X63267Y-41574D01*
X63267Y-41574D02*
X63275Y-41583D01*
X63275Y-41583D02*
X63275Y-42716D01*
X59724Y-41574D02*
X60393Y-40905D01*
X60393Y-40905D02*
X60413Y-40905D01*
X59232Y-41083D02*
X59724Y-41574D01*
X59724Y-41574D02*
X59732Y-41583D01*
X59732Y-41583D02*
X59732Y-42716D01*
X56141Y-41535D02*
X56771Y-40905D01*
X56771Y-40905D02*
X56870Y-40905D01*
X55689Y-41083D02*
X56141Y-41535D01*
X56141Y-41535D02*
X56190Y-41584D01*
X56190Y-42714D02*
X56188Y-42716D01*
X56190Y-41584D02*
X56190Y-42714D01*
X52645Y-41583D02*
X53323Y-40905D01*
X53323Y-40905D02*
X53326Y-40905D01*
X52146Y-41083D02*
X52645Y-41583D01*
X52645Y-41583D02*
X52645Y-42716D01*
X49783Y-40905D02*
X49104Y-41584D01*
X48602Y-41083D02*
X49104Y-41584D01*
X49104Y-42714D02*
X49102Y-42716D01*
X49104Y-41584D02*
X49104Y-42714D01*
X45531Y-41555D02*
X46181Y-40905D01*
X46181Y-40905D02*
X46240Y-40905D01*
X45059Y-41083D02*
X45531Y-41555D01*
X45531Y-41555D02*
X45531Y-42688D01*
X45531Y-42688D02*
X45559Y-42716D01*
X42019Y-41586D02*
X42696Y-40909D01*
X42696Y-40909D02*
X42696Y-40905D01*
X42015Y-42716D02*
X42019Y-42712D01*
X42019Y-41586D02*
X41516Y-41083D01*
X42019Y-42712D02*
X42019Y-41586D01*
X38472Y-41614D02*
X39153Y-40933D01*
X39153Y-40933D02*
X39153Y-40905D01*
X38472Y-42716D02*
X38472Y-41614D01*
X38472Y-41614D02*
X38472Y-41583D01*
X38472Y-41583D02*
X37972Y-41083D01*
X61114Y-25346D02*
X61613Y-25845D01*
X61114Y-24212D02*
X61114Y-25346D01*
X61114Y-25346D02*
X61110Y-25346D01*
X61110Y-25346D02*
X60433Y-26023D01*
X57570Y-25342D02*
X58070Y-25842D01*
X58070Y-25842D02*
X58070Y-25845D01*
X57570Y-24212D02*
X57570Y-25342D01*
X57570Y-25342D02*
X56889Y-26023D01*
X54027Y-25342D02*
X54527Y-25842D01*
X54527Y-25842D02*
X54527Y-25845D01*
X54027Y-24212D02*
X54027Y-25303D01*
X54027Y-25303D02*
X54027Y-25342D01*
X54027Y-25342D02*
X53346Y-26023D01*
X50484Y-25303D02*
X50983Y-25802D01*
X50983Y-25802D02*
X50983Y-25845D01*
X50484Y-24212D02*
X50484Y-25303D01*
X50484Y-25303D02*
X50484Y-25342D01*
X50484Y-25342D02*
X49803Y-26023D01*
X46929Y-25354D02*
X46940Y-25342D01*
X46940Y-25342D02*
X46940Y-24212D01*
X46259Y-26023D02*
X46929Y-25354D01*
X46940Y-25342D02*
X46940Y-25346D01*
X46940Y-25346D02*
X47440Y-25845D01*
X43397Y-25346D02*
X43897Y-25845D01*
X43397Y-24212D02*
X43397Y-25346D01*
X43397Y-25346D02*
X43394Y-25346D01*
X43394Y-25346D02*
X42716Y-26023D01*
X40248Y-24212D02*
X40353Y-24318D01*
X40353Y-24318D02*
X40353Y-25845D01*
X38976Y-23464D02*
X39724Y-24212D01*
X39724Y-24212D02*
X40248Y-24212D01*
G54D33*
X46940Y-25342D02*
X46940Y-24212D01*
X61610Y-23716D02*
X62496Y-23716D01*
X62496Y-23716D02*
X62500Y-23720D01*
X63582Y-24862D02*
X63582Y-24803D01*
X63582Y-24803D02*
X62500Y-23720D01*
X61610Y-23716D02*
X61114Y-24212D01*
X57570Y-25342D02*
X57570Y-25346D01*
X61114Y-25196D02*
X61114Y-24212D01*
X40248Y-24212D02*
X39724Y-24212D01*
X43397Y-24015D02*
X43397Y-25342D01*
X52146Y-41083D02*
X52146Y-41083D01*
X52146Y-41083D02*
X52645Y-41582D01*
X52645Y-41582D02*
X52645Y-42716D01*
X52645Y-41582D02*
X52645Y-42716D01*
X52146Y-41083D02*
X52645Y-41582D01*
X50177Y-42066D02*
X50177Y-42716D01*
X64350Y-42716D02*
X64350Y-42066D01*
X60807Y-42677D02*
X60807Y-42066D01*
X60767Y-42716D02*
X60807Y-42677D01*
X57263Y-42066D02*
X57263Y-42716D01*
X46633Y-42066D02*
X46633Y-42716D01*
X43090Y-42716D02*
X43090Y-42066D01*
X60413Y-40905D02*
X59735Y-41583D01*
X59735Y-41583D02*
X59732Y-41583D01*
X59732Y-41583D02*
X59732Y-42716D01*
X67500Y-40905D02*
X66818Y-41586D01*
X66818Y-41586D02*
X66818Y-41625D01*
X66818Y-41625D02*
X66811Y-41633D01*
X66811Y-41633D02*
X66818Y-41633D01*
X66319Y-41083D02*
X66818Y-41583D01*
X66818Y-41583D02*
X66818Y-41633D01*
X66818Y-41633D02*
X66818Y-42716D01*
X63956Y-40905D02*
X63275Y-41586D01*
X63275Y-41586D02*
X63275Y-41625D01*
X63275Y-41625D02*
X63267Y-41633D01*
X63267Y-41633D02*
X63275Y-41633D01*
X63275Y-41583D02*
X63275Y-41633D01*
X63275Y-41633D02*
X63275Y-42716D01*
X56870Y-40905D02*
X56188Y-41586D01*
X56188Y-41586D02*
X56188Y-41625D01*
X56188Y-41625D02*
X56181Y-41633D01*
X56181Y-41633D02*
X56188Y-41633D01*
X55689Y-41083D02*
X56188Y-41583D01*
X56188Y-41583D02*
X56188Y-41633D01*
X56188Y-41633D02*
X56188Y-42716D01*
X53326Y-40905D02*
X52645Y-41586D01*
X52645Y-41586D02*
X52645Y-41724D01*
X52645Y-41724D02*
X52637Y-41732D01*
X52637Y-41732D02*
X52645Y-41732D01*
X52645Y-41583D02*
X52645Y-41732D01*
X52645Y-41732D02*
X52645Y-42716D01*
X49783Y-40905D02*
X49102Y-41586D01*
X49094Y-41633D02*
X49102Y-41633D01*
X49102Y-41625D02*
X49094Y-41633D01*
X49102Y-41586D02*
X49102Y-41625D01*
X48602Y-41083D02*
X49102Y-41583D01*
X49102Y-41583D02*
X49102Y-41633D01*
X49102Y-41633D02*
X49102Y-42716D01*
X46181Y-40905D02*
X46240Y-40905D01*
X45531Y-41555D02*
X45559Y-41583D01*
X45559Y-41583D02*
X45559Y-42716D01*
X42696Y-40905D02*
X42019Y-41583D01*
X42019Y-41583D02*
X42015Y-41583D01*
X41516Y-41083D02*
X42015Y-41583D01*
X42015Y-41583D02*
X42015Y-42716D01*
X38464Y-42716D02*
X38472Y-42716D01*
X38472Y-42716D02*
X38464Y-42716D01*
X38472Y-41583D02*
X38475Y-41583D01*
X38475Y-41583D02*
X39153Y-40905D01*
X38472Y-41583D02*
X37972Y-41083D01*
X43397Y-25342D02*
X43397Y-25346D01*
X43397Y-25342D02*
X42716Y-26023D01*
X46940Y-25342D02*
X46940Y-25346D01*
X46940Y-25346D02*
X47440Y-25845D01*
X49803Y-25984D02*
X49803Y-26023D01*
X50484Y-25303D02*
X49803Y-25984D01*
X54527Y-25845D02*
X54527Y-25802D01*
X54527Y-25802D02*
X54027Y-25303D01*
X53346Y-25984D02*
X53346Y-26023D01*
X54027Y-25303D02*
X53346Y-25984D01*
X57570Y-25196D02*
X57570Y-25342D01*
X57570Y-25342D02*
X56889Y-26023D01*
X57570Y-25196D02*
X57570Y-25346D01*
X57570Y-25346D02*
X58070Y-25845D01*
X61114Y-25196D02*
X61114Y-25346D01*
X61114Y-25196D02*
X61114Y-25342D01*
X61114Y-25342D02*
X60433Y-26023D01*
X66559Y-35433D02*
X66196Y-35433D01*
X66622Y-35496D02*
X66559Y-35433D01*
X55157Y-35433D02*
X56082Y-35433D01*
X54950Y-35225D02*
X54311Y-35225D01*
X55157Y-35433D02*
X54950Y-35225D01*
X56082Y-35433D02*
X56200Y-35551D01*
X56968Y-35551D02*
X56200Y-35551D01*
X57038Y-35551D02*
X57156Y-35433D01*
X56968Y-35551D02*
X57038Y-35551D01*
X57156Y-35433D02*
X66181Y-35433D01*
X62444Y-33070D02*
X63208Y-33070D01*
X62433Y-33059D02*
X62444Y-33070D01*
X65429Y-24767D02*
X65429Y-24153D01*
X65236Y-24960D02*
X65236Y-29881D01*
X65429Y-24767D02*
X65236Y-24960D01*
X54311Y-35225D02*
X52489Y-35225D01*
X52489Y-35225D02*
X52480Y-35216D01*
X65429Y-24153D02*
X65429Y-23153D01*
X65429Y-23153D02*
X65429Y-22153D01*
X65429Y-21153D02*
X65429Y-22153D01*
X65429Y-20153D02*
X65429Y-21153D01*
X65429Y-19153D02*
X65429Y-20153D01*
X66299Y-35225D02*
X66348Y-35225D01*
X67086Y-34488D02*
X67322Y-34488D01*
X66348Y-35225D02*
X67086Y-34488D01*
X56515Y-35225D02*
X66299Y-35225D01*
X67027Y-26200D02*
X67027Y-25555D01*
X67027Y-25555D02*
X68429Y-24153D01*
X66250Y-34969D02*
X56515Y-34969D01*
X67834Y-33385D02*
X66250Y-34969D01*
X67027Y-27283D02*
X66692Y-27283D01*
X66299Y-25283D02*
X68429Y-23153D01*
X66299Y-26889D02*
X66299Y-25283D01*
X66692Y-27283D02*
X66299Y-26889D01*
X65925Y-34714D02*
X66013Y-34714D01*
X66013Y-34714D02*
X66515Y-34212D01*
X56515Y-34714D02*
X65925Y-34714D01*
X68429Y-22153D02*
X68397Y-22153D01*
X65984Y-27323D02*
X67027Y-28366D01*
X65984Y-25196D02*
X65984Y-27323D01*
X67677Y-23503D02*
X65984Y-25196D01*
X67677Y-22874D02*
X67677Y-23503D01*
X68397Y-22153D02*
X67677Y-22874D01*
X65777Y-34458D02*
X56515Y-34458D01*
X66850Y-33385D02*
X65777Y-34458D01*
X68429Y-21153D02*
X68429Y-21177D01*
X65708Y-28130D02*
X67027Y-29448D01*
X65708Y-25118D02*
X65708Y-28130D01*
X67440Y-23385D02*
X65708Y-25118D01*
X67440Y-22165D02*
X67440Y-23385D01*
X68429Y-21177D02*
X67440Y-22165D01*
X65452Y-34202D02*
X65541Y-34202D01*
X65541Y-34202D02*
X65846Y-33897D01*
X56515Y-34202D02*
X65452Y-34202D01*
X67027Y-30511D02*
X66850Y-30511D01*
X67204Y-21377D02*
X68429Y-20153D01*
X67204Y-23307D02*
X67204Y-21377D01*
X65472Y-25039D02*
X67204Y-23307D01*
X65472Y-29133D02*
X65472Y-25039D01*
X66850Y-30511D02*
X65472Y-29133D01*
X65118Y-33996D02*
X64980Y-33996D01*
X65708Y-33405D02*
X65118Y-33996D01*
X64980Y-33996D02*
X58937Y-33996D01*
X58494Y-33769D02*
X58720Y-33996D01*
X58720Y-33996D02*
X58917Y-33996D01*
X55069Y-34202D02*
X54313Y-34202D01*
X55196Y-34330D02*
X55069Y-34202D01*
X68429Y-19153D02*
X68720Y-19153D01*
X67637Y-30964D02*
X67027Y-31574D01*
X67637Y-25708D02*
X67637Y-30964D01*
X69015Y-24330D02*
X67637Y-25708D01*
X69015Y-19448D02*
X69015Y-24330D01*
X68720Y-19153D02*
X69015Y-19448D01*
X36417Y-36043D02*
X36417Y-36023D01*
X43228Y-35433D02*
X43543Y-35118D01*
X37007Y-35433D02*
X43228Y-35433D01*
X36417Y-36023D02*
X37007Y-35433D01*
X50275Y-35118D02*
X50708Y-35118D01*
X53366Y-34744D02*
X53110Y-34488D01*
X55856Y-33946D02*
X56515Y-33946D01*
X55826Y-33976D02*
X55856Y-33946D01*
X53110Y-34488D02*
X52716Y-34488D01*
X52204Y-34488D02*
X52716Y-34488D01*
X50275Y-35118D02*
X43543Y-35118D01*
X50708Y-35118D02*
X51338Y-34488D01*
X51338Y-34488D02*
X52204Y-34488D01*
X36771Y-35688D02*
X36417Y-36043D01*
X36790Y-39231D02*
X36790Y-38739D01*
X36417Y-38366D02*
X36417Y-36043D01*
X36790Y-38739D02*
X36417Y-38366D01*
X36417Y-36043D02*
X36653Y-35807D01*
G54D32*
X40059Y-47834D02*
X40059Y-45866D01*
G54D33*
X40059Y-45866D02*
X38956Y-44763D01*
X38956Y-44763D02*
X38956Y-42952D01*
X38956Y-43110D02*
X38956Y-42952D01*
X38956Y-42952D02*
X38956Y-41574D01*
X38990Y-37283D02*
X38990Y-38025D01*
X39074Y-41456D02*
X39625Y-41456D01*
X39901Y-38937D02*
X39901Y-41259D01*
X38956Y-41574D02*
X39074Y-41456D01*
X39704Y-41456D02*
X39901Y-41259D01*
X39625Y-41456D02*
X39704Y-41456D01*
X38990Y-38025D02*
X39901Y-38937D01*
X38956Y-42322D02*
X38956Y-42322D01*
X38956Y-42322D02*
X38956Y-43110D01*
X36790Y-42677D02*
X36790Y-43090D01*
X36790Y-41083D02*
X36790Y-42677D01*
X36790Y-43090D02*
X37244Y-43543D01*
X39566Y-43366D02*
X40216Y-43366D01*
X41043Y-44193D02*
X41043Y-45866D01*
X40216Y-43366D02*
X41043Y-44193D01*
G54D32*
X41043Y-47834D02*
X41043Y-45866D01*
G54D33*
X40039Y-35944D02*
X40275Y-35708D01*
X43346Y-35708D02*
X43720Y-35334D01*
X40275Y-35708D02*
X43346Y-35708D01*
X50905Y-35236D02*
X51141Y-35236D01*
X50807Y-35334D02*
X50905Y-35236D01*
X39862Y-36220D02*
X39862Y-36122D01*
X39862Y-36122D02*
X40039Y-35944D01*
X40334Y-39231D02*
X40334Y-38739D01*
X39862Y-38267D02*
X39862Y-36220D01*
X40334Y-38739D02*
X39862Y-38267D01*
X43720Y-35334D02*
X50807Y-35334D01*
X51535Y-34842D02*
X51574Y-34842D01*
X51141Y-35236D02*
X51535Y-34842D01*
X56515Y-33690D02*
X57135Y-33690D01*
X57135Y-33690D02*
X57263Y-33818D01*
X56889Y-33690D02*
X57116Y-33690D01*
X57116Y-33690D02*
X57293Y-33868D01*
X56889Y-33690D02*
X56515Y-33690D01*
X51476Y-31476D02*
X45846Y-31476D01*
X45846Y-31476D02*
X45590Y-31220D01*
X44881Y-28385D02*
X44645Y-28622D01*
X44842Y-31220D02*
X45314Y-31220D01*
X44645Y-31023D02*
X44842Y-31220D01*
X44645Y-28622D02*
X44645Y-31023D01*
X45079Y-28188D02*
X45079Y-27697D01*
X44881Y-28385D02*
X45079Y-28188D01*
X54311Y-32410D02*
X52628Y-32410D01*
X45590Y-31220D02*
X45314Y-31220D01*
X51732Y-31732D02*
X51476Y-31476D01*
X52628Y-32410D02*
X52519Y-32519D01*
G54D32*
X43011Y-19094D02*
X43011Y-21062D01*
G54D33*
X43011Y-21062D02*
X43011Y-21062D01*
X43011Y-21062D02*
X43011Y-22037D01*
X43011Y-22037D02*
X43759Y-22785D01*
X43759Y-22785D02*
X46259Y-22785D01*
X46259Y-22785D02*
X46476Y-23001D01*
X46476Y-23001D02*
X46476Y-25265D01*
X46476Y-25265D02*
X46279Y-25462D01*
X46279Y-25462D02*
X45660Y-25462D01*
X45660Y-25462D02*
X45585Y-25538D01*
X45585Y-25538D02*
X45585Y-29724D01*
G54D32*
X42027Y-19094D02*
X42027Y-21062D01*
G54D33*
X45079Y-25845D02*
X45078Y-25845D01*
X45078Y-24350D02*
X45866Y-23562D01*
X45078Y-25845D02*
X45078Y-24350D01*
X42027Y-21062D02*
X42027Y-22195D01*
X45344Y-23041D02*
X45866Y-23562D01*
X43366Y-23041D02*
X45344Y-23041D01*
X42657Y-22332D02*
X43366Y-23041D01*
X42165Y-22332D02*
X42657Y-22332D01*
X42027Y-22195D02*
X42165Y-22332D01*
X48622Y-27697D02*
X48622Y-28227D01*
X48503Y-31259D02*
X51811Y-31259D01*
X48267Y-31023D02*
X48503Y-31259D01*
X48267Y-28582D02*
X48267Y-31023D01*
X48622Y-28227D02*
X48267Y-28582D01*
X48622Y-27697D02*
X48622Y-28149D01*
X48622Y-28149D02*
X48582Y-28188D01*
X48582Y-28188D02*
X48622Y-27697D01*
X53317Y-32666D02*
X54311Y-32666D01*
X53228Y-32755D02*
X53317Y-32666D01*
X51811Y-31259D02*
X52244Y-31692D01*
G54D32*
X44979Y-19094D02*
X44979Y-21062D01*
G54D33*
X48818Y-22047D02*
X49281Y-22047D01*
X45964Y-22047D02*
X48818Y-22047D01*
X44979Y-21062D02*
X45964Y-22047D01*
X49074Y-28159D02*
X49074Y-25620D01*
X49074Y-25620D02*
X49281Y-25413D01*
X49281Y-25413D02*
X49960Y-25413D01*
X49960Y-25413D02*
X50019Y-25354D01*
X50019Y-25354D02*
X50019Y-25295D01*
X49325Y-29724D02*
X49325Y-28409D01*
X49325Y-28409D02*
X49074Y-28159D01*
X49281Y-22047D02*
X50019Y-22785D01*
X50019Y-22785D02*
X50019Y-25295D01*
G54D32*
X43995Y-19094D02*
X43995Y-21062D01*
G54D33*
X43995Y-21062D02*
X43996Y-21063D01*
X43996Y-21063D02*
X43996Y-22244D01*
X43996Y-22244D02*
X44291Y-22539D01*
X44291Y-22539D02*
X48386Y-22539D01*
X48386Y-22539D02*
X49409Y-23562D01*
X49409Y-23562D02*
X48622Y-24349D01*
X48622Y-24349D02*
X48622Y-25845D01*
X52578Y-31259D02*
X52145Y-31259D01*
X52933Y-31614D02*
X52578Y-31259D01*
X51850Y-30767D02*
X51850Y-30964D01*
X51850Y-30964D02*
X52145Y-31259D01*
X51850Y-30511D02*
X51850Y-30767D01*
X52755Y-32913D02*
X52125Y-32913D01*
X52992Y-33149D02*
X52755Y-32913D01*
X53573Y-32922D02*
X53346Y-33149D01*
X53346Y-33149D02*
X53149Y-33149D01*
X52125Y-32913D02*
X51732Y-32519D01*
X54311Y-32922D02*
X53573Y-32922D01*
X53149Y-33149D02*
X52992Y-33149D01*
X52165Y-27697D02*
X52165Y-28227D01*
X51850Y-29173D02*
X51850Y-30511D01*
X52165Y-28227D02*
X51850Y-28543D01*
X51850Y-28543D02*
X51850Y-29173D01*
G54D32*
X52067Y-21062D02*
X52067Y-19094D01*
G54D33*
X52067Y-21062D02*
X52067Y-21555D01*
X52657Y-29513D02*
X52868Y-29724D01*
X52657Y-25688D02*
X52657Y-29513D01*
X52854Y-25492D02*
X52657Y-25688D01*
X53346Y-25492D02*
X52854Y-25492D01*
X53543Y-25295D02*
X53346Y-25492D01*
X53543Y-23031D02*
X53543Y-25295D01*
X52067Y-21555D02*
X53543Y-23031D01*
G54D32*
X51083Y-21062D02*
X51083Y-19094D01*
G54D33*
X52165Y-25845D02*
X52165Y-25845D01*
X52165Y-24350D02*
X52952Y-23562D01*
X52165Y-25845D02*
X52165Y-24350D01*
X52952Y-23562D02*
X51083Y-21693D01*
X51083Y-21693D02*
X51083Y-21062D01*
X54311Y-33178D02*
X55167Y-33178D01*
X55275Y-31220D02*
X55393Y-31102D01*
X55275Y-33070D02*
X55275Y-31220D01*
X55167Y-33178D02*
X55275Y-33070D01*
X55709Y-27697D02*
X55709Y-28346D01*
X55709Y-28346D02*
X55393Y-28661D01*
X55393Y-28661D02*
X55393Y-31102D01*
G54D32*
X54035Y-19094D02*
X54035Y-21062D01*
G54D33*
X54035Y-21062D02*
X54035Y-21850D01*
X56102Y-28740D02*
X56411Y-29724D01*
X56102Y-25688D02*
X56102Y-28740D01*
X56299Y-25492D02*
X56102Y-25688D01*
X56988Y-25492D02*
X56299Y-25492D01*
X57086Y-25393D02*
X56988Y-25492D01*
X57086Y-22834D02*
X57086Y-25393D01*
X56791Y-22539D02*
X57086Y-22834D01*
X54724Y-22539D02*
X56791Y-22539D01*
X54035Y-21850D02*
X54724Y-22539D01*
G54D32*
X53051Y-21062D02*
X53051Y-19094D01*
G54D33*
X55709Y-25845D02*
X55708Y-25845D01*
X55708Y-24350D02*
X56496Y-23562D01*
X55708Y-25845D02*
X55708Y-24350D01*
X56496Y-23562D02*
X55768Y-22834D01*
X53051Y-21062D02*
X53051Y-21062D01*
X53051Y-21948D02*
X53051Y-21062D01*
X53937Y-22834D02*
X53051Y-21948D01*
X55768Y-22834D02*
X53937Y-22834D01*
X53622Y-30866D02*
X53622Y-31377D01*
X53671Y-33434D02*
X53584Y-33348D01*
X53584Y-33348D02*
X52796Y-33348D01*
X52796Y-33348D02*
X52637Y-33188D01*
X52637Y-33188D02*
X51889Y-33188D01*
X53671Y-33434D02*
X54311Y-33434D01*
X53622Y-31377D02*
X53523Y-31476D01*
X53622Y-30866D02*
X53622Y-30826D01*
X53622Y-28897D02*
X53622Y-30866D01*
X59015Y-28897D02*
X59015Y-28464D01*
X59252Y-27697D02*
X59252Y-28227D01*
X59252Y-28227D02*
X59015Y-28464D01*
X59252Y-28227D02*
X59015Y-28464D01*
X59252Y-27697D02*
X59173Y-27776D01*
G54D32*
X56003Y-19094D02*
X56003Y-21062D01*
G54D33*
X56003Y-21062D02*
X58661Y-21062D01*
X58661Y-21062D02*
X60629Y-23031D01*
X60629Y-23031D02*
X60629Y-25393D01*
X60629Y-25393D02*
X60531Y-25492D01*
X60531Y-25492D02*
X59842Y-25492D01*
X59842Y-25492D02*
X59645Y-25688D01*
X59645Y-25688D02*
X59645Y-29414D01*
X59645Y-29414D02*
X59955Y-29724D01*
G54D32*
X55019Y-19094D02*
X55019Y-21062D01*
G54D33*
X59252Y-25845D02*
X59251Y-25845D01*
X59251Y-24350D02*
X60039Y-23562D01*
X59251Y-25845D02*
X59251Y-24350D01*
X55019Y-21062D02*
X55019Y-21948D01*
X55019Y-21948D02*
X55314Y-22244D01*
X55314Y-22244D02*
X58720Y-22244D01*
X58720Y-22244D02*
X60039Y-23562D01*
X62440Y-31102D02*
X61968Y-31574D01*
X58307Y-31574D02*
X57992Y-31259D01*
X61968Y-31574D02*
X58307Y-31574D01*
X62795Y-27697D02*
X62795Y-28306D01*
X62480Y-28622D02*
X62480Y-31062D01*
X62795Y-28306D02*
X62480Y-28622D01*
X54311Y-33690D02*
X55206Y-33690D01*
X55944Y-31259D02*
X57992Y-31259D01*
X55511Y-31692D02*
X55944Y-31259D01*
X55511Y-33385D02*
X55511Y-31692D01*
X55206Y-33690D02*
X55511Y-33385D01*
X62440Y-31102D02*
X62480Y-31062D01*
X63799Y-22814D02*
X64192Y-22814D01*
X64665Y-23287D02*
X64665Y-23681D01*
X64192Y-22814D02*
X64665Y-23287D01*
X63090Y-21062D02*
X63090Y-22106D01*
X63090Y-22106D02*
X63799Y-22814D01*
G54D32*
X63090Y-19094D02*
X63090Y-21062D01*
G54D33*
X64271Y-26082D02*
X64271Y-28951D01*
X64271Y-28951D02*
X63498Y-29724D01*
X64665Y-23681D02*
X64665Y-25688D01*
X64665Y-25688D02*
X64271Y-26082D01*
G54D32*
X62106Y-19094D02*
X62106Y-21062D01*
G54D33*
X63582Y-23562D02*
X64370Y-24350D01*
X64370Y-24350D02*
X64370Y-24704D01*
X64370Y-25295D02*
X64370Y-24704D01*
X62795Y-25845D02*
X62853Y-25787D01*
X63877Y-25787D02*
X64370Y-25295D01*
X62853Y-25787D02*
X63877Y-25787D01*
X63582Y-23562D02*
X62106Y-22086D01*
X62106Y-22086D02*
X62106Y-21062D01*
G54D32*
X42027Y-45866D02*
X42027Y-47834D01*
G54D33*
X42027Y-45866D02*
X42027Y-43582D01*
X42027Y-43582D02*
X42500Y-43110D01*
X42696Y-41496D02*
X42893Y-41496D01*
X42500Y-41692D02*
X42696Y-41496D01*
X42500Y-42401D02*
X42500Y-41692D01*
X43444Y-41220D02*
X43444Y-41299D01*
X42514Y-37303D02*
X42514Y-38006D01*
X42514Y-38006D02*
X43444Y-38937D01*
X43444Y-41220D02*
X43444Y-38937D01*
X43444Y-41299D02*
X43248Y-41496D01*
X43248Y-41496D02*
X42893Y-41496D01*
X42500Y-42401D02*
X42500Y-42637D01*
X42500Y-42637D02*
X42500Y-43110D01*
X40334Y-42913D02*
X40334Y-42932D01*
X40866Y-43464D02*
X41653Y-43464D01*
X40334Y-42932D02*
X40866Y-43464D01*
X40334Y-41083D02*
X40334Y-42913D01*
G54D32*
X43011Y-45866D02*
X43011Y-47834D01*
G54D33*
X43011Y-45866D02*
X43011Y-43465D01*
X43011Y-43465D02*
X43110Y-43366D01*
X51653Y-35354D02*
X51377Y-35354D01*
X43405Y-38358D02*
X43405Y-35996D01*
X43877Y-38830D02*
X43405Y-38358D01*
X43877Y-38830D02*
X43877Y-39231D01*
X51377Y-35354D02*
X51199Y-35533D01*
X51199Y-35533D02*
X43868Y-35533D01*
X43868Y-35533D02*
X43405Y-35996D01*
X56978Y-33434D02*
X57578Y-33434D01*
X57578Y-33434D02*
X57785Y-33641D01*
X56515Y-33434D02*
X56830Y-33434D01*
X56830Y-33434D02*
X56978Y-33434D01*
X46043Y-43228D02*
X46043Y-43641D01*
X46043Y-43641D02*
X45511Y-44173D01*
X44645Y-44173D02*
X45511Y-44173D01*
X43995Y-44272D02*
X44094Y-44173D01*
X44094Y-44173D02*
X44645Y-44173D01*
X43995Y-45866D02*
X43995Y-44272D01*
G54D32*
X43995Y-45866D02*
X43995Y-47834D01*
G54D33*
X46200Y-41496D02*
X46318Y-41496D01*
X46043Y-41653D02*
X46200Y-41496D01*
X46988Y-38937D02*
X46870Y-38818D01*
X46988Y-39448D02*
X46988Y-38937D01*
X46791Y-41496D02*
X46555Y-41496D01*
X46988Y-41299D02*
X46791Y-41496D01*
X46988Y-39448D02*
X46988Y-41299D01*
X46555Y-41496D02*
X46318Y-41496D01*
X46057Y-38006D02*
X46870Y-38818D01*
X46057Y-37303D02*
X46057Y-38006D01*
X46043Y-41653D02*
X46043Y-43228D01*
X44979Y-45040D02*
X44979Y-44626D01*
X46653Y-44133D02*
X46653Y-43366D01*
X46299Y-44488D02*
X46653Y-44133D01*
X45118Y-44488D02*
X46299Y-44488D01*
X44979Y-44626D02*
X45118Y-44488D01*
X43877Y-42992D02*
X43877Y-43011D01*
X44330Y-43464D02*
X45118Y-43464D01*
X43877Y-43011D02*
X44330Y-43464D01*
X43877Y-41083D02*
X43877Y-42992D01*
G54D32*
X44979Y-45866D02*
X44979Y-47834D01*
G54D33*
X44979Y-45040D02*
X44979Y-45866D01*
X47420Y-38739D02*
X46948Y-38267D01*
X46948Y-38267D02*
X46948Y-36062D01*
X47420Y-39231D02*
X47420Y-38739D01*
X56515Y-33178D02*
X58119Y-33178D01*
X58119Y-33178D02*
X58248Y-33307D01*
X49852Y-44635D02*
X50226Y-44635D01*
X51083Y-45492D02*
X51083Y-45866D01*
X50226Y-44635D02*
X51083Y-45492D01*
G54D32*
X51083Y-45866D02*
X51083Y-47834D01*
G54D33*
X49852Y-44635D02*
X49586Y-44369D01*
X49586Y-44369D02*
X49586Y-43179D01*
X49600Y-37303D02*
X49600Y-37986D01*
X49600Y-37986D02*
X50531Y-38917D01*
X49586Y-41653D02*
X49586Y-41574D01*
X49586Y-41574D02*
X49704Y-41456D01*
X49586Y-42440D02*
X49586Y-41653D01*
X49704Y-41456D02*
X50413Y-41456D01*
X50413Y-41456D02*
X50531Y-41338D01*
X49586Y-42440D02*
X49586Y-43179D01*
X50531Y-41338D02*
X50413Y-41456D01*
X50531Y-38917D02*
X50531Y-41338D01*
X47420Y-43365D02*
X47420Y-43169D01*
X47519Y-43464D02*
X47420Y-43365D01*
X47420Y-41083D02*
X47420Y-43149D01*
X50196Y-43366D02*
X50196Y-44212D01*
X52067Y-44901D02*
X52067Y-45866D01*
X51811Y-44645D02*
X52067Y-44901D01*
X50629Y-44645D02*
X51811Y-44645D01*
X50196Y-44212D02*
X50629Y-44645D01*
G54D32*
X52067Y-45866D02*
X52067Y-47834D01*
G54D33*
X58474Y-32922D02*
X58946Y-32922D01*
X58946Y-32922D02*
X59409Y-33385D01*
X50472Y-36299D02*
X50472Y-36023D01*
X50708Y-35787D02*
X50984Y-35787D01*
X50472Y-36023D02*
X50708Y-35787D01*
X53996Y-35787D02*
X54055Y-35728D01*
X50984Y-35787D02*
X53996Y-35787D01*
X58474Y-32922D02*
X58257Y-32922D01*
X56515Y-32922D02*
X58248Y-32922D01*
X50964Y-38897D02*
X50472Y-38405D01*
X50472Y-38405D02*
X50472Y-36299D01*
X50964Y-38897D02*
X50964Y-39231D01*
G54D32*
X53051Y-45866D02*
X53051Y-47834D01*
G54D33*
X53125Y-43312D02*
X53125Y-45792D01*
X53125Y-45792D02*
X53051Y-45866D01*
X53144Y-37303D02*
X53144Y-37927D01*
X54114Y-38897D02*
X54114Y-38917D01*
X53144Y-37927D02*
X54114Y-38897D01*
X53877Y-41496D02*
X53208Y-41496D01*
X54114Y-38917D02*
X54114Y-41259D01*
X54114Y-41259D02*
X53877Y-41496D01*
X53129Y-43307D02*
X53125Y-43312D01*
X53129Y-41574D02*
X53129Y-43307D01*
X53208Y-41496D02*
X53129Y-41574D01*
X50964Y-42992D02*
X50964Y-43011D01*
X50964Y-43011D02*
X51417Y-43464D01*
G54D32*
X54035Y-45866D02*
X54035Y-47834D01*
G54D33*
X50964Y-41083D02*
X50964Y-42992D01*
X54035Y-45866D02*
X54035Y-43661D01*
X54035Y-43661D02*
X53740Y-43366D01*
X58907Y-32666D02*
X59202Y-32666D01*
X59202Y-32666D02*
X59960Y-33425D01*
X54507Y-39231D02*
X54507Y-38798D01*
X54055Y-38346D02*
X54055Y-36476D01*
X54507Y-38798D02*
X54055Y-38346D01*
X58720Y-32666D02*
X58907Y-32666D01*
X56515Y-32666D02*
X58720Y-32666D01*
X58720Y-32666D02*
X58759Y-32666D01*
X56515Y-32666D02*
X56860Y-32666D01*
X55019Y-45866D02*
X55019Y-44665D01*
X56673Y-43877D02*
X56673Y-43582D01*
X56220Y-44330D02*
X56673Y-43877D01*
X55354Y-44330D02*
X56220Y-44330D01*
X55019Y-44665D02*
X55354Y-44330D01*
G54D32*
X55019Y-47834D02*
X55019Y-45866D01*
G54D33*
X56687Y-37303D02*
X56687Y-37986D01*
X57618Y-38917D02*
X57618Y-41377D01*
X57618Y-41377D02*
X57539Y-41456D01*
X57539Y-41456D02*
X56751Y-41456D01*
X56751Y-41456D02*
X56673Y-41535D01*
X56673Y-41535D02*
X56673Y-43582D01*
X56687Y-37986D02*
X57618Y-38917D01*
X57283Y-44409D02*
X57283Y-44448D01*
X56003Y-45020D02*
X56003Y-45866D01*
X56141Y-44881D02*
X56003Y-45020D01*
X56850Y-44881D02*
X56141Y-44881D01*
X57283Y-44448D02*
X56850Y-44881D01*
X54507Y-42598D02*
X54507Y-42696D01*
X54507Y-42696D02*
X55511Y-43700D01*
X54507Y-41083D02*
X54507Y-42598D01*
G54D32*
X56003Y-47834D02*
X56003Y-45866D01*
G54D33*
X57283Y-43366D02*
X57283Y-44409D01*
X59458Y-32410D02*
X59222Y-32410D01*
X59724Y-32677D02*
X59458Y-32410D01*
X57460Y-32410D02*
X59212Y-32410D01*
X56515Y-32410D02*
X57460Y-32410D01*
X57559Y-36417D02*
X57559Y-36791D01*
X58050Y-39231D02*
X58050Y-38818D01*
X57559Y-38326D02*
X57559Y-36791D01*
X57559Y-36791D02*
X57559Y-36417D01*
X58050Y-38818D02*
X57559Y-38326D01*
X62106Y-45866D02*
X62106Y-45177D01*
X60314Y-44015D02*
X60216Y-43917D01*
X60944Y-44015D02*
X60314Y-44015D01*
X62106Y-45177D02*
X60944Y-44015D01*
G54D32*
X62106Y-45866D02*
X62106Y-47834D01*
G54D33*
X60216Y-43671D02*
X60216Y-43917D01*
X60230Y-37303D02*
X60230Y-37927D01*
X60230Y-37927D02*
X61082Y-38779D01*
X60216Y-41535D02*
X60216Y-43671D01*
X60295Y-41456D02*
X60216Y-41535D01*
X60334Y-41456D02*
X60611Y-41456D01*
X61082Y-38779D02*
X61082Y-41338D01*
X61082Y-41338D02*
X60964Y-41456D01*
X60964Y-41456D02*
X60611Y-41456D01*
X60334Y-41456D02*
X60295Y-41456D01*
X58050Y-42913D02*
X58050Y-43405D01*
X58346Y-43700D02*
X58818Y-43700D01*
X58050Y-43405D02*
X58346Y-43700D01*
X58050Y-42834D02*
X58050Y-42913D01*
X58050Y-41083D02*
X58050Y-42834D01*
X63090Y-45866D02*
X63090Y-44193D01*
X61239Y-43779D02*
X60826Y-43366D01*
X62677Y-43779D02*
X61239Y-43779D01*
X63090Y-44193D02*
X62677Y-43779D01*
G54D32*
X63090Y-45866D02*
X63090Y-47834D01*
G54D33*
X59311Y-32155D02*
X60108Y-32155D01*
X60108Y-32155D02*
X60157Y-32204D01*
X57165Y-32155D02*
X57167Y-32155D01*
X58594Y-32212D02*
X58651Y-32155D01*
X57224Y-32212D02*
X58594Y-32212D01*
X57167Y-32155D02*
X57224Y-32212D01*
X57086Y-32155D02*
X57165Y-32155D01*
X58651Y-32155D02*
X59311Y-32155D01*
X61594Y-39231D02*
X61594Y-38779D01*
X61082Y-38267D02*
X61082Y-36456D01*
X61594Y-38779D02*
X61082Y-38267D01*
X57086Y-32155D02*
X56515Y-32155D01*
X63759Y-43307D02*
X63759Y-44960D01*
G54D32*
X64074Y-45866D02*
X64074Y-47834D01*
G54D33*
X63759Y-43277D02*
X63759Y-43307D01*
X63759Y-41535D02*
X63759Y-43277D01*
X63759Y-44960D02*
X63759Y-45551D01*
X63759Y-45551D02*
X64074Y-45866D01*
X63774Y-37303D02*
X63774Y-37986D01*
X63774Y-37986D02*
X64625Y-38838D01*
X64155Y-41456D02*
X63838Y-41456D01*
X64625Y-38838D02*
X64625Y-41338D01*
X64625Y-41338D02*
X64507Y-41456D01*
X64507Y-41456D02*
X64155Y-41456D01*
X63759Y-41535D02*
X63759Y-42440D01*
X63838Y-41456D02*
X63759Y-41535D01*
X61594Y-41083D02*
X61594Y-43247D01*
X61732Y-43385D02*
X62755Y-43385D01*
X61594Y-43247D02*
X61732Y-43385D01*
G54D32*
X65058Y-45866D02*
X65058Y-47834D01*
G54D33*
X64370Y-43366D02*
X64370Y-44114D01*
X65058Y-44803D02*
X65058Y-47834D01*
X64370Y-44114D02*
X65058Y-44803D01*
X65137Y-38798D02*
X65137Y-39231D01*
X64645Y-38307D02*
X64645Y-36397D01*
X65137Y-38798D02*
X64645Y-38307D01*
X54311Y-31899D02*
X54311Y-31437D01*
X66042Y-45866D02*
X66042Y-43799D01*
X67086Y-43385D02*
X67303Y-43169D01*
X66456Y-43385D02*
X67086Y-43385D01*
X66042Y-43799D02*
X66456Y-43385D01*
G54D32*
X66042Y-45866D02*
X66042Y-47834D01*
G54D33*
X67317Y-37303D02*
X67317Y-37563D01*
X67303Y-41624D02*
X67303Y-43169D01*
X67401Y-41525D02*
X67303Y-41624D01*
X67942Y-41525D02*
X67401Y-41525D01*
X68287Y-41181D02*
X67942Y-41525D01*
X68287Y-38533D02*
X68287Y-41181D01*
X67317Y-37563D02*
X68287Y-38533D01*
X65137Y-43129D02*
X65137Y-43326D01*
X65137Y-43326D02*
X65511Y-43700D01*
X65137Y-41083D02*
X65137Y-43129D01*
G54D32*
X67026Y-45866D02*
X67026Y-47834D01*
G54D33*
X67026Y-45866D02*
X67913Y-44979D01*
X67913Y-44979D02*
X67913Y-43366D01*
X45078Y-31496D02*
X45393Y-31496D01*
X45629Y-31732D02*
X51023Y-31732D01*
X45393Y-31496D02*
X45629Y-31732D01*
X41062Y-30669D02*
X41062Y-31023D01*
X41535Y-31496D02*
X41889Y-31496D01*
X41062Y-31023D02*
X41535Y-31496D01*
X41299Y-28385D02*
X41456Y-28228D01*
X41456Y-27776D02*
X41535Y-27697D01*
X41456Y-28228D02*
X41456Y-27776D01*
X41062Y-28937D02*
X41062Y-28622D01*
X41062Y-28622D02*
X41299Y-28385D01*
X41062Y-28937D02*
X41062Y-30669D01*
X45078Y-31496D02*
X41889Y-31496D01*
X54311Y-32155D02*
X51447Y-32155D01*
X51023Y-31732D02*
X51447Y-32155D01*
X38818Y-29527D02*
X39960Y-29527D01*
X41929Y-28425D02*
X41929Y-28405D01*
X41870Y-28484D02*
X41929Y-28425D01*
X41555Y-28799D02*
X41870Y-28484D01*
X39960Y-29527D02*
X40669Y-28818D01*
X42637Y-25433D02*
X42716Y-25433D01*
X42716Y-25433D02*
X42913Y-25236D01*
X41929Y-28405D02*
X41929Y-25629D01*
X41043Y-22539D02*
X41043Y-21062D01*
X41299Y-22795D02*
X41043Y-22539D01*
X42519Y-22795D02*
X41299Y-22795D01*
X42913Y-23188D02*
X42519Y-22795D01*
X42913Y-25236D02*
X42913Y-23188D01*
X42125Y-25433D02*
X42637Y-25433D01*
X41929Y-25629D02*
X42125Y-25433D01*
G54D32*
X41043Y-19094D02*
X41043Y-21062D01*
X40059Y-19094D02*
X40059Y-21062D01*
G54D33*
X41535Y-25845D02*
X41535Y-24723D01*
X41712Y-24172D02*
X42322Y-23562D01*
X41712Y-24547D02*
X41712Y-24172D01*
X41535Y-24723D02*
X41712Y-24547D01*
X40059Y-21062D02*
X40059Y-22648D01*
X40059Y-22648D02*
X40974Y-23562D01*
X40974Y-23562D02*
X42322Y-23562D01*
X58149Y-31811D02*
X62322Y-31811D01*
X57795Y-31496D02*
X57834Y-31496D01*
X64921Y-31377D02*
X65984Y-32440D01*
X62755Y-31377D02*
X64921Y-31377D01*
X62322Y-31811D02*
X62755Y-31377D01*
X57834Y-31496D02*
X58149Y-31811D01*
X71153Y-23393D02*
X71153Y-24393D01*
X68779Y-32440D02*
X65984Y-32440D01*
X71153Y-22393D02*
X71153Y-23393D01*
X71153Y-25393D02*
X71153Y-24393D01*
X71153Y-27393D02*
X71153Y-26393D01*
X71153Y-28393D02*
X71153Y-27393D01*
X54311Y-33946D02*
X55304Y-33946D01*
X55304Y-33946D02*
X55787Y-33464D01*
X55787Y-33464D02*
X55787Y-31771D01*
X55787Y-31771D02*
X56062Y-31496D01*
X56062Y-31496D02*
X57795Y-31496D01*
X70366Y-33464D02*
X70326Y-33503D01*
X70326Y-33503D02*
X68858Y-33503D01*
X68031Y-34803D02*
X69192Y-35964D01*
X68031Y-34330D02*
X68031Y-34803D01*
X68858Y-33503D02*
X68031Y-34330D01*
X70366Y-41732D02*
X69192Y-40559D01*
X69192Y-35964D02*
X69192Y-37303D01*
X69192Y-39488D02*
X69192Y-37303D01*
X69192Y-40559D02*
X69192Y-39488D01*
X70866Y-31555D02*
X70866Y-31964D01*
X70866Y-31964D02*
X71366Y-32464D01*
X70866Y-29645D02*
X71653Y-28858D01*
X70866Y-31555D02*
X70866Y-29645D01*
X70866Y-39153D02*
X72086Y-37933D01*
X72086Y-37933D02*
X72086Y-37244D01*
X71366Y-32464D02*
X72086Y-33185D01*
X72086Y-33185D02*
X72086Y-33425D01*
X70866Y-40232D02*
X70866Y-39153D01*
X71366Y-40732D02*
X70866Y-40232D01*
X72086Y-33425D02*
X72086Y-37244D01*
X72153Y-26393D02*
X71653Y-26893D01*
X71653Y-26893D02*
X71653Y-28385D01*
X71653Y-28385D02*
X71653Y-28858D01*
X72153Y-25393D02*
X72149Y-25393D01*
X69507Y-31594D02*
X69507Y-26535D01*
X69507Y-26535D02*
X70137Y-25905D01*
X69507Y-31606D02*
X69507Y-31594D01*
X69507Y-31606D02*
X70366Y-32464D01*
X70149Y-25893D02*
X70137Y-25905D01*
X71649Y-25893D02*
X70149Y-25893D01*
X72149Y-25393D02*
X71649Y-25893D01*
X70019Y-33964D02*
X68909Y-33964D01*
X70019Y-33964D02*
X70637Y-33964D01*
X70637Y-33964D02*
X70866Y-33736D01*
X70866Y-33736D02*
X70866Y-32964D01*
X70366Y-32464D02*
X70866Y-32964D01*
X68909Y-33964D02*
X68838Y-34035D01*
X69669Y-40035D02*
X69527Y-39893D01*
X70366Y-40732D02*
X69669Y-40035D01*
X68503Y-34763D02*
X68503Y-34370D01*
X68503Y-34370D02*
X68838Y-34035D01*
X69527Y-35787D02*
X68503Y-34763D01*
X69527Y-39893D02*
X69527Y-35787D01*
X68838Y-34035D02*
X68897Y-33976D01*
X72263Y-32362D02*
X72311Y-32409D01*
X72311Y-32409D02*
X72311Y-38787D01*
X72153Y-24393D02*
X72677Y-24917D01*
X72677Y-30153D02*
X71366Y-31464D01*
X72677Y-24917D02*
X72677Y-30153D01*
X71366Y-31464D02*
X72263Y-32362D01*
X72311Y-38787D02*
X71366Y-39732D01*
X62421Y-32185D02*
X60944Y-32185D01*
X54311Y-34714D02*
X55777Y-34714D01*
X55777Y-34714D02*
X55807Y-34685D01*
X68543Y-38141D02*
X68543Y-38129D01*
X71366Y-36881D02*
X71366Y-35464D01*
X70314Y-37933D02*
X71366Y-36881D01*
X68543Y-38129D02*
X68346Y-37933D01*
X68543Y-41850D02*
X68543Y-38141D01*
X71366Y-43732D02*
X70787Y-44311D01*
X70137Y-44311D02*
X70787Y-44311D01*
X68937Y-43110D02*
X70137Y-44311D01*
X68937Y-42244D02*
X68937Y-43110D01*
X68543Y-41850D02*
X68937Y-42244D01*
X71366Y-35464D02*
X71133Y-35464D01*
X71133Y-35464D02*
X70633Y-34964D01*
X70633Y-34964D02*
X69342Y-34964D01*
X69342Y-34964D02*
X69338Y-34968D01*
X71366Y-35464D02*
X71228Y-35464D01*
X55165Y-35669D02*
X54653Y-35669D01*
X54653Y-35669D02*
X54602Y-35720D01*
X57299Y-35631D02*
X57283Y-35631D01*
X57283Y-35631D02*
X57127Y-35787D01*
X66842Y-35850D02*
X66468Y-35850D01*
X66249Y-35631D02*
X64858Y-35631D01*
X66468Y-35850D02*
X66249Y-35631D01*
X67090Y-35594D02*
X67090Y-35602D01*
X67090Y-35602D02*
X66842Y-35850D01*
X67090Y-35594D02*
X67885Y-35594D01*
X57299Y-35631D02*
X64858Y-35631D01*
X56122Y-35787D02*
X56003Y-35669D01*
X56003Y-35669D02*
X55885Y-35669D01*
X56161Y-35787D02*
X56122Y-35787D01*
X57114Y-35787D02*
X56161Y-35787D01*
X68740Y-36763D02*
X68741Y-36763D01*
X68741Y-41714D02*
X68741Y-41222D01*
X70366Y-43732D02*
X69153Y-42519D01*
X69153Y-42125D02*
X68759Y-41732D01*
X69153Y-42519D02*
X69153Y-42125D01*
X68741Y-36763D02*
X68741Y-41222D01*
X68759Y-41732D02*
X68741Y-41714D01*
X67885Y-35594D02*
X68741Y-36450D01*
X68741Y-36450D02*
X68741Y-36762D01*
X68741Y-36762D02*
X68740Y-36763D01*
X55059Y-34969D02*
X55363Y-34969D01*
X55059Y-34969D02*
X54311Y-34969D01*
X55363Y-34969D02*
X55472Y-35078D01*
X55165Y-35669D02*
X55866Y-35669D01*
X55118Y-25845D02*
X55118Y-26771D01*
X55118Y-27697D02*
X55118Y-25845D01*
X56515Y-31899D02*
X57470Y-31899D01*
X57470Y-31899D02*
X57519Y-31850D01*
G54D34*
X40433Y-34307D02*
X38465Y-34307D01*
X47086Y-34346D02*
X40472Y-34346D01*
X40472Y-34346D02*
X40433Y-34307D01*
G54D31*
X47086Y-34346D02*
X50299Y-34346D01*
X50299Y-34346D02*
X50629Y-34015D01*
G54D33*
X52480Y-33916D02*
X50728Y-33916D01*
X50728Y-33916D02*
X50629Y-34015D01*
X60393Y-22047D02*
X60393Y-21968D01*
X60629Y-22283D02*
X60393Y-22047D01*
X71366Y-42732D02*
X72417Y-42732D01*
X72417Y-42732D02*
X72440Y-42755D01*
X69881Y-23484D02*
X69881Y-25256D01*
X69881Y-25787D02*
X69468Y-26200D01*
X69468Y-26200D02*
X68327Y-26200D01*
X69881Y-25256D02*
X69881Y-25787D01*
G54D32*
X65818Y-42716D02*
X65818Y-41174D01*
X65818Y-41174D02*
X65728Y-41083D01*
X62275Y-42716D02*
X62275Y-41174D01*
X62275Y-41174D02*
X62185Y-41083D01*
X58732Y-42716D02*
X58732Y-41174D01*
X58732Y-41174D02*
X58641Y-41083D01*
X55188Y-42716D02*
X55188Y-41174D01*
X55188Y-41174D02*
X55098Y-41083D01*
X51645Y-42716D02*
X51645Y-40534D01*
X51645Y-40534D02*
X51555Y-40443D01*
X48102Y-42716D02*
X48102Y-41174D01*
X48102Y-41174D02*
X48011Y-41083D01*
X44559Y-42716D02*
X44559Y-41174D01*
X44559Y-41174D02*
X44468Y-41083D01*
X41015Y-42716D02*
X41015Y-41174D01*
X41015Y-41174D02*
X40925Y-41083D01*
X37472Y-42716D02*
X37472Y-41174D01*
X37472Y-41174D02*
X37381Y-41083D01*
X62114Y-24212D02*
X62114Y-25755D01*
X62114Y-25755D02*
X62204Y-25845D01*
X58570Y-24212D02*
X58570Y-25755D01*
X58570Y-25755D02*
X58661Y-25845D01*
X55027Y-24212D02*
X55027Y-25755D01*
X55027Y-25755D02*
X55118Y-25845D01*
X51484Y-24212D02*
X51484Y-25755D01*
X51484Y-25755D02*
X51574Y-25845D01*
X47940Y-24212D02*
X47940Y-25755D01*
X47940Y-25755D02*
X48031Y-25845D01*
X44397Y-24212D02*
X44397Y-25755D01*
X44397Y-25755D02*
X44488Y-25845D01*
X41248Y-24212D02*
X40944Y-24515D01*
X40944Y-24515D02*
X40944Y-27697D01*
X51574Y-27697D02*
X51574Y-25845D01*
X51574Y-26485D02*
X51574Y-27697D01*
X48031Y-27697D02*
X48031Y-25845D01*
X65728Y-40157D02*
X65767Y-40118D01*
X65767Y-40118D02*
X66771Y-40118D01*
X62185Y-40157D02*
X63228Y-40157D01*
X58641Y-40157D02*
X59685Y-40157D01*
X55098Y-40157D02*
X56141Y-40157D01*
X51555Y-40157D02*
X52598Y-40157D01*
X48011Y-40157D02*
X48051Y-40196D01*
X48051Y-40196D02*
X49055Y-40196D01*
X44468Y-40157D02*
X45511Y-40157D01*
X40925Y-40157D02*
X41968Y-40157D01*
X37381Y-40157D02*
X38385Y-40157D01*
G54D33*
X40944Y-24921D02*
X40944Y-24515D01*
X40944Y-24921D02*
X40944Y-25845D01*
X55118Y-26485D02*
X55118Y-26771D01*
X47940Y-25755D02*
X48031Y-25845D01*
X62204Y-27057D02*
X62204Y-27697D01*
X62204Y-26771D02*
X62204Y-27057D01*
X62204Y-26485D02*
X62204Y-26771D01*
X62204Y-25845D02*
X62204Y-26485D01*
X58661Y-27057D02*
X58661Y-27697D01*
X58661Y-26771D02*
X58661Y-27057D01*
X58661Y-26485D02*
X58661Y-26771D01*
X58661Y-25845D02*
X58661Y-26485D01*
X51574Y-27057D02*
X51574Y-27697D01*
X51574Y-26771D02*
X51574Y-27057D01*
X51574Y-26485D02*
X51574Y-26771D01*
X51574Y-25845D02*
X51574Y-26485D01*
X48031Y-26771D02*
X48031Y-27057D01*
X48031Y-26771D02*
X48031Y-27697D01*
X48031Y-26485D02*
X48031Y-26771D01*
X48031Y-25845D02*
X48031Y-26485D01*
X44488Y-27057D02*
X44488Y-27697D01*
X44488Y-26771D02*
X44488Y-27057D01*
X44488Y-26485D02*
X44488Y-26771D01*
X44488Y-25845D02*
X44488Y-26485D01*
X65728Y-40443D02*
X65728Y-41083D01*
X65728Y-40157D02*
X65728Y-40443D01*
X65728Y-39871D02*
X65728Y-40157D01*
X65728Y-39231D02*
X65728Y-39871D01*
X62185Y-40443D02*
X62185Y-41083D01*
X62185Y-40157D02*
X62185Y-40443D01*
X62185Y-39871D02*
X62185Y-40157D01*
X62185Y-39231D02*
X62185Y-39871D01*
X58641Y-40443D02*
X58641Y-41083D01*
X58641Y-40157D02*
X58641Y-40443D01*
X58641Y-39871D02*
X58641Y-40157D01*
X58641Y-39231D02*
X58641Y-41083D01*
X55098Y-40157D02*
X55098Y-39871D01*
X55098Y-39231D02*
X55098Y-41083D01*
X55098Y-40157D02*
X55098Y-39231D01*
X55098Y-40443D02*
X55098Y-40157D01*
X55098Y-40157D02*
X55098Y-41083D01*
X51555Y-40157D02*
X51555Y-40443D01*
X51555Y-39871D02*
X51555Y-40157D01*
X51555Y-41083D02*
X51555Y-39871D01*
X51555Y-40157D02*
X51555Y-41083D01*
X51555Y-39231D02*
X51555Y-40157D01*
X48011Y-40443D02*
X48011Y-40157D01*
X48011Y-39871D02*
X48011Y-40443D01*
X48011Y-39231D02*
X48011Y-39871D01*
X44468Y-40157D02*
X44468Y-39871D01*
X44468Y-39871D02*
X44468Y-40443D01*
X44468Y-39231D02*
X44468Y-40157D01*
X40925Y-40157D02*
X40925Y-41083D01*
X40925Y-40443D02*
X40925Y-41083D01*
X40925Y-39871D02*
X40925Y-40157D01*
X37381Y-40443D02*
X37381Y-40157D01*
X37381Y-39871D02*
X37381Y-40157D01*
X44488Y-27057D02*
X44488Y-25845D01*
X40944Y-26771D02*
X40944Y-27057D01*
X40944Y-26485D02*
X40944Y-26771D01*
X40944Y-26771D02*
X40944Y-27697D01*
X40944Y-25845D02*
X40944Y-26771D01*
X62204Y-27697D02*
X62204Y-26771D01*
X62204Y-25845D02*
X62204Y-26771D01*
X58661Y-27697D02*
X58661Y-26771D01*
X58661Y-25845D02*
X58661Y-27697D01*
X58661Y-25845D02*
X58661Y-26771D01*
X55118Y-26485D02*
X55118Y-27057D01*
X44488Y-25845D02*
X44488Y-27697D01*
X64566Y-29724D02*
X65846Y-31003D01*
X65846Y-31003D02*
X65846Y-31988D01*
X65846Y-31988D02*
X66043Y-32185D01*
X66043Y-32185D02*
X67716Y-32185D01*
X67716Y-32185D02*
X68327Y-31574D01*
X58570Y-25755D02*
X58661Y-25845D01*
X62114Y-25755D02*
X62204Y-25845D01*
X55027Y-25755D02*
X55118Y-25845D01*
X51484Y-25755D02*
X51574Y-25845D01*
X44397Y-24015D02*
X44397Y-25755D01*
X44397Y-25755D02*
X44488Y-25845D01*
X48011Y-39231D02*
X48011Y-41083D01*
X44468Y-39231D02*
X44468Y-41083D01*
X65728Y-39231D02*
X65728Y-41083D01*
X51555Y-39231D02*
X51555Y-41083D01*
X40925Y-39231D02*
X40925Y-41083D01*
X37381Y-39231D02*
X37381Y-40157D01*
X37381Y-40157D02*
X37381Y-41083D01*
X68327Y-31574D02*
X68327Y-30511D01*
X68327Y-30511D02*
X68327Y-29448D01*
X68327Y-29448D02*
X68327Y-28366D01*
X68327Y-28366D02*
X68327Y-27283D01*
X68327Y-27283D02*
X68327Y-26200D01*
X52480Y-33916D02*
X53168Y-33916D01*
X53706Y-34454D02*
X54313Y-34454D01*
X53168Y-33916D02*
X53706Y-34454D01*
X65818Y-42716D02*
X65728Y-42625D01*
X65728Y-42625D02*
X65728Y-40157D01*
X62275Y-42716D02*
X62185Y-42625D01*
X62185Y-42625D02*
X62185Y-39231D01*
X55188Y-42716D02*
X55098Y-42625D01*
X55098Y-42625D02*
X55098Y-40157D01*
X48102Y-42716D02*
X48011Y-42625D01*
X48011Y-42625D02*
X48011Y-40443D01*
X37472Y-41174D02*
X37381Y-41083D01*
X52146Y-39231D02*
X52324Y-39409D01*
X52324Y-39409D02*
X53326Y-39409D01*
X51344Y-37303D02*
X52146Y-38105D01*
X52146Y-38105D02*
X52146Y-39231D01*
X46240Y-39409D02*
X46062Y-39231D01*
X46062Y-39231D02*
X45059Y-39231D01*
X44257Y-37303D02*
X45059Y-38105D01*
X45059Y-38105D02*
X45059Y-39231D01*
X62776Y-39231D02*
X62954Y-39409D01*
X62954Y-39409D02*
X63956Y-39409D01*
X61974Y-37303D02*
X62776Y-38105D01*
X62776Y-38105D02*
X62776Y-39231D01*
X59232Y-39231D02*
X59410Y-39409D01*
X59410Y-39409D02*
X60413Y-39409D01*
X58430Y-37303D02*
X59232Y-38105D01*
X59232Y-38105D02*
X59232Y-39231D01*
X61613Y-27697D02*
X61613Y-29639D01*
X61613Y-29639D02*
X61698Y-29724D01*
X60433Y-27519D02*
X61435Y-27519D01*
X61435Y-27519D02*
X61613Y-27697D01*
X65196Y-33070D02*
X64508Y-33070D01*
X68976Y-40275D02*
X68976Y-36141D01*
X68976Y-41342D02*
X68976Y-40275D01*
X68976Y-41342D02*
X70366Y-42732D01*
X68031Y-35196D02*
X68976Y-36141D01*
X67795Y-34960D02*
X68031Y-35196D01*
X67716Y-34960D02*
X67795Y-34960D01*
X67637Y-34881D02*
X67716Y-34960D01*
X71555Y-21456D02*
X72153Y-22055D01*
X72153Y-22055D02*
X72153Y-22393D01*
X69881Y-22184D02*
X69881Y-21653D01*
X70078Y-21456D02*
X71555Y-21456D01*
X69881Y-21653D02*
X70078Y-21456D01*
X50983Y-27697D02*
X49981Y-27697D01*
X49981Y-27697D02*
X49803Y-27519D01*
X50983Y-27697D02*
X50983Y-29639D01*
X50983Y-29639D02*
X51068Y-29724D01*
X46259Y-27519D02*
X47262Y-27519D01*
X47262Y-27519D02*
X47440Y-27697D01*
X47440Y-27697D02*
X47440Y-29639D01*
X47440Y-29639D02*
X47525Y-29724D01*
X43897Y-27697D02*
X43897Y-29612D01*
X43897Y-29612D02*
X43785Y-29724D01*
X43897Y-27697D02*
X42894Y-27697D01*
X42894Y-27697D02*
X42716Y-27519D01*
X53346Y-27519D02*
X54349Y-27519D01*
X54349Y-27519D02*
X54527Y-27697D01*
X54527Y-27697D02*
X54527Y-29639D01*
X54527Y-29639D02*
X54611Y-29724D01*
X55689Y-39231D02*
X55867Y-39409D01*
X55867Y-39409D02*
X56870Y-39409D01*
X54887Y-37303D02*
X55689Y-38105D01*
X55689Y-38105D02*
X55689Y-39231D01*
X58070Y-27697D02*
X58070Y-29639D01*
X58070Y-29639D02*
X58155Y-29724D01*
X56889Y-27519D02*
X57892Y-27519D01*
X57892Y-27519D02*
X58070Y-27697D01*
X38818Y-27795D02*
X40256Y-27795D01*
X40256Y-27795D02*
X40353Y-27697D01*
X38976Y-24960D02*
X38976Y-25787D01*
X40353Y-27164D02*
X40353Y-27697D01*
X38976Y-25787D02*
X40353Y-27164D01*
X37190Y-37283D02*
X37972Y-38065D01*
X37972Y-38065D02*
X37972Y-39231D01*
X37972Y-39231D02*
X38975Y-39231D01*
X38975Y-39231D02*
X39153Y-39409D01*
X42696Y-39409D02*
X42518Y-39231D01*
X42518Y-39231D02*
X41516Y-39231D01*
X41516Y-39231D02*
X41515Y-39231D01*
X41515Y-38104D02*
X40714Y-37303D01*
X41515Y-39231D02*
X41515Y-38104D01*
X66319Y-39231D02*
X66497Y-39409D01*
X66497Y-39409D02*
X67500Y-39409D01*
X65517Y-37303D02*
X66319Y-38105D01*
X66319Y-38105D02*
X66319Y-39231D01*
X49783Y-39409D02*
X49605Y-39231D01*
X49605Y-39231D02*
X48602Y-39231D01*
X47800Y-37303D02*
X48602Y-38105D01*
X48602Y-38105D02*
X48602Y-39231D01*
G54D10*
G36*
X37578Y-39473D02*
X37184Y-39473D01*
X37184Y-38986D01*
X37283Y-38986D01*
X37283Y-38978D01*
X37480Y-38978D01*
X37480Y-38986D01*
X37578Y-38986D01*
X37578Y-39473D01*
X37578Y-39473D01*
G37*
G54D33*
X37578Y-39473D02*
X37184Y-39473D01*
X37184Y-38986D01*
X37283Y-38986D01*
X37283Y-38978D01*
X37480Y-38978D01*
X37480Y-38986D01*
X37578Y-38986D01*
X37578Y-39473D01*
G54D10*
G36*
X37578Y-41328D02*
X37480Y-41328D01*
X37480Y-41336D01*
X37283Y-41336D01*
X37283Y-41328D01*
X37184Y-41328D01*
X37184Y-40841D01*
X37578Y-40841D01*
X37578Y-41328D01*
X37578Y-41328D01*
G37*
G54D33*
X37578Y-41328D02*
X37480Y-41328D01*
X37480Y-41336D01*
X37283Y-41336D01*
X37283Y-41328D01*
X37184Y-41328D01*
X37184Y-40841D01*
X37578Y-40841D01*
X37578Y-41328D01*
G54D10*
G36*
X39123Y-48768D02*
X37162Y-48768D01*
X37463Y-48043D01*
X37464Y-47235D01*
X37155Y-46488D01*
X36585Y-45916D01*
X35838Y-45607D01*
X35030Y-45606D01*
X34301Y-45907D01*
X34301Y-43925D01*
X36667Y-43925D01*
X36667Y-43390D01*
X36799Y-43522D01*
X36799Y-43631D01*
X36866Y-43794D01*
X36991Y-43920D01*
X37155Y-43988D01*
X37332Y-43988D01*
X37495Y-43920D01*
X37621Y-43795D01*
X37688Y-43632D01*
X37689Y-43512D01*
X37736Y-43506D01*
X37844Y-43462D01*
X37858Y-43297D01*
X37472Y-42910D01*
X37390Y-42992D01*
X37196Y-42798D01*
X37277Y-42716D01*
X37196Y-42634D01*
X37390Y-42440D01*
X37472Y-42522D01*
X37858Y-42135D01*
X37851Y-42050D01*
X37885Y-42035D01*
X38038Y-41883D01*
X38062Y-41826D01*
X38124Y-41826D01*
X38124Y-42201D01*
X38056Y-42229D01*
X37985Y-42299D01*
X37947Y-42391D01*
X37947Y-42435D01*
X37666Y-42716D01*
X37947Y-42997D01*
X37947Y-43041D01*
X37985Y-43132D01*
X38055Y-43203D01*
X38147Y-43241D01*
X38246Y-43241D01*
X38656Y-43241D01*
X38656Y-44763D01*
X38679Y-44878D01*
X38744Y-44975D01*
X39123Y-45354D01*
X39123Y-48768D01*
X39123Y-48768D01*
G37*
G54D33*
X39123Y-48768D02*
X37162Y-48768D01*
X37463Y-48043D01*
X37464Y-47235D01*
X37155Y-46488D01*
X36585Y-45916D01*
X35838Y-45607D01*
X35030Y-45606D01*
X34301Y-45907D01*
X34301Y-43925D01*
X36667Y-43925D01*
X36667Y-43390D01*
X36799Y-43522D01*
X36799Y-43631D01*
X36866Y-43794D01*
X36991Y-43920D01*
X37155Y-43988D01*
X37332Y-43988D01*
X37495Y-43920D01*
X37621Y-43795D01*
X37688Y-43632D01*
X37689Y-43512D01*
X37736Y-43506D01*
X37844Y-43462D01*
X37858Y-43297D01*
X37472Y-42910D01*
X37390Y-42992D01*
X37196Y-42798D01*
X37277Y-42716D01*
X37196Y-42634D01*
X37390Y-42440D01*
X37472Y-42522D01*
X37858Y-42135D01*
X37851Y-42050D01*
X37885Y-42035D01*
X38038Y-41883D01*
X38062Y-41826D01*
X38124Y-41826D01*
X38124Y-42201D01*
X38056Y-42229D01*
X37985Y-42299D01*
X37947Y-42391D01*
X37947Y-42435D01*
X37666Y-42716D01*
X37947Y-42997D01*
X37947Y-43041D01*
X37985Y-43132D01*
X38055Y-43203D01*
X38147Y-43241D01*
X38246Y-43241D01*
X38656Y-43241D01*
X38656Y-44763D01*
X38679Y-44878D01*
X38744Y-44975D01*
X39123Y-45354D01*
X39123Y-48768D01*
G54D10*
G36*
X39601Y-40340D02*
X39537Y-40340D01*
X38671Y-40340D01*
X38579Y-40378D01*
X38508Y-40448D01*
X38470Y-40540D01*
X38470Y-40639D01*
X38470Y-41088D01*
X38360Y-40978D01*
X38360Y-40541D01*
X38322Y-40449D01*
X38311Y-40437D01*
X38317Y-40423D01*
X38317Y-40371D01*
X38219Y-40273D01*
X38219Y-40198D01*
X38005Y-40198D01*
X37989Y-40157D01*
X38005Y-40116D01*
X38219Y-40116D01*
X38219Y-40041D01*
X38317Y-39943D01*
X38317Y-39891D01*
X38311Y-39877D01*
X38322Y-39865D01*
X38360Y-39773D01*
X38360Y-39674D01*
X38360Y-39531D01*
X38470Y-39531D01*
X38470Y-39773D01*
X38508Y-39865D01*
X38578Y-39936D01*
X38670Y-39974D01*
X38770Y-39974D01*
X39601Y-39974D01*
X39601Y-40340D01*
X39601Y-40340D01*
G37*
G54D33*
X39601Y-40340D02*
X39537Y-40340D01*
X38671Y-40340D01*
X38579Y-40378D01*
X38508Y-40448D01*
X38470Y-40540D01*
X38470Y-40639D01*
X38470Y-41088D01*
X38360Y-40978D01*
X38360Y-40541D01*
X38322Y-40449D01*
X38311Y-40437D01*
X38317Y-40423D01*
X38317Y-40371D01*
X38219Y-40273D01*
X38219Y-40198D01*
X38005Y-40198D01*
X37989Y-40157D01*
X38005Y-40116D01*
X38219Y-40116D01*
X38219Y-40041D01*
X38317Y-39943D01*
X38317Y-39891D01*
X38311Y-39877D01*
X38322Y-39865D01*
X38360Y-39773D01*
X38360Y-39674D01*
X38360Y-39531D01*
X38470Y-39531D01*
X38470Y-39773D01*
X38508Y-39865D01*
X38578Y-39936D01*
X38670Y-39974D01*
X38770Y-39974D01*
X39601Y-39974D01*
X39601Y-40340D01*
G54D10*
G36*
X40635Y-23648D02*
X40589Y-23694D01*
X40572Y-23687D01*
X40473Y-23687D01*
X39923Y-23687D01*
X39831Y-23725D01*
X39780Y-23776D01*
X39659Y-23654D01*
X39659Y-23100D01*
X39621Y-23008D01*
X39551Y-22937D01*
X39459Y-22899D01*
X39359Y-22899D01*
X38493Y-22899D01*
X38401Y-22937D01*
X38331Y-23007D01*
X38293Y-23099D01*
X38293Y-23116D01*
X37624Y-23116D01*
X36613Y-22104D01*
X36683Y-21934D01*
X36684Y-21531D01*
X36529Y-21158D01*
X36443Y-21071D01*
X36582Y-21014D01*
X37153Y-20443D01*
X37463Y-19697D01*
X37464Y-18889D01*
X37163Y-18160D01*
X38926Y-18160D01*
X38926Y-22884D01*
X39871Y-22884D01*
X40635Y-23648D01*
X40635Y-23648D01*
G37*
G54D33*
X40635Y-23648D02*
X40589Y-23694D01*
X40572Y-23687D01*
X40473Y-23687D01*
X39923Y-23687D01*
X39831Y-23725D01*
X39780Y-23776D01*
X39659Y-23654D01*
X39659Y-23100D01*
X39621Y-23008D01*
X39551Y-22937D01*
X39459Y-22899D01*
X39359Y-22899D01*
X38493Y-22899D01*
X38401Y-22937D01*
X38331Y-23007D01*
X38293Y-23099D01*
X38293Y-23116D01*
X37624Y-23116D01*
X36613Y-22104D01*
X36683Y-21934D01*
X36684Y-21531D01*
X36529Y-21158D01*
X36443Y-21071D01*
X36582Y-21014D01*
X37153Y-20443D01*
X37463Y-19697D01*
X37464Y-18889D01*
X37163Y-18160D01*
X38926Y-18160D01*
X38926Y-22884D01*
X39871Y-22884D01*
X40635Y-23648D01*
G54D10*
G36*
X41122Y-39473D02*
X40728Y-39473D01*
X40728Y-38986D01*
X40826Y-38986D01*
X40826Y-38978D01*
X41023Y-38978D01*
X41023Y-38986D01*
X41122Y-38986D01*
X41122Y-39473D01*
X41122Y-39473D01*
G37*
G54D33*
X41122Y-39473D02*
X40728Y-39473D01*
X40728Y-38986D01*
X40826Y-38986D01*
X40826Y-38978D01*
X41023Y-38978D01*
X41023Y-38986D01*
X41122Y-38986D01*
X41122Y-39473D01*
G54D10*
G36*
X41122Y-41328D02*
X41023Y-41328D01*
X41023Y-41336D01*
X40826Y-41336D01*
X40826Y-41328D01*
X40728Y-41328D01*
X40728Y-40841D01*
X41122Y-40841D01*
X41122Y-41328D01*
X41122Y-41328D01*
G37*
G54D33*
X41122Y-41328D02*
X41023Y-41328D01*
X41023Y-41336D01*
X40826Y-41336D01*
X40826Y-41328D01*
X40728Y-41328D01*
X40728Y-40841D01*
X41122Y-40841D01*
X41122Y-41328D01*
G54D10*
G36*
X41141Y-26088D02*
X40747Y-26088D01*
X40747Y-25600D01*
X40846Y-25600D01*
X40846Y-25592D01*
X41043Y-25592D01*
X41043Y-25600D01*
X41141Y-25600D01*
X41141Y-26088D01*
X41141Y-26088D01*
G37*
G54D33*
X41141Y-26088D02*
X40747Y-26088D01*
X40747Y-25600D01*
X40846Y-25600D01*
X40846Y-25592D01*
X41043Y-25592D01*
X41043Y-25600D01*
X41141Y-25600D01*
X41141Y-26088D01*
G54D10*
G36*
X41141Y-27942D02*
X41043Y-27942D01*
X41043Y-27950D01*
X40846Y-27950D01*
X40846Y-27942D01*
X40747Y-27942D01*
X40747Y-27455D01*
X41141Y-27455D01*
X41141Y-27942D01*
X41141Y-27942D01*
G37*
G54D33*
X41141Y-27942D02*
X41043Y-27942D01*
X41043Y-27950D01*
X40846Y-27950D01*
X40846Y-27942D01*
X40747Y-27942D01*
X40747Y-27455D01*
X41141Y-27455D01*
X41141Y-27942D01*
G54D10*
G36*
X41441Y-24048D02*
X41435Y-24058D01*
X41412Y-24172D01*
X41412Y-24406D01*
X41329Y-24488D01*
X41248Y-24407D01*
X41166Y-24488D01*
X40971Y-24294D01*
X41053Y-24212D01*
X40971Y-24130D01*
X41166Y-23936D01*
X41248Y-24018D01*
X41329Y-23936D01*
X41441Y-24048D01*
X41441Y-24048D01*
G37*
G54D33*
X41441Y-24048D02*
X41435Y-24058D01*
X41412Y-24172D01*
X41412Y-24406D01*
X41329Y-24488D01*
X41248Y-24407D01*
X41166Y-24488D01*
X40971Y-24294D01*
X41053Y-24212D01*
X40971Y-24130D01*
X41166Y-23936D01*
X41248Y-24018D01*
X41329Y-23936D01*
X41441Y-24048D01*
G54D10*
G36*
X41670Y-42199D02*
X41599Y-42229D01*
X41528Y-42299D01*
X41490Y-42391D01*
X41490Y-42435D01*
X41349Y-42577D01*
X41210Y-42716D01*
X41291Y-42798D01*
X41097Y-42992D01*
X41015Y-42910D01*
X40933Y-42992D01*
X40739Y-42798D01*
X40821Y-42716D01*
X40739Y-42634D01*
X40933Y-42440D01*
X41015Y-42522D01*
X41349Y-42188D01*
X41402Y-42135D01*
X41394Y-42050D01*
X41428Y-42035D01*
X41581Y-41883D01*
X41605Y-41826D01*
X41670Y-41826D01*
X41670Y-42199D01*
X41670Y-42199D01*
G37*
G54D33*
X41670Y-42199D02*
X41599Y-42229D01*
X41528Y-42299D01*
X41490Y-42391D01*
X41490Y-42435D01*
X41349Y-42577D01*
X41210Y-42716D01*
X41291Y-42798D01*
X41097Y-42992D01*
X41015Y-42910D01*
X40933Y-42992D01*
X40739Y-42798D01*
X40821Y-42716D01*
X40739Y-42634D01*
X40933Y-42440D01*
X41015Y-42522D01*
X41349Y-42188D01*
X41402Y-42135D01*
X41394Y-42050D01*
X41428Y-42035D01*
X41581Y-41883D01*
X41605Y-41826D01*
X41670Y-41826D01*
X41670Y-42199D01*
G54D10*
G36*
X43144Y-40340D02*
X43080Y-40340D01*
X42214Y-40340D01*
X42122Y-40378D01*
X42052Y-40448D01*
X42013Y-40540D01*
X42013Y-40639D01*
X42013Y-41088D01*
X41904Y-40978D01*
X41904Y-40541D01*
X41866Y-40449D01*
X41854Y-40437D01*
X41860Y-40423D01*
X41860Y-40371D01*
X41762Y-40273D01*
X41762Y-40198D01*
X41549Y-40198D01*
X41532Y-40157D01*
X41549Y-40116D01*
X41762Y-40116D01*
X41762Y-40041D01*
X41860Y-39943D01*
X41860Y-39891D01*
X41854Y-39877D01*
X41866Y-39865D01*
X41904Y-39773D01*
X41904Y-39674D01*
X41904Y-39531D01*
X42013Y-39531D01*
X42013Y-39773D01*
X42051Y-39865D01*
X42122Y-39936D01*
X42213Y-39974D01*
X42313Y-39974D01*
X43144Y-39974D01*
X43144Y-40340D01*
X43144Y-40340D01*
G37*
G54D33*
X43144Y-40340D02*
X43080Y-40340D01*
X42214Y-40340D01*
X42122Y-40378D01*
X42052Y-40448D01*
X42013Y-40540D01*
X42013Y-40639D01*
X42013Y-41088D01*
X41904Y-40978D01*
X41904Y-40541D01*
X41866Y-40449D01*
X41854Y-40437D01*
X41860Y-40423D01*
X41860Y-40371D01*
X41762Y-40273D01*
X41762Y-40198D01*
X41549Y-40198D01*
X41532Y-40157D01*
X41549Y-40116D01*
X41762Y-40116D01*
X41762Y-40041D01*
X41860Y-39943D01*
X41860Y-39891D01*
X41854Y-39877D01*
X41866Y-39865D01*
X41904Y-39773D01*
X41904Y-39674D01*
X41904Y-39531D01*
X42013Y-39531D01*
X42013Y-39773D01*
X42051Y-39865D01*
X42122Y-39936D01*
X42213Y-39974D01*
X42313Y-39974D01*
X43144Y-39974D01*
X43144Y-40340D01*
G54D10*
G36*
X44665Y-39473D02*
X44271Y-39473D01*
X44271Y-38986D01*
X44370Y-38986D01*
X44370Y-38978D01*
X44567Y-38978D01*
X44567Y-38986D01*
X44665Y-38986D01*
X44665Y-39473D01*
X44665Y-39473D01*
G37*
G54D33*
X44665Y-39473D02*
X44271Y-39473D01*
X44271Y-38986D01*
X44370Y-38986D01*
X44370Y-38978D01*
X44567Y-38978D01*
X44567Y-38986D01*
X44665Y-38986D01*
X44665Y-39473D01*
G54D10*
G36*
X44665Y-41328D02*
X44567Y-41328D01*
X44567Y-41336D01*
X44370Y-41336D01*
X44370Y-41328D01*
X44271Y-41328D01*
X44271Y-40841D01*
X44665Y-40841D01*
X44665Y-41328D01*
X44665Y-41328D01*
G37*
G54D33*
X44665Y-41328D02*
X44567Y-41328D01*
X44567Y-41336D01*
X44370Y-41336D01*
X44370Y-41328D01*
X44271Y-41328D01*
X44271Y-40841D01*
X44665Y-40841D01*
X44665Y-41328D01*
G54D10*
G36*
X44685Y-26088D02*
X44291Y-26088D01*
X44291Y-25600D01*
X44389Y-25600D01*
X44389Y-25592D01*
X44586Y-25592D01*
X44586Y-25600D01*
X44685Y-25600D01*
X44685Y-26088D01*
X44685Y-26088D01*
G37*
G54D33*
X44685Y-26088D02*
X44291Y-26088D01*
X44291Y-25600D01*
X44389Y-25600D01*
X44389Y-25592D01*
X44586Y-25592D01*
X44586Y-25600D01*
X44685Y-25600D01*
X44685Y-26088D01*
G54D10*
G36*
X44685Y-27942D02*
X44586Y-27942D01*
X44586Y-27950D01*
X44389Y-27950D01*
X44389Y-27942D01*
X44291Y-27942D01*
X44291Y-27455D01*
X44685Y-27455D01*
X44685Y-27942D01*
X44685Y-27942D01*
G37*
G54D33*
X44685Y-27942D02*
X44586Y-27942D01*
X44586Y-27950D01*
X44389Y-27950D01*
X44389Y-27942D01*
X44291Y-27942D01*
X44291Y-27455D01*
X44685Y-27455D01*
X44685Y-27942D01*
G54D10*
G36*
X45182Y-42212D02*
X45142Y-42229D01*
X45072Y-42299D01*
X45034Y-42391D01*
X45034Y-42435D01*
X44753Y-42716D01*
X44835Y-42798D01*
X44640Y-42992D01*
X44559Y-42910D01*
X44477Y-42992D01*
X44282Y-42798D01*
X44364Y-42716D01*
X44282Y-42634D01*
X44477Y-42440D01*
X44559Y-42522D01*
X44945Y-42135D01*
X44937Y-42050D01*
X44972Y-42035D01*
X45124Y-41883D01*
X45148Y-41826D01*
X45182Y-41826D01*
X45182Y-42212D01*
X45182Y-42212D01*
G37*
G54D33*
X45182Y-42212D02*
X45142Y-42229D01*
X45072Y-42299D01*
X45034Y-42391D01*
X45034Y-42435D01*
X44753Y-42716D01*
X44835Y-42798D01*
X44640Y-42992D01*
X44559Y-42910D01*
X44477Y-42992D01*
X44282Y-42798D01*
X44364Y-42716D01*
X44282Y-42634D01*
X44477Y-42440D01*
X44559Y-42522D01*
X44945Y-42135D01*
X44937Y-42050D01*
X44972Y-42035D01*
X45124Y-41883D01*
X45148Y-41826D01*
X45182Y-41826D01*
X45182Y-42212D01*
G54D10*
G36*
X45216Y-23788D02*
X45149Y-23855D01*
X45143Y-23840D01*
X44978Y-23826D01*
X44784Y-24020D01*
X44784Y-23631D01*
X44769Y-23467D01*
X44455Y-23381D01*
X44133Y-23422D01*
X44025Y-23467D01*
X44011Y-23631D01*
X44397Y-24018D01*
X44784Y-23631D01*
X44784Y-24020D01*
X44592Y-24212D01*
X44673Y-24294D01*
X44479Y-24488D01*
X44397Y-24407D01*
X44011Y-24793D01*
X44018Y-24879D01*
X43984Y-24893D01*
X43831Y-25045D01*
X43808Y-25103D01*
X43746Y-25103D01*
X43746Y-24727D01*
X43814Y-24699D01*
X43884Y-24629D01*
X43922Y-24537D01*
X43922Y-24493D01*
X44203Y-24212D01*
X43922Y-23932D01*
X43922Y-23888D01*
X43884Y-23796D01*
X43814Y-23725D01*
X43722Y-23687D01*
X43623Y-23687D01*
X43213Y-23687D01*
X43213Y-23293D01*
X43251Y-23318D01*
X43366Y-23341D01*
X45216Y-23341D01*
X45216Y-23788D01*
X45216Y-23788D01*
G37*
G54D33*
X45216Y-23788D02*
X45149Y-23855D01*
X45143Y-23840D01*
X44978Y-23826D01*
X44784Y-24020D01*
X44784Y-23631D01*
X44769Y-23467D01*
X44455Y-23381D01*
X44133Y-23422D01*
X44025Y-23467D01*
X44011Y-23631D01*
X44397Y-24018D01*
X44784Y-23631D01*
X44784Y-24020D01*
X44592Y-24212D01*
X44673Y-24294D01*
X44479Y-24488D01*
X44397Y-24407D01*
X44011Y-24793D01*
X44018Y-24879D01*
X43984Y-24893D01*
X43831Y-25045D01*
X43808Y-25103D01*
X43746Y-25103D01*
X43746Y-24727D01*
X43814Y-24699D01*
X43884Y-24629D01*
X43922Y-24537D01*
X43922Y-24493D01*
X44203Y-24212D01*
X43922Y-23932D01*
X43922Y-23888D01*
X43884Y-23796D01*
X43814Y-23725D01*
X43722Y-23687D01*
X43623Y-23687D01*
X43213Y-23687D01*
X43213Y-23293D01*
X43251Y-23318D01*
X43366Y-23341D01*
X45216Y-23341D01*
X45216Y-23788D01*
G54D10*
G36*
X46688Y-40340D02*
X46623Y-40340D01*
X45757Y-40340D01*
X45665Y-40378D01*
X45595Y-40448D01*
X45557Y-40540D01*
X45557Y-40639D01*
X45557Y-41036D01*
X45531Y-41062D01*
X45447Y-40978D01*
X45447Y-40541D01*
X45409Y-40449D01*
X45397Y-40437D01*
X45404Y-40423D01*
X45404Y-40371D01*
X45306Y-40273D01*
X45306Y-40198D01*
X45092Y-40198D01*
X45075Y-40157D01*
X45092Y-40116D01*
X45306Y-40116D01*
X45306Y-40041D01*
X45404Y-39943D01*
X45404Y-39891D01*
X45397Y-39877D01*
X45409Y-39865D01*
X45447Y-39773D01*
X45447Y-39674D01*
X45447Y-39531D01*
X45557Y-39531D01*
X45557Y-39773D01*
X45595Y-39865D01*
X45665Y-39936D01*
X45757Y-39974D01*
X45856Y-39974D01*
X46688Y-39974D01*
X46688Y-40340D01*
X46688Y-40340D01*
G37*
G54D33*
X46688Y-40340D02*
X46623Y-40340D01*
X45757Y-40340D01*
X45665Y-40378D01*
X45595Y-40448D01*
X45557Y-40540D01*
X45557Y-40639D01*
X45557Y-41036D01*
X45531Y-41062D01*
X45447Y-40978D01*
X45447Y-40541D01*
X45409Y-40449D01*
X45397Y-40437D01*
X45404Y-40423D01*
X45404Y-40371D01*
X45306Y-40273D01*
X45306Y-40198D01*
X45092Y-40198D01*
X45075Y-40157D01*
X45092Y-40116D01*
X45306Y-40116D01*
X45306Y-40041D01*
X45404Y-39943D01*
X45404Y-39891D01*
X45397Y-39877D01*
X45409Y-39865D01*
X45447Y-39773D01*
X45447Y-39674D01*
X45447Y-39531D01*
X45557Y-39531D01*
X45557Y-39773D01*
X45595Y-39865D01*
X45665Y-39936D01*
X45757Y-39974D01*
X45856Y-39974D01*
X46688Y-39974D01*
X46688Y-40340D01*
G54D10*
G36*
X48208Y-39473D02*
X47814Y-39473D01*
X47814Y-38986D01*
X47913Y-38986D01*
X47913Y-38978D01*
X48110Y-38978D01*
X48110Y-38986D01*
X48208Y-38986D01*
X48208Y-39473D01*
X48208Y-39473D01*
G37*
G54D33*
X48208Y-39473D02*
X47814Y-39473D01*
X47814Y-38986D01*
X47913Y-38986D01*
X47913Y-38978D01*
X48110Y-38978D01*
X48110Y-38986D01*
X48208Y-38986D01*
X48208Y-39473D01*
G54D10*
G36*
X48208Y-41328D02*
X48110Y-41328D01*
X48110Y-41336D01*
X47913Y-41336D01*
X47913Y-41328D01*
X47814Y-41328D01*
X47814Y-40841D01*
X48208Y-40841D01*
X48208Y-41328D01*
X48208Y-41328D01*
G37*
G54D33*
X48208Y-41328D02*
X48110Y-41328D01*
X48110Y-41336D01*
X47913Y-41336D01*
X47913Y-41328D01*
X47814Y-41328D01*
X47814Y-40841D01*
X48208Y-40841D01*
X48208Y-41328D01*
G54D10*
G36*
X48228Y-26088D02*
X47834Y-26088D01*
X47834Y-25600D01*
X47932Y-25600D01*
X47932Y-25592D01*
X48129Y-25592D01*
X48129Y-25600D01*
X48228Y-25600D01*
X48228Y-26088D01*
X48228Y-26088D01*
G37*
G54D33*
X48228Y-26088D02*
X47834Y-26088D01*
X47834Y-25600D01*
X47932Y-25600D01*
X47932Y-25592D01*
X48129Y-25592D01*
X48129Y-25600D01*
X48228Y-25600D01*
X48228Y-26088D01*
G54D10*
G36*
X48228Y-27942D02*
X48129Y-27942D01*
X48129Y-27950D01*
X47932Y-27950D01*
X47932Y-27942D01*
X47834Y-27942D01*
X47834Y-27455D01*
X48228Y-27455D01*
X48228Y-27942D01*
X48228Y-27942D01*
G37*
G54D33*
X48228Y-27942D02*
X48129Y-27942D01*
X48129Y-27950D01*
X47932Y-27950D01*
X47932Y-27942D01*
X47834Y-27942D01*
X47834Y-27455D01*
X48228Y-27455D01*
X48228Y-27942D01*
G54D10*
G36*
X48759Y-23788D02*
X48692Y-23855D01*
X48686Y-23840D01*
X48521Y-23826D01*
X48327Y-24020D01*
X48327Y-23631D01*
X48312Y-23467D01*
X47999Y-23381D01*
X47676Y-23422D01*
X47569Y-23467D01*
X47554Y-23631D01*
X47940Y-24018D01*
X48327Y-23631D01*
X48327Y-24020D01*
X48135Y-24212D01*
X48217Y-24294D01*
X48022Y-24488D01*
X47940Y-24407D01*
X47554Y-24793D01*
X47562Y-24879D01*
X47527Y-24893D01*
X47375Y-25045D01*
X47351Y-25103D01*
X47289Y-25103D01*
X47289Y-24727D01*
X47357Y-24699D01*
X47427Y-24629D01*
X47465Y-24537D01*
X47465Y-24493D01*
X47746Y-24212D01*
X47465Y-23932D01*
X47465Y-23888D01*
X47428Y-23796D01*
X47357Y-23725D01*
X47265Y-23687D01*
X47166Y-23687D01*
X46776Y-23687D01*
X46776Y-23001D01*
X46753Y-22887D01*
X46721Y-22839D01*
X48261Y-22839D01*
X48759Y-23336D01*
X48759Y-23788D01*
X48759Y-23788D01*
G37*
G54D33*
X48759Y-23788D02*
X48692Y-23855D01*
X48686Y-23840D01*
X48521Y-23826D01*
X48327Y-24020D01*
X48327Y-23631D01*
X48312Y-23467D01*
X47999Y-23381D01*
X47676Y-23422D01*
X47569Y-23467D01*
X47554Y-23631D01*
X47940Y-24018D01*
X48327Y-23631D01*
X48327Y-24020D01*
X48135Y-24212D01*
X48217Y-24294D01*
X48022Y-24488D01*
X47940Y-24407D01*
X47554Y-24793D01*
X47562Y-24879D01*
X47527Y-24893D01*
X47375Y-25045D01*
X47351Y-25103D01*
X47289Y-25103D01*
X47289Y-24727D01*
X47357Y-24699D01*
X47427Y-24629D01*
X47465Y-24537D01*
X47465Y-24493D01*
X47746Y-24212D01*
X47465Y-23932D01*
X47465Y-23888D01*
X47428Y-23796D01*
X47357Y-23725D01*
X47265Y-23687D01*
X47166Y-23687D01*
X46776Y-23687D01*
X46776Y-23001D01*
X46753Y-22887D01*
X46721Y-22839D01*
X48261Y-22839D01*
X48759Y-23336D01*
X48759Y-23788D01*
G54D10*
G36*
X49957Y-34818D02*
X47995Y-34818D01*
X47899Y-34818D01*
X47902Y-34815D01*
X47829Y-34742D01*
X47911Y-34729D01*
X47995Y-34384D01*
X47940Y-34033D01*
X47911Y-33963D01*
X47743Y-33937D01*
X47496Y-34184D01*
X47496Y-33689D01*
X47469Y-33521D01*
X47124Y-33437D01*
X46774Y-33492D01*
X46703Y-33521D01*
X46677Y-33689D01*
X47086Y-34098D01*
X47496Y-33689D01*
X47496Y-34184D01*
X47334Y-34346D01*
X47389Y-34401D01*
X47141Y-34649D01*
X47086Y-34593D01*
X47031Y-34649D01*
X46839Y-34456D01*
X46783Y-34401D01*
X46839Y-34346D01*
X46429Y-33937D01*
X46261Y-33963D01*
X46177Y-34308D01*
X46232Y-34658D01*
X46261Y-34729D01*
X46343Y-34742D01*
X46270Y-34815D01*
X46273Y-34818D01*
X43543Y-34818D01*
X43428Y-34840D01*
X43331Y-34905D01*
X43104Y-35133D01*
X41349Y-35133D01*
X41181Y-35133D01*
X41349Y-35011D01*
X41460Y-34930D01*
X41627Y-34619D01*
X41527Y-34484D01*
X41349Y-34484D01*
X41349Y-34130D01*
X41527Y-34130D01*
X41627Y-33994D01*
X41460Y-33683D01*
X41349Y-33602D01*
X41349Y-32560D01*
X41364Y-32538D01*
X41410Y-32307D01*
X41364Y-32075D01*
X41349Y-32053D01*
X41349Y-31725D01*
X41420Y-31773D01*
X41535Y-31796D01*
X41889Y-31796D01*
X45078Y-31796D01*
X45269Y-31796D01*
X45417Y-31944D01*
X45515Y-32009D01*
X45629Y-32032D01*
X46486Y-32032D01*
X46486Y-32045D01*
X46486Y-32745D01*
X46524Y-32837D01*
X46594Y-32908D01*
X46686Y-32946D01*
X46786Y-32946D01*
X47486Y-32946D01*
X47578Y-32908D01*
X47648Y-32838D01*
X47667Y-32793D01*
X49792Y-32793D01*
X49792Y-33338D01*
X49737Y-33394D01*
X49654Y-33593D01*
X49654Y-33722D01*
X49790Y-33858D01*
X49792Y-33858D01*
X49792Y-34173D01*
X49790Y-34173D01*
X49654Y-34308D01*
X49654Y-34438D01*
X49737Y-34637D01*
X49889Y-34790D01*
X49957Y-34818D01*
X49957Y-34818D01*
G37*
G54D33*
X49957Y-34818D02*
X47995Y-34818D01*
X47899Y-34818D01*
X47902Y-34815D01*
X47829Y-34742D01*
X47911Y-34729D01*
X47995Y-34384D01*
X47940Y-34033D01*
X47911Y-33963D01*
X47743Y-33937D01*
X47496Y-34184D01*
X47496Y-33689D01*
X47469Y-33521D01*
X47124Y-33437D01*
X46774Y-33492D01*
X46703Y-33521D01*
X46677Y-33689D01*
X47086Y-34098D01*
X47496Y-33689D01*
X47496Y-34184D01*
X47334Y-34346D01*
X47389Y-34401D01*
X47141Y-34649D01*
X47086Y-34593D01*
X47031Y-34649D01*
X46839Y-34456D01*
X46783Y-34401D01*
X46839Y-34346D01*
X46429Y-33937D01*
X46261Y-33963D01*
X46177Y-34308D01*
X46232Y-34658D01*
X46261Y-34729D01*
X46343Y-34742D01*
X46270Y-34815D01*
X46273Y-34818D01*
X43543Y-34818D01*
X43428Y-34840D01*
X43331Y-34905D01*
X43104Y-35133D01*
X41349Y-35133D01*
X41181Y-35133D01*
X41349Y-35011D01*
X41460Y-34930D01*
X41627Y-34619D01*
X41527Y-34484D01*
X41349Y-34484D01*
X41349Y-34130D01*
X41527Y-34130D01*
X41627Y-33994D01*
X41460Y-33683D01*
X41349Y-33602D01*
X41349Y-32560D01*
X41364Y-32538D01*
X41410Y-32307D01*
X41364Y-32075D01*
X41349Y-32053D01*
X41349Y-31725D01*
X41420Y-31773D01*
X41535Y-31796D01*
X41889Y-31796D01*
X45078Y-31796D01*
X45269Y-31796D01*
X45417Y-31944D01*
X45515Y-32009D01*
X45629Y-32032D01*
X46486Y-32032D01*
X46486Y-32045D01*
X46486Y-32745D01*
X46524Y-32837D01*
X46594Y-32908D01*
X46686Y-32946D01*
X46786Y-32946D01*
X47486Y-32946D01*
X47578Y-32908D01*
X47648Y-32838D01*
X47667Y-32793D01*
X49792Y-32793D01*
X49792Y-33338D01*
X49737Y-33394D01*
X49654Y-33593D01*
X49654Y-33722D01*
X49790Y-33858D01*
X49792Y-33858D01*
X49792Y-34173D01*
X49790Y-34173D01*
X49654Y-34308D01*
X49654Y-34438D01*
X49737Y-34637D01*
X49889Y-34790D01*
X49957Y-34818D01*
G54D10*
G36*
X50146Y-48768D02*
X46112Y-48768D01*
X46112Y-44788D01*
X46299Y-44788D01*
X46299Y-44788D01*
X46414Y-44765D01*
X46414Y-44765D01*
X46511Y-44700D01*
X46865Y-44345D01*
X46865Y-44345D01*
X46930Y-44248D01*
X46953Y-44133D01*
X46953Y-44133D01*
X46953Y-43916D01*
X47103Y-43916D01*
X47194Y-43878D01*
X47249Y-43823D01*
X47267Y-43841D01*
X47430Y-43909D01*
X47607Y-43909D01*
X47771Y-43841D01*
X47896Y-43716D01*
X47964Y-43553D01*
X47964Y-43525D01*
X48044Y-43547D01*
X48366Y-43506D01*
X48474Y-43462D01*
X48488Y-43297D01*
X48102Y-42910D01*
X48020Y-42992D01*
X47826Y-42798D01*
X47907Y-42716D01*
X47826Y-42634D01*
X48020Y-42440D01*
X48102Y-42522D01*
X48488Y-42135D01*
X48481Y-42050D01*
X48515Y-42035D01*
X48668Y-41883D01*
X48691Y-41826D01*
X48755Y-41826D01*
X48755Y-42200D01*
X48685Y-42229D01*
X48615Y-42299D01*
X48577Y-42391D01*
X48577Y-42435D01*
X48296Y-42716D01*
X48577Y-42997D01*
X48577Y-43041D01*
X48615Y-43132D01*
X48685Y-43203D01*
X48777Y-43241D01*
X48876Y-43241D01*
X49286Y-43241D01*
X49286Y-44369D01*
X49309Y-44484D01*
X49374Y-44581D01*
X49640Y-44847D01*
X49640Y-44847D01*
X49737Y-44912D01*
X49852Y-44935D01*
X49852Y-44935D01*
X50101Y-44935D01*
X50146Y-44980D01*
X50146Y-48768D01*
X50146Y-48768D01*
G37*
G54D33*
X50146Y-48768D02*
X46112Y-48768D01*
X46112Y-44788D01*
X46299Y-44788D01*
X46299Y-44788D01*
X46414Y-44765D01*
X46414Y-44765D01*
X46511Y-44700D01*
X46865Y-44345D01*
X46865Y-44345D01*
X46930Y-44248D01*
X46953Y-44133D01*
X46953Y-44133D01*
X46953Y-43916D01*
X47103Y-43916D01*
X47194Y-43878D01*
X47249Y-43823D01*
X47267Y-43841D01*
X47430Y-43909D01*
X47607Y-43909D01*
X47771Y-43841D01*
X47896Y-43716D01*
X47964Y-43553D01*
X47964Y-43525D01*
X48044Y-43547D01*
X48366Y-43506D01*
X48474Y-43462D01*
X48488Y-43297D01*
X48102Y-42910D01*
X48020Y-42992D01*
X47826Y-42798D01*
X47907Y-42716D01*
X47826Y-42634D01*
X48020Y-42440D01*
X48102Y-42522D01*
X48488Y-42135D01*
X48481Y-42050D01*
X48515Y-42035D01*
X48668Y-41883D01*
X48691Y-41826D01*
X48755Y-41826D01*
X48755Y-42200D01*
X48685Y-42229D01*
X48615Y-42299D01*
X48577Y-42391D01*
X48577Y-42435D01*
X48296Y-42716D01*
X48577Y-42997D01*
X48577Y-43041D01*
X48615Y-43132D01*
X48685Y-43203D01*
X48777Y-43241D01*
X48876Y-43241D01*
X49286Y-43241D01*
X49286Y-44369D01*
X49309Y-44484D01*
X49374Y-44581D01*
X49640Y-44847D01*
X49640Y-44847D01*
X49737Y-44912D01*
X49852Y-44935D01*
X49852Y-44935D01*
X50101Y-44935D01*
X50146Y-44980D01*
X50146Y-48768D01*
G54D10*
G36*
X50231Y-40340D02*
X50166Y-40340D01*
X49300Y-40340D01*
X49209Y-40378D01*
X49138Y-40448D01*
X49100Y-40540D01*
X49100Y-40639D01*
X49100Y-41088D01*
X48990Y-40978D01*
X48990Y-40541D01*
X48952Y-40449D01*
X48941Y-40437D01*
X48947Y-40423D01*
X48947Y-40371D01*
X48849Y-40273D01*
X48849Y-40198D01*
X48635Y-40198D01*
X48619Y-40157D01*
X48635Y-40116D01*
X48849Y-40116D01*
X48849Y-40041D01*
X48947Y-39943D01*
X48947Y-39891D01*
X48941Y-39877D01*
X48952Y-39865D01*
X48990Y-39773D01*
X48990Y-39674D01*
X48990Y-39531D01*
X49100Y-39531D01*
X49100Y-39773D01*
X49138Y-39865D01*
X49208Y-39936D01*
X49300Y-39974D01*
X49399Y-39974D01*
X50231Y-39974D01*
X50231Y-40340D01*
X50231Y-40340D01*
G37*
G54D33*
X50231Y-40340D02*
X50166Y-40340D01*
X49300Y-40340D01*
X49209Y-40378D01*
X49138Y-40448D01*
X49100Y-40540D01*
X49100Y-40639D01*
X49100Y-41088D01*
X48990Y-40978D01*
X48990Y-40541D01*
X48952Y-40449D01*
X48941Y-40437D01*
X48947Y-40423D01*
X48947Y-40371D01*
X48849Y-40273D01*
X48849Y-40198D01*
X48635Y-40198D01*
X48619Y-40157D01*
X48635Y-40116D01*
X48849Y-40116D01*
X48849Y-40041D01*
X48947Y-39943D01*
X48947Y-39891D01*
X48941Y-39877D01*
X48952Y-39865D01*
X48990Y-39773D01*
X48990Y-39674D01*
X48990Y-39531D01*
X49100Y-39531D01*
X49100Y-39773D01*
X49138Y-39865D01*
X49208Y-39936D01*
X49300Y-39974D01*
X49399Y-39974D01*
X50231Y-39974D01*
X50231Y-40340D01*
G54D10*
G36*
X51752Y-39473D02*
X51358Y-39473D01*
X51358Y-38986D01*
X51456Y-38986D01*
X51456Y-38978D01*
X51653Y-38978D01*
X51653Y-38986D01*
X51752Y-38986D01*
X51752Y-39473D01*
X51752Y-39473D01*
G37*
G54D33*
X51752Y-39473D02*
X51358Y-39473D01*
X51358Y-38986D01*
X51456Y-38986D01*
X51456Y-38978D01*
X51653Y-38978D01*
X51653Y-38986D01*
X51752Y-38986D01*
X51752Y-39473D01*
G54D10*
G36*
X51752Y-41328D02*
X51653Y-41328D01*
X51653Y-41336D01*
X51456Y-41336D01*
X51456Y-41328D01*
X51358Y-41328D01*
X51358Y-40841D01*
X51752Y-40841D01*
X51752Y-41328D01*
X51752Y-41328D01*
G37*
G54D33*
X51752Y-41328D02*
X51653Y-41328D01*
X51653Y-41336D01*
X51456Y-41336D01*
X51456Y-41328D01*
X51358Y-41328D01*
X51358Y-40841D01*
X51752Y-40841D01*
X51752Y-41328D01*
G54D10*
G36*
X51771Y-26088D02*
X51377Y-26088D01*
X51377Y-25600D01*
X51476Y-25600D01*
X51476Y-25592D01*
X51673Y-25592D01*
X51673Y-25600D01*
X51771Y-25600D01*
X51771Y-26088D01*
X51771Y-26088D01*
G37*
G54D33*
X51771Y-26088D02*
X51377Y-26088D01*
X51377Y-25600D01*
X51476Y-25600D01*
X51476Y-25592D01*
X51673Y-25592D01*
X51673Y-25600D01*
X51771Y-25600D01*
X51771Y-26088D01*
G54D10*
G36*
X51771Y-27942D02*
X51673Y-27942D01*
X51673Y-27950D01*
X51476Y-27950D01*
X51476Y-27942D01*
X51377Y-27942D01*
X51377Y-27455D01*
X51771Y-27455D01*
X51771Y-27942D01*
X51771Y-27942D01*
G37*
G54D33*
X51771Y-27942D02*
X51673Y-27942D01*
X51673Y-27950D01*
X51476Y-27950D01*
X51476Y-27942D01*
X51377Y-27942D01*
X51377Y-27455D01*
X51771Y-27455D01*
X51771Y-27942D01*
G54D10*
G36*
X52302Y-23788D02*
X52235Y-23855D01*
X52229Y-23840D01*
X52065Y-23826D01*
X51870Y-24020D01*
X51870Y-23631D01*
X51856Y-23467D01*
X51542Y-23381D01*
X51219Y-23422D01*
X51112Y-23467D01*
X51097Y-23631D01*
X51484Y-24018D01*
X51870Y-23631D01*
X51870Y-24020D01*
X51678Y-24212D01*
X51760Y-24294D01*
X51566Y-24488D01*
X51484Y-24407D01*
X51097Y-24793D01*
X51105Y-24879D01*
X51071Y-24893D01*
X50918Y-25045D01*
X50894Y-25103D01*
X50832Y-25103D01*
X50832Y-24727D01*
X50900Y-24699D01*
X50971Y-24629D01*
X51009Y-24537D01*
X51009Y-24493D01*
X51289Y-24212D01*
X51009Y-23932D01*
X51009Y-23888D01*
X50971Y-23796D01*
X50901Y-23725D01*
X50809Y-23687D01*
X50709Y-23687D01*
X50319Y-23687D01*
X50319Y-22884D01*
X51850Y-22884D01*
X52302Y-23336D01*
X52302Y-23788D01*
X52302Y-23788D01*
G37*
G54D33*
X52302Y-23788D02*
X52235Y-23855D01*
X52229Y-23840D01*
X52065Y-23826D01*
X51870Y-24020D01*
X51870Y-23631D01*
X51856Y-23467D01*
X51542Y-23381D01*
X51219Y-23422D01*
X51112Y-23467D01*
X51097Y-23631D01*
X51484Y-24018D01*
X51870Y-23631D01*
X51870Y-24020D01*
X51678Y-24212D01*
X51760Y-24294D01*
X51566Y-24488D01*
X51484Y-24407D01*
X51097Y-24793D01*
X51105Y-24879D01*
X51071Y-24893D01*
X50918Y-25045D01*
X50894Y-25103D01*
X50832Y-25103D01*
X50832Y-24727D01*
X50900Y-24699D01*
X50971Y-24629D01*
X51009Y-24537D01*
X51009Y-24493D01*
X51289Y-24212D01*
X51009Y-23932D01*
X51009Y-23888D01*
X50971Y-23796D01*
X50901Y-23725D01*
X50809Y-23687D01*
X50709Y-23687D01*
X50319Y-23687D01*
X50319Y-22884D01*
X51850Y-22884D01*
X52302Y-23336D01*
X52302Y-23788D01*
G54D10*
G36*
X52829Y-43287D02*
X52825Y-43312D01*
X52825Y-44044D01*
X50496Y-44044D01*
X50496Y-43916D01*
X50646Y-43916D01*
X50738Y-43878D01*
X50808Y-43808D01*
X50846Y-43716D01*
X50846Y-43617D01*
X50846Y-43318D01*
X50972Y-43443D01*
X50972Y-43552D01*
X51039Y-43716D01*
X51164Y-43841D01*
X51328Y-43909D01*
X51505Y-43909D01*
X51668Y-43841D01*
X51794Y-43716D01*
X51862Y-43553D01*
X51862Y-43512D01*
X51910Y-43506D01*
X52017Y-43462D01*
X52032Y-43297D01*
X51645Y-42910D01*
X51563Y-42992D01*
X51369Y-42798D01*
X51451Y-42716D01*
X51369Y-42634D01*
X51563Y-42440D01*
X51645Y-42522D01*
X52032Y-42135D01*
X52024Y-42050D01*
X52058Y-42035D01*
X52211Y-41883D01*
X52235Y-41826D01*
X52297Y-41826D01*
X52297Y-42201D01*
X52229Y-42229D01*
X52158Y-42299D01*
X52120Y-42391D01*
X52120Y-42435D01*
X51840Y-42716D01*
X52120Y-42997D01*
X52120Y-43041D01*
X52158Y-43132D01*
X52228Y-43203D01*
X52320Y-43241D01*
X52420Y-43241D01*
X52829Y-43241D01*
X52829Y-43287D01*
X52829Y-43287D01*
G37*
G54D33*
X52829Y-43287D02*
X52825Y-43312D01*
X52825Y-44044D01*
X50496Y-44044D01*
X50496Y-43916D01*
X50646Y-43916D01*
X50738Y-43878D01*
X50808Y-43808D01*
X50846Y-43716D01*
X50846Y-43617D01*
X50846Y-43318D01*
X50972Y-43443D01*
X50972Y-43552D01*
X51039Y-43716D01*
X51164Y-43841D01*
X51328Y-43909D01*
X51505Y-43909D01*
X51668Y-43841D01*
X51794Y-43716D01*
X51862Y-43553D01*
X51862Y-43512D01*
X51910Y-43506D01*
X52017Y-43462D01*
X52032Y-43297D01*
X51645Y-42910D01*
X51563Y-42992D01*
X51369Y-42798D01*
X51451Y-42716D01*
X51369Y-42634D01*
X51563Y-42440D01*
X51645Y-42522D01*
X52032Y-42135D01*
X52024Y-42050D01*
X52058Y-42035D01*
X52211Y-41883D01*
X52235Y-41826D01*
X52297Y-41826D01*
X52297Y-42201D01*
X52229Y-42229D01*
X52158Y-42299D01*
X52120Y-42391D01*
X52120Y-42435D01*
X51840Y-42716D01*
X52120Y-42997D01*
X52120Y-43041D01*
X52158Y-43132D01*
X52228Y-43203D01*
X52320Y-43241D01*
X52420Y-43241D01*
X52829Y-43241D01*
X52829Y-43287D01*
G54D10*
G36*
X53814Y-40342D02*
X53809Y-40340D01*
X53710Y-40340D01*
X52844Y-40340D01*
X52752Y-40378D01*
X52681Y-40448D01*
X52643Y-40540D01*
X52643Y-40639D01*
X52643Y-41088D01*
X52534Y-40978D01*
X52534Y-40541D01*
X52496Y-40449D01*
X52484Y-40437D01*
X52490Y-40423D01*
X52490Y-40371D01*
X52392Y-40273D01*
X52392Y-40198D01*
X52179Y-40198D01*
X52162Y-40157D01*
X52179Y-40116D01*
X52392Y-40116D01*
X52392Y-40041D01*
X52490Y-39943D01*
X52490Y-39891D01*
X52484Y-39877D01*
X52495Y-39865D01*
X52534Y-39773D01*
X52534Y-39709D01*
X52643Y-39709D01*
X52643Y-39773D01*
X52681Y-39865D01*
X52751Y-39936D01*
X52843Y-39974D01*
X52943Y-39974D01*
X53809Y-39974D01*
X53814Y-39972D01*
X53814Y-40342D01*
X53814Y-40342D01*
G37*
G54D33*
X53814Y-40342D02*
X53809Y-40340D01*
X53710Y-40340D01*
X52844Y-40340D01*
X52752Y-40378D01*
X52681Y-40448D01*
X52643Y-40540D01*
X52643Y-40639D01*
X52643Y-41088D01*
X52534Y-40978D01*
X52534Y-40541D01*
X52496Y-40449D01*
X52484Y-40437D01*
X52490Y-40423D01*
X52490Y-40371D01*
X52392Y-40273D01*
X52392Y-40198D01*
X52179Y-40198D01*
X52162Y-40157D01*
X52179Y-40116D01*
X52392Y-40116D01*
X52392Y-40041D01*
X52490Y-39943D01*
X52490Y-39891D01*
X52484Y-39877D01*
X52495Y-39865D01*
X52534Y-39773D01*
X52534Y-39709D01*
X52643Y-39709D01*
X52643Y-39773D01*
X52681Y-39865D01*
X52751Y-39936D01*
X52843Y-39974D01*
X52943Y-39974D01*
X53809Y-39974D01*
X53814Y-39972D01*
X53814Y-40342D01*
G54D10*
G36*
X55295Y-39473D02*
X54901Y-39473D01*
X54901Y-38986D01*
X54999Y-38986D01*
X54999Y-38978D01*
X55196Y-38978D01*
X55196Y-38986D01*
X55295Y-38986D01*
X55295Y-39473D01*
X55295Y-39473D01*
G37*
G54D33*
X55295Y-39473D02*
X54901Y-39473D01*
X54901Y-38986D01*
X54999Y-38986D01*
X54999Y-38978D01*
X55196Y-38978D01*
X55196Y-38986D01*
X55295Y-38986D01*
X55295Y-39473D01*
G54D10*
G36*
X55295Y-41328D02*
X55196Y-41328D01*
X55196Y-41336D01*
X54999Y-41336D01*
X54999Y-41328D01*
X54901Y-41328D01*
X54901Y-40841D01*
X55295Y-40841D01*
X55295Y-41328D01*
X55295Y-41328D01*
G37*
G54D33*
X55295Y-41328D02*
X55196Y-41328D01*
X55196Y-41336D01*
X54999Y-41336D01*
X54999Y-41328D01*
X54901Y-41328D01*
X54901Y-40841D01*
X55295Y-40841D01*
X55295Y-41328D01*
G54D10*
G36*
X55315Y-26088D02*
X54921Y-26088D01*
X54921Y-25600D01*
X55019Y-25600D01*
X55019Y-25592D01*
X55216Y-25592D01*
X55216Y-25600D01*
X55315Y-25600D01*
X55315Y-26088D01*
X55315Y-26088D01*
G37*
G54D33*
X55315Y-26088D02*
X54921Y-26088D01*
X54921Y-25600D01*
X55019Y-25600D01*
X55019Y-25592D01*
X55216Y-25592D01*
X55216Y-25600D01*
X55315Y-25600D01*
X55315Y-26088D01*
G54D10*
G36*
X55315Y-27942D02*
X55216Y-27942D01*
X55216Y-27950D01*
X55019Y-27950D01*
X55019Y-27942D01*
X54921Y-27942D01*
X54921Y-27455D01*
X55315Y-27455D01*
X55315Y-27942D01*
X55315Y-27942D01*
G37*
G54D33*
X55315Y-27942D02*
X55216Y-27942D01*
X55216Y-27950D01*
X55019Y-27950D01*
X55019Y-27942D01*
X54921Y-27942D01*
X54921Y-27455D01*
X55315Y-27455D01*
X55315Y-27942D01*
G54D10*
G36*
X55846Y-23788D02*
X55779Y-23855D01*
X55773Y-23840D01*
X55608Y-23826D01*
X55413Y-24020D01*
X55413Y-23631D01*
X55399Y-23467D01*
X55085Y-23381D01*
X54763Y-23422D01*
X54655Y-23467D01*
X54641Y-23631D01*
X55027Y-24018D01*
X55413Y-23631D01*
X55413Y-24020D01*
X55222Y-24212D01*
X55303Y-24294D01*
X55109Y-24488D01*
X55027Y-24407D01*
X54641Y-24793D01*
X54648Y-24879D01*
X54614Y-24893D01*
X54461Y-25045D01*
X54437Y-25103D01*
X54375Y-25103D01*
X54375Y-24727D01*
X54443Y-24699D01*
X54514Y-24629D01*
X54552Y-24537D01*
X54552Y-24493D01*
X54833Y-24212D01*
X54552Y-23932D01*
X54552Y-23888D01*
X54514Y-23796D01*
X54444Y-23725D01*
X54352Y-23687D01*
X54253Y-23687D01*
X53843Y-23687D01*
X53843Y-23116D01*
X53937Y-23134D01*
X55643Y-23134D01*
X55846Y-23336D01*
X55846Y-23788D01*
X55846Y-23788D01*
G37*
G54D33*
X55846Y-23788D02*
X55779Y-23855D01*
X55773Y-23840D01*
X55608Y-23826D01*
X55413Y-24020D01*
X55413Y-23631D01*
X55399Y-23467D01*
X55085Y-23381D01*
X54763Y-23422D01*
X54655Y-23467D01*
X54641Y-23631D01*
X55027Y-24018D01*
X55413Y-23631D01*
X55413Y-24020D01*
X55222Y-24212D01*
X55303Y-24294D01*
X55109Y-24488D01*
X55027Y-24407D01*
X54641Y-24793D01*
X54648Y-24879D01*
X54614Y-24893D01*
X54461Y-25045D01*
X54437Y-25103D01*
X54375Y-25103D01*
X54375Y-24727D01*
X54443Y-24699D01*
X54514Y-24629D01*
X54552Y-24537D01*
X54552Y-24493D01*
X54833Y-24212D01*
X54552Y-23932D01*
X54552Y-23888D01*
X54514Y-23796D01*
X54444Y-23725D01*
X54352Y-23687D01*
X54253Y-23687D01*
X53843Y-23687D01*
X53843Y-23116D01*
X53937Y-23134D01*
X55643Y-23134D01*
X55846Y-23336D01*
X55846Y-23788D01*
G54D10*
G36*
X56373Y-43753D02*
X56096Y-44030D01*
X55811Y-44030D01*
X55888Y-43953D01*
X55956Y-43789D01*
X55956Y-43612D01*
X55889Y-43449D01*
X55764Y-43323D01*
X55600Y-43255D01*
X55533Y-43255D01*
X55188Y-42910D01*
X55167Y-42932D01*
X54973Y-42737D01*
X54994Y-42716D01*
X54912Y-42634D01*
X55107Y-42440D01*
X55188Y-42522D01*
X55575Y-42135D01*
X55567Y-42050D01*
X55602Y-42035D01*
X55754Y-41883D01*
X55778Y-41826D01*
X55842Y-41826D01*
X55842Y-42200D01*
X55772Y-42229D01*
X55702Y-42299D01*
X55664Y-42391D01*
X55663Y-42435D01*
X55383Y-42716D01*
X55663Y-42997D01*
X55663Y-43041D01*
X55701Y-43132D01*
X55772Y-43203D01*
X55864Y-43241D01*
X55963Y-43241D01*
X56373Y-43241D01*
X56373Y-43582D01*
X56373Y-43753D01*
X56373Y-43753D01*
G37*
G54D33*
X56373Y-43753D02*
X56096Y-44030D01*
X55811Y-44030D01*
X55888Y-43953D01*
X55956Y-43789D01*
X55956Y-43612D01*
X55889Y-43449D01*
X55764Y-43323D01*
X55600Y-43255D01*
X55533Y-43255D01*
X55188Y-42910D01*
X55167Y-42932D01*
X54973Y-42737D01*
X54994Y-42716D01*
X54912Y-42634D01*
X55107Y-42440D01*
X55188Y-42522D01*
X55575Y-42135D01*
X55567Y-42050D01*
X55602Y-42035D01*
X55754Y-41883D01*
X55778Y-41826D01*
X55842Y-41826D01*
X55842Y-42200D01*
X55772Y-42229D01*
X55702Y-42299D01*
X55664Y-42391D01*
X55663Y-42435D01*
X55383Y-42716D01*
X55663Y-42997D01*
X55663Y-43041D01*
X55701Y-43132D01*
X55772Y-43203D01*
X55864Y-43241D01*
X55963Y-43241D01*
X56373Y-43241D01*
X56373Y-43582D01*
X56373Y-43753D01*
G54D10*
G36*
X57318Y-40340D02*
X57253Y-40340D01*
X56387Y-40340D01*
X56295Y-40378D01*
X56225Y-40448D01*
X56187Y-40540D01*
X56187Y-40639D01*
X56187Y-40997D01*
X56141Y-41042D01*
X56077Y-40978D01*
X56077Y-40541D01*
X56039Y-40449D01*
X56027Y-40437D01*
X56033Y-40423D01*
X56034Y-40371D01*
X55936Y-40273D01*
X55936Y-40198D01*
X55722Y-40198D01*
X55705Y-40157D01*
X55722Y-40116D01*
X55936Y-40116D01*
X55936Y-40041D01*
X56034Y-39943D01*
X56033Y-39891D01*
X56027Y-39877D01*
X56039Y-39865D01*
X56077Y-39773D01*
X56077Y-39709D01*
X56187Y-39709D01*
X56187Y-39773D01*
X56225Y-39865D01*
X56295Y-39936D01*
X56387Y-39974D01*
X56486Y-39974D01*
X57318Y-39974D01*
X57318Y-40340D01*
X57318Y-40340D01*
G37*
G54D33*
X57318Y-40340D02*
X57253Y-40340D01*
X56387Y-40340D01*
X56295Y-40378D01*
X56225Y-40448D01*
X56187Y-40540D01*
X56187Y-40639D01*
X56187Y-40997D01*
X56141Y-41042D01*
X56077Y-40978D01*
X56077Y-40541D01*
X56039Y-40449D01*
X56027Y-40437D01*
X56033Y-40423D01*
X56034Y-40371D01*
X55936Y-40273D01*
X55936Y-40198D01*
X55722Y-40198D01*
X55705Y-40157D01*
X55722Y-40116D01*
X55936Y-40116D01*
X55936Y-40041D01*
X56034Y-39943D01*
X56033Y-39891D01*
X56027Y-39877D01*
X56039Y-39865D01*
X56077Y-39773D01*
X56077Y-39709D01*
X56187Y-39709D01*
X56187Y-39773D01*
X56225Y-39865D01*
X56295Y-39936D01*
X56387Y-39974D01*
X56486Y-39974D01*
X57318Y-39974D01*
X57318Y-40340D01*
G54D10*
G36*
X57826Y-31912D02*
X57333Y-31912D01*
X57282Y-31878D01*
X57181Y-31858D01*
X57211Y-31858D01*
X57274Y-31796D01*
X57710Y-31796D01*
X57826Y-31912D01*
X57826Y-31912D01*
G37*
G54D33*
X57826Y-31912D02*
X57333Y-31912D01*
X57282Y-31878D01*
X57181Y-31858D01*
X57211Y-31858D01*
X57274Y-31796D01*
X57710Y-31796D01*
X57826Y-31912D01*
G54D10*
G36*
X58838Y-39473D02*
X58444Y-39473D01*
X58444Y-38986D01*
X58543Y-38986D01*
X58543Y-38978D01*
X58740Y-38978D01*
X58740Y-38986D01*
X58838Y-38986D01*
X58838Y-39473D01*
X58838Y-39473D01*
G37*
G54D33*
X58838Y-39473D02*
X58444Y-39473D01*
X58444Y-38986D01*
X58543Y-38986D01*
X58543Y-38978D01*
X58740Y-38978D01*
X58740Y-38986D01*
X58838Y-38986D01*
X58838Y-39473D01*
G54D10*
G36*
X58838Y-41328D02*
X58740Y-41328D01*
X58740Y-41336D01*
X58543Y-41336D01*
X58543Y-41328D01*
X58444Y-41328D01*
X58444Y-40841D01*
X58838Y-40841D01*
X58838Y-41328D01*
X58838Y-41328D01*
G37*
G54D33*
X58838Y-41328D02*
X58740Y-41328D01*
X58740Y-41336D01*
X58543Y-41336D01*
X58543Y-41328D01*
X58444Y-41328D01*
X58444Y-40841D01*
X58838Y-40841D01*
X58838Y-41328D01*
G54D10*
G36*
X58858Y-26088D02*
X58464Y-26088D01*
X58464Y-25600D01*
X58562Y-25600D01*
X58562Y-25592D01*
X58759Y-25592D01*
X58759Y-25600D01*
X58858Y-25600D01*
X58858Y-26088D01*
X58858Y-26088D01*
G37*
G54D33*
X58858Y-26088D02*
X58464Y-26088D01*
X58464Y-25600D01*
X58562Y-25600D01*
X58562Y-25592D01*
X58759Y-25592D01*
X58759Y-25600D01*
X58858Y-25600D01*
X58858Y-26088D01*
G54D10*
G36*
X58858Y-27942D02*
X58759Y-27942D01*
X58759Y-27950D01*
X58562Y-27950D01*
X58562Y-27942D01*
X58464Y-27942D01*
X58464Y-27455D01*
X58858Y-27455D01*
X58858Y-27942D01*
X58858Y-27942D01*
G37*
G54D33*
X58858Y-27942D02*
X58759Y-27942D01*
X58759Y-27950D01*
X58562Y-27950D01*
X58562Y-27942D01*
X58464Y-27942D01*
X58464Y-27455D01*
X58858Y-27455D01*
X58858Y-27942D01*
G54D10*
G36*
X59389Y-23788D02*
X59322Y-23855D01*
X59316Y-23840D01*
X59151Y-23826D01*
X58957Y-24020D01*
X58957Y-23631D01*
X58942Y-23467D01*
X58628Y-23381D01*
X58306Y-23422D01*
X58199Y-23467D01*
X58184Y-23631D01*
X58570Y-24018D01*
X58957Y-23631D01*
X58957Y-24020D01*
X58765Y-24212D01*
X58847Y-24294D01*
X58652Y-24488D01*
X58570Y-24407D01*
X58184Y-24793D01*
X58192Y-24879D01*
X58157Y-24893D01*
X58005Y-25045D01*
X57981Y-25103D01*
X57919Y-25103D01*
X57919Y-24727D01*
X57987Y-24699D01*
X58057Y-24629D01*
X58095Y-24537D01*
X58095Y-24493D01*
X58376Y-24212D01*
X58095Y-23932D01*
X58095Y-23888D01*
X58057Y-23796D01*
X57987Y-23725D01*
X57895Y-23687D01*
X57796Y-23687D01*
X57386Y-23687D01*
X57386Y-22834D01*
X57363Y-22719D01*
X57298Y-22622D01*
X57220Y-22544D01*
X58596Y-22544D01*
X59389Y-23336D01*
X59389Y-23788D01*
X59389Y-23788D01*
G37*
G54D33*
X59389Y-23788D02*
X59322Y-23855D01*
X59316Y-23840D01*
X59151Y-23826D01*
X58957Y-24020D01*
X58957Y-23631D01*
X58942Y-23467D01*
X58628Y-23381D01*
X58306Y-23422D01*
X58199Y-23467D01*
X58184Y-23631D01*
X58570Y-24018D01*
X58957Y-23631D01*
X58957Y-24020D01*
X58765Y-24212D01*
X58847Y-24294D01*
X58652Y-24488D01*
X58570Y-24407D01*
X58184Y-24793D01*
X58192Y-24879D01*
X58157Y-24893D01*
X58005Y-25045D01*
X57981Y-25103D01*
X57919Y-25103D01*
X57919Y-24727D01*
X57987Y-24699D01*
X58057Y-24629D01*
X58095Y-24537D01*
X58095Y-24493D01*
X58376Y-24212D01*
X58095Y-23932D01*
X58095Y-23888D01*
X58057Y-23796D01*
X57987Y-23725D01*
X57895Y-23687D01*
X57796Y-23687D01*
X57386Y-23687D01*
X57386Y-22834D01*
X57363Y-22719D01*
X57298Y-22622D01*
X57220Y-22544D01*
X58596Y-22544D01*
X59389Y-23336D01*
X59389Y-23788D01*
G54D10*
G36*
X60782Y-40340D02*
X59930Y-40340D01*
X59838Y-40378D01*
X59768Y-40448D01*
X59730Y-40540D01*
X59730Y-40639D01*
X59730Y-41076D01*
X59724Y-41082D01*
X59620Y-40978D01*
X59620Y-40541D01*
X59582Y-40449D01*
X59571Y-40437D01*
X59577Y-40423D01*
X59577Y-40371D01*
X59479Y-40273D01*
X59479Y-40198D01*
X59265Y-40198D01*
X59248Y-40157D01*
X59265Y-40116D01*
X59479Y-40116D01*
X59479Y-40041D01*
X59577Y-39943D01*
X59577Y-39891D01*
X59571Y-39877D01*
X59582Y-39865D01*
X59620Y-39773D01*
X59620Y-39709D01*
X59730Y-39709D01*
X59730Y-39773D01*
X59768Y-39865D01*
X59838Y-39936D01*
X59930Y-39974D01*
X60029Y-39974D01*
X60782Y-39974D01*
X60782Y-40340D01*
X60782Y-40340D01*
G37*
G54D33*
X60782Y-40340D02*
X59930Y-40340D01*
X59838Y-40378D01*
X59768Y-40448D01*
X59730Y-40540D01*
X59730Y-40639D01*
X59730Y-41076D01*
X59724Y-41082D01*
X59620Y-40978D01*
X59620Y-40541D01*
X59582Y-40449D01*
X59571Y-40437D01*
X59577Y-40423D01*
X59577Y-40371D01*
X59479Y-40273D01*
X59479Y-40198D01*
X59265Y-40198D01*
X59248Y-40157D01*
X59265Y-40116D01*
X59479Y-40116D01*
X59479Y-40041D01*
X59577Y-39943D01*
X59577Y-39891D01*
X59571Y-39877D01*
X59582Y-39865D01*
X59620Y-39773D01*
X59620Y-39709D01*
X59730Y-39709D01*
X59730Y-39773D01*
X59768Y-39865D01*
X59838Y-39936D01*
X59930Y-39974D01*
X60029Y-39974D01*
X60782Y-39974D01*
X60782Y-40340D01*
G54D10*
G36*
X61170Y-48768D02*
X57136Y-48768D01*
X57136Y-45019D01*
X57495Y-44660D01*
X57495Y-44660D01*
X57560Y-44563D01*
X57583Y-44448D01*
X57583Y-44448D01*
X57583Y-44409D01*
X57583Y-43916D01*
X57732Y-43916D01*
X57824Y-43878D01*
X57895Y-43808D01*
X57933Y-43716D01*
X57933Y-43712D01*
X58134Y-43912D01*
X58134Y-43912D01*
X58231Y-43977D01*
X58346Y-44000D01*
X58489Y-44000D01*
X58566Y-44077D01*
X58730Y-44145D01*
X58907Y-44145D01*
X59070Y-44078D01*
X59195Y-43953D01*
X59263Y-43789D01*
X59263Y-43612D01*
X59196Y-43449D01*
X59112Y-43365D01*
X59118Y-43297D01*
X58732Y-42910D01*
X58650Y-42992D01*
X58456Y-42798D01*
X58537Y-42716D01*
X58456Y-42634D01*
X58650Y-42440D01*
X58732Y-42522D01*
X59118Y-42135D01*
X59111Y-42050D01*
X59145Y-42035D01*
X59298Y-41883D01*
X59321Y-41826D01*
X59383Y-41826D01*
X59383Y-42201D01*
X59315Y-42229D01*
X59245Y-42299D01*
X59207Y-42391D01*
X59207Y-42435D01*
X58926Y-42716D01*
X59207Y-42997D01*
X59207Y-43041D01*
X59245Y-43132D01*
X59315Y-43203D01*
X59407Y-43241D01*
X59506Y-43241D01*
X59916Y-43241D01*
X59916Y-43671D01*
X59916Y-43917D01*
X59939Y-44032D01*
X60004Y-44129D01*
X60102Y-44227D01*
X60102Y-44227D01*
X60200Y-44292D01*
X60314Y-44315D01*
X60820Y-44315D01*
X61170Y-44665D01*
X61170Y-48768D01*
X61170Y-48768D01*
G37*
G54D33*
X61170Y-48768D02*
X57136Y-48768D01*
X57136Y-45019D01*
X57495Y-44660D01*
X57495Y-44660D01*
X57560Y-44563D01*
X57583Y-44448D01*
X57583Y-44448D01*
X57583Y-44409D01*
X57583Y-43916D01*
X57732Y-43916D01*
X57824Y-43878D01*
X57895Y-43808D01*
X57933Y-43716D01*
X57933Y-43712D01*
X58134Y-43912D01*
X58134Y-43912D01*
X58231Y-43977D01*
X58346Y-44000D01*
X58489Y-44000D01*
X58566Y-44077D01*
X58730Y-44145D01*
X58907Y-44145D01*
X59070Y-44078D01*
X59195Y-43953D01*
X59263Y-43789D01*
X59263Y-43612D01*
X59196Y-43449D01*
X59112Y-43365D01*
X59118Y-43297D01*
X58732Y-42910D01*
X58650Y-42992D01*
X58456Y-42798D01*
X58537Y-42716D01*
X58456Y-42634D01*
X58650Y-42440D01*
X58732Y-42522D01*
X59118Y-42135D01*
X59111Y-42050D01*
X59145Y-42035D01*
X59298Y-41883D01*
X59321Y-41826D01*
X59383Y-41826D01*
X59383Y-42201D01*
X59315Y-42229D01*
X59245Y-42299D01*
X59207Y-42391D01*
X59207Y-42435D01*
X58926Y-42716D01*
X59207Y-42997D01*
X59207Y-43041D01*
X59245Y-43132D01*
X59315Y-43203D01*
X59407Y-43241D01*
X59506Y-43241D01*
X59916Y-43241D01*
X59916Y-43671D01*
X59916Y-43917D01*
X59939Y-44032D01*
X60004Y-44129D01*
X60102Y-44227D01*
X60102Y-44227D01*
X60200Y-44292D01*
X60314Y-44315D01*
X60820Y-44315D01*
X61170Y-44665D01*
X61170Y-48768D01*
G54D10*
G36*
X62382Y-39473D02*
X61988Y-39473D01*
X61988Y-38986D01*
X62086Y-38986D01*
X62086Y-38978D01*
X62283Y-38978D01*
X62283Y-38986D01*
X62382Y-38986D01*
X62382Y-39473D01*
X62382Y-39473D01*
G37*
G54D33*
X62382Y-39473D02*
X61988Y-39473D01*
X61988Y-38986D01*
X62086Y-38986D01*
X62086Y-38978D01*
X62283Y-38978D01*
X62283Y-38986D01*
X62382Y-38986D01*
X62382Y-39473D01*
G54D10*
G36*
X62382Y-41328D02*
X62283Y-41328D01*
X62283Y-41336D01*
X62086Y-41336D01*
X62086Y-41328D01*
X61988Y-41328D01*
X61988Y-40841D01*
X62382Y-40841D01*
X62382Y-41328D01*
X62382Y-41328D01*
G37*
G54D33*
X62382Y-41328D02*
X62283Y-41328D01*
X62283Y-41336D01*
X62086Y-41336D01*
X62086Y-41328D01*
X61988Y-41328D01*
X61988Y-40841D01*
X62382Y-40841D01*
X62382Y-41328D01*
G54D10*
G36*
X62401Y-26088D02*
X62007Y-26088D01*
X62007Y-25600D01*
X62106Y-25600D01*
X62106Y-25592D01*
X62303Y-25592D01*
X62303Y-25600D01*
X62401Y-25600D01*
X62401Y-26088D01*
X62401Y-26088D01*
G37*
G54D33*
X62401Y-26088D02*
X62007Y-26088D01*
X62007Y-25600D01*
X62106Y-25600D01*
X62106Y-25592D01*
X62303Y-25592D01*
X62303Y-25600D01*
X62401Y-25600D01*
X62401Y-26088D01*
G54D10*
G36*
X62401Y-27942D02*
X62303Y-27942D01*
X62303Y-27950D01*
X62106Y-27950D01*
X62106Y-27942D01*
X62007Y-27942D01*
X62007Y-27455D01*
X62401Y-27455D01*
X62401Y-27942D01*
X62401Y-27942D01*
G37*
G54D33*
X62401Y-27942D02*
X62303Y-27942D01*
X62303Y-27950D01*
X62106Y-27950D01*
X62106Y-27942D01*
X62007Y-27942D01*
X62007Y-27455D01*
X62401Y-27455D01*
X62401Y-27942D01*
G54D10*
G36*
X62927Y-42201D02*
X62859Y-42229D01*
X62788Y-42299D01*
X62750Y-42391D01*
X62750Y-42435D01*
X62470Y-42716D01*
X62551Y-42798D01*
X62357Y-42992D01*
X62275Y-42910D01*
X62193Y-42992D01*
X61999Y-42798D01*
X62081Y-42716D01*
X61999Y-42634D01*
X62193Y-42440D01*
X62275Y-42522D01*
X62661Y-42135D01*
X62654Y-42050D01*
X62688Y-42035D01*
X62841Y-41883D01*
X62865Y-41826D01*
X62927Y-41826D01*
X62927Y-42201D01*
X62927Y-42201D01*
G37*
G54D33*
X62927Y-42201D02*
X62859Y-42229D01*
X62788Y-42299D01*
X62750Y-42391D01*
X62750Y-42435D01*
X62470Y-42716D01*
X62551Y-42798D01*
X62357Y-42992D01*
X62275Y-42910D01*
X62193Y-42992D01*
X61999Y-42798D01*
X62081Y-42716D01*
X61999Y-42634D01*
X62193Y-42440D01*
X62275Y-42522D01*
X62661Y-42135D01*
X62654Y-42050D01*
X62688Y-42035D01*
X62841Y-41883D01*
X62865Y-41826D01*
X62927Y-41826D01*
X62927Y-42201D01*
G54D10*
G36*
X62932Y-23728D02*
X62712Y-23508D01*
X62708Y-23504D01*
X62610Y-23439D01*
X62496Y-23416D01*
X62300Y-23416D01*
X62172Y-23381D01*
X61896Y-23416D01*
X61610Y-23416D01*
X61495Y-23439D01*
X61398Y-23504D01*
X61214Y-23687D01*
X60929Y-23687D01*
X60929Y-23031D01*
X60929Y-23031D01*
X60907Y-22916D01*
X60842Y-22819D01*
X60842Y-22819D01*
X58873Y-20850D01*
X58775Y-20785D01*
X58661Y-20762D01*
X56742Y-20762D01*
X56742Y-18160D01*
X60973Y-18160D01*
X60973Y-22884D01*
X62480Y-22884D01*
X62932Y-23336D01*
X62932Y-23728D01*
X62932Y-23728D01*
G37*
G54D33*
X62932Y-23728D02*
X62712Y-23508D01*
X62708Y-23504D01*
X62610Y-23439D01*
X62496Y-23416D01*
X62300Y-23416D01*
X62172Y-23381D01*
X61896Y-23416D01*
X61610Y-23416D01*
X61495Y-23439D01*
X61398Y-23504D01*
X61214Y-23687D01*
X60929Y-23687D01*
X60929Y-23031D01*
X60929Y-23031D01*
X60907Y-22916D01*
X60842Y-22819D01*
X60842Y-22819D01*
X58873Y-20850D01*
X58775Y-20785D01*
X58661Y-20762D01*
X56742Y-20762D01*
X56742Y-18160D01*
X60973Y-18160D01*
X60973Y-22884D01*
X62480Y-22884D01*
X62932Y-23336D01*
X62932Y-23728D01*
G54D10*
G36*
X62932Y-24577D02*
X62932Y-24612D01*
X62932Y-25103D01*
X62884Y-25103D01*
X62861Y-25045D01*
X62708Y-24893D01*
X62509Y-24810D01*
X62498Y-24810D01*
X62500Y-24793D01*
X62114Y-24407D01*
X61727Y-24793D01*
X61735Y-24879D01*
X61701Y-24893D01*
X61548Y-25045D01*
X61524Y-25103D01*
X61462Y-25103D01*
X61462Y-24727D01*
X61530Y-24699D01*
X61600Y-24629D01*
X61639Y-24537D01*
X61639Y-24493D01*
X61919Y-24212D01*
X61837Y-24130D01*
X61952Y-24016D01*
X62112Y-24016D01*
X62114Y-24018D01*
X62115Y-24016D01*
X62276Y-24016D01*
X62390Y-24130D01*
X62308Y-24212D01*
X62695Y-24598D01*
X62859Y-24584D01*
X62876Y-24521D01*
X62932Y-24577D01*
X62932Y-24577D01*
G37*
G54D33*
X62932Y-24577D02*
X62932Y-24612D01*
X62932Y-25103D01*
X62884Y-25103D01*
X62861Y-25045D01*
X62708Y-24893D01*
X62509Y-24810D01*
X62498Y-24810D01*
X62500Y-24793D01*
X62114Y-24407D01*
X61727Y-24793D01*
X61735Y-24879D01*
X61701Y-24893D01*
X61548Y-25045D01*
X61524Y-25103D01*
X61462Y-25103D01*
X61462Y-24727D01*
X61530Y-24699D01*
X61600Y-24629D01*
X61639Y-24537D01*
X61639Y-24493D01*
X61919Y-24212D01*
X61837Y-24130D01*
X61952Y-24016D01*
X62112Y-24016D01*
X62114Y-24018D01*
X62115Y-24016D01*
X62276Y-24016D01*
X62390Y-24130D01*
X62308Y-24212D01*
X62695Y-24598D01*
X62859Y-24584D01*
X62876Y-24521D01*
X62932Y-24577D01*
G54D10*
G36*
X64325Y-40340D02*
X63474Y-40340D01*
X63382Y-40378D01*
X63311Y-40448D01*
X63273Y-40540D01*
X63273Y-40639D01*
X63273Y-41076D01*
X63267Y-41082D01*
X63164Y-40978D01*
X63164Y-40541D01*
X63126Y-40449D01*
X63114Y-40437D01*
X63120Y-40423D01*
X63120Y-40371D01*
X63022Y-40273D01*
X63022Y-40198D01*
X62809Y-40198D01*
X62792Y-40157D01*
X62809Y-40116D01*
X63022Y-40116D01*
X63022Y-40041D01*
X63120Y-39943D01*
X63120Y-39891D01*
X63114Y-39877D01*
X63125Y-39865D01*
X63163Y-39773D01*
X63164Y-39709D01*
X63273Y-39709D01*
X63273Y-39773D01*
X63311Y-39865D01*
X63381Y-39936D01*
X63473Y-39974D01*
X63573Y-39974D01*
X64325Y-39974D01*
X64325Y-40340D01*
X64325Y-40340D01*
G37*
G54D33*
X64325Y-40340D02*
X63474Y-40340D01*
X63382Y-40378D01*
X63311Y-40448D01*
X63273Y-40540D01*
X63273Y-40639D01*
X63273Y-41076D01*
X63267Y-41082D01*
X63164Y-40978D01*
X63164Y-40541D01*
X63126Y-40449D01*
X63114Y-40437D01*
X63120Y-40423D01*
X63120Y-40371D01*
X63022Y-40273D01*
X63022Y-40198D01*
X62809Y-40198D01*
X62792Y-40157D01*
X62809Y-40116D01*
X63022Y-40116D01*
X63022Y-40041D01*
X63120Y-39943D01*
X63120Y-39891D01*
X63114Y-39877D01*
X63125Y-39865D01*
X63163Y-39773D01*
X63164Y-39709D01*
X63273Y-39709D01*
X63273Y-39773D01*
X63311Y-39865D01*
X63381Y-39936D01*
X63473Y-39974D01*
X63573Y-39974D01*
X64325Y-39974D01*
X64325Y-40340D01*
G54D10*
G36*
X65925Y-39473D02*
X65531Y-39473D01*
X65531Y-38986D01*
X65629Y-38986D01*
X65629Y-38978D01*
X65826Y-38978D01*
X65826Y-38986D01*
X65925Y-38986D01*
X65925Y-39473D01*
X65925Y-39473D01*
G37*
G54D33*
X65925Y-39473D02*
X65531Y-39473D01*
X65531Y-38986D01*
X65629Y-38986D01*
X65629Y-38978D01*
X65826Y-38978D01*
X65826Y-38986D01*
X65925Y-38986D01*
X65925Y-39473D01*
G54D10*
G36*
X65925Y-41328D02*
X65826Y-41328D01*
X65826Y-41336D01*
X65629Y-41336D01*
X65629Y-41328D01*
X65531Y-41328D01*
X65531Y-40841D01*
X65925Y-40841D01*
X65925Y-41328D01*
X65925Y-41328D01*
G37*
G54D33*
X65925Y-41328D02*
X65826Y-41328D01*
X65826Y-41336D01*
X65629Y-41336D01*
X65629Y-41328D01*
X65531Y-41328D01*
X65531Y-40841D01*
X65925Y-40841D01*
X65925Y-41328D01*
G54D10*
G36*
X66472Y-42200D02*
X66402Y-42229D01*
X66332Y-42299D01*
X66293Y-42391D01*
X66293Y-42435D01*
X66013Y-42716D01*
X66095Y-42798D01*
X65900Y-42992D01*
X65818Y-42910D01*
X65737Y-42992D01*
X65542Y-42798D01*
X65624Y-42716D01*
X65542Y-42634D01*
X65737Y-42440D01*
X65818Y-42522D01*
X66205Y-42135D01*
X66197Y-42050D01*
X66232Y-42035D01*
X66384Y-41883D01*
X66408Y-41826D01*
X66472Y-41826D01*
X66472Y-42200D01*
X66472Y-42200D01*
G37*
G54D33*
X66472Y-42200D02*
X66402Y-42229D01*
X66332Y-42299D01*
X66293Y-42391D01*
X66293Y-42435D01*
X66013Y-42716D01*
X66095Y-42798D01*
X65900Y-42992D01*
X65818Y-42910D01*
X65737Y-42992D01*
X65542Y-42798D01*
X65624Y-42716D01*
X65542Y-42634D01*
X65737Y-42440D01*
X65818Y-42522D01*
X66205Y-42135D01*
X66197Y-42050D01*
X66232Y-42035D01*
X66384Y-41883D01*
X66408Y-41826D01*
X66472Y-41826D01*
X66472Y-42200D01*
G54D10*
G36*
X66539Y-32140D02*
X66108Y-32140D01*
X65133Y-31165D01*
X65036Y-31100D01*
X64921Y-31077D01*
X63834Y-31077D01*
X63881Y-31058D01*
X63951Y-30988D01*
X63990Y-30896D01*
X63990Y-30796D01*
X63990Y-29656D01*
X64483Y-29163D01*
X64483Y-29163D01*
X64548Y-29065D01*
X64571Y-28951D01*
X64571Y-28951D01*
X64571Y-26206D01*
X64877Y-25901D01*
X64877Y-25901D01*
X64936Y-25813D01*
X64936Y-29552D01*
X64859Y-29629D01*
X64791Y-29793D01*
X64791Y-29969D01*
X64858Y-30133D01*
X64983Y-30258D01*
X65147Y-30326D01*
X65324Y-30326D01*
X65487Y-30259D01*
X65613Y-30134D01*
X65681Y-29970D01*
X65681Y-29793D01*
X65662Y-29747D01*
X66477Y-30562D01*
X66477Y-30961D01*
X66511Y-31043D01*
X66477Y-31124D01*
X66477Y-31224D01*
X66477Y-32024D01*
X66515Y-32116D01*
X66539Y-32140D01*
X66539Y-32140D01*
G37*
G54D33*
X66539Y-32140D02*
X66108Y-32140D01*
X65133Y-31165D01*
X65036Y-31100D01*
X64921Y-31077D01*
X63834Y-31077D01*
X63881Y-31058D01*
X63951Y-30988D01*
X63990Y-30896D01*
X63990Y-30796D01*
X63990Y-29656D01*
X64483Y-29163D01*
X64483Y-29163D01*
X64548Y-29065D01*
X64571Y-28951D01*
X64571Y-28951D01*
X64571Y-26206D01*
X64877Y-25901D01*
X64877Y-25901D01*
X64936Y-25813D01*
X64936Y-29552D01*
X64859Y-29629D01*
X64791Y-29793D01*
X64791Y-29969D01*
X64858Y-30133D01*
X64983Y-30258D01*
X65147Y-30326D01*
X65324Y-30326D01*
X65487Y-30259D01*
X65613Y-30134D01*
X65681Y-29970D01*
X65681Y-29793D01*
X65662Y-29747D01*
X66477Y-30562D01*
X66477Y-30961D01*
X66511Y-31043D01*
X66477Y-31124D01*
X66477Y-31224D01*
X66477Y-32024D01*
X66515Y-32116D01*
X66539Y-32140D01*
G54D10*
G36*
X67987Y-40342D02*
X67982Y-40340D01*
X67883Y-40340D01*
X67017Y-40340D01*
X66925Y-40378D01*
X66855Y-40448D01*
X66817Y-40540D01*
X66816Y-40639D01*
X66816Y-41076D01*
X66810Y-41082D01*
X66707Y-40978D01*
X66707Y-40541D01*
X66669Y-40449D01*
X66657Y-40437D01*
X66663Y-40423D01*
X66663Y-40371D01*
X66565Y-40273D01*
X66565Y-40198D01*
X66352Y-40198D01*
X66335Y-40157D01*
X66352Y-40116D01*
X66565Y-40116D01*
X66565Y-40041D01*
X66663Y-39943D01*
X66663Y-39891D01*
X66657Y-39877D01*
X66669Y-39865D01*
X66707Y-39773D01*
X66707Y-39709D01*
X66816Y-39709D01*
X66816Y-39773D01*
X66854Y-39865D01*
X66925Y-39936D01*
X67017Y-39974D01*
X67116Y-39974D01*
X67982Y-39974D01*
X67987Y-39972D01*
X67987Y-40342D01*
X67987Y-40342D01*
G37*
G54D33*
X67987Y-40342D02*
X67982Y-40340D01*
X67883Y-40340D01*
X67017Y-40340D01*
X66925Y-40378D01*
X66855Y-40448D01*
X66817Y-40540D01*
X66816Y-40639D01*
X66816Y-41076D01*
X66810Y-41082D01*
X66707Y-40978D01*
X66707Y-40541D01*
X66669Y-40449D01*
X66657Y-40437D01*
X66663Y-40423D01*
X66663Y-40371D01*
X66565Y-40273D01*
X66565Y-40198D01*
X66352Y-40198D01*
X66335Y-40157D01*
X66352Y-40116D01*
X66565Y-40116D01*
X66565Y-40041D01*
X66663Y-39943D01*
X66663Y-39891D01*
X66657Y-39877D01*
X66669Y-39865D01*
X66707Y-39773D01*
X66707Y-39709D01*
X66816Y-39709D01*
X66816Y-39773D01*
X66854Y-39865D01*
X66925Y-39936D01*
X67017Y-39974D01*
X67116Y-39974D01*
X67982Y-39974D01*
X67987Y-39972D01*
X67987Y-40342D01*
G54D10*
G36*
X70619Y-25115D02*
X70553Y-25273D01*
X70553Y-25512D01*
X70586Y-25593D01*
X70149Y-25593D01*
X70034Y-25616D01*
X69937Y-25681D01*
X69925Y-25693D01*
X69925Y-25693D01*
X69295Y-26323D01*
X69230Y-26420D01*
X69207Y-26535D01*
X69207Y-31594D01*
X69207Y-31606D01*
X69230Y-31721D01*
X69295Y-31818D01*
X69782Y-32305D01*
X69766Y-32344D01*
X69766Y-32583D01*
X69812Y-32695D01*
X69812Y-33203D01*
X68947Y-33203D01*
X68858Y-33203D01*
X68743Y-33226D01*
X68646Y-33291D01*
X67819Y-34118D01*
X67754Y-34215D01*
X67733Y-34318D01*
X67700Y-34236D01*
X67575Y-34111D01*
X67545Y-34099D01*
X67814Y-33830D01*
X67922Y-33830D01*
X68086Y-33763D01*
X68211Y-33638D01*
X68279Y-33474D01*
X68279Y-33297D01*
X68212Y-33134D01*
X68086Y-33008D01*
X67923Y-32941D01*
X67746Y-32940D01*
X67582Y-33008D01*
X67457Y-33133D01*
X67389Y-33296D01*
X67389Y-33406D01*
X67276Y-33519D01*
X67295Y-33474D01*
X67295Y-33297D01*
X67227Y-33134D01*
X67102Y-33008D01*
X66939Y-32941D01*
X66762Y-32940D01*
X66598Y-33008D01*
X66473Y-33133D01*
X66405Y-33296D01*
X66405Y-33406D01*
X66194Y-33617D01*
X66129Y-33551D01*
X66153Y-33494D01*
X66153Y-33317D01*
X66086Y-33153D01*
X65960Y-33028D01*
X65797Y-32960D01*
X65632Y-32960D01*
X65574Y-32819D01*
X65449Y-32693D01*
X65285Y-32626D01*
X65108Y-32625D01*
X65058Y-32646D01*
X65058Y-32621D01*
X65020Y-32529D01*
X64950Y-32459D01*
X64858Y-32420D01*
X64758Y-32420D01*
X64158Y-32420D01*
X64066Y-32458D01*
X63996Y-32529D01*
X63958Y-32620D01*
X63958Y-32720D01*
X63958Y-33520D01*
X63996Y-33612D01*
X64066Y-33682D01*
X64098Y-33696D01*
X63617Y-33696D01*
X63649Y-33682D01*
X63720Y-33612D01*
X63758Y-33520D01*
X63758Y-33421D01*
X63758Y-32621D01*
X63720Y-32529D01*
X63650Y-32459D01*
X63558Y-32420D01*
X63458Y-32420D01*
X62858Y-32420D01*
X62783Y-32451D01*
X62798Y-32437D01*
X62866Y-32273D01*
X62866Y-32096D01*
X62798Y-31933D01*
X62711Y-31846D01*
X62880Y-31677D01*
X64796Y-31677D01*
X65772Y-32653D01*
X65772Y-32653D01*
X65869Y-32718D01*
X65984Y-32740D01*
X68450Y-32740D01*
X68527Y-32817D01*
X68690Y-32885D01*
X68867Y-32885D01*
X68947Y-32852D01*
X69031Y-32818D01*
X69156Y-32693D01*
X69224Y-32529D01*
X69224Y-32352D01*
X69156Y-32189D01*
X69134Y-32166D01*
X69169Y-32083D01*
X69169Y-31867D01*
X69169Y-31282D01*
X69169Y-31066D01*
X69159Y-31043D01*
X69169Y-31020D01*
X69169Y-30804D01*
X69169Y-30219D01*
X69169Y-30003D01*
X69159Y-29980D01*
X69169Y-29957D01*
X69169Y-29741D01*
X69169Y-29156D01*
X69169Y-28940D01*
X69155Y-28907D01*
X69169Y-28874D01*
X69169Y-28658D01*
X69169Y-28073D01*
X69169Y-27857D01*
X69155Y-27824D01*
X69169Y-27791D01*
X69169Y-27576D01*
X69169Y-26990D01*
X69169Y-26775D01*
X69155Y-26742D01*
X69169Y-26709D01*
X69169Y-26493D01*
X69169Y-26536D01*
X69033Y-26400D01*
X68947Y-26400D01*
X68878Y-26400D01*
X68734Y-26341D01*
X68612Y-26341D01*
X68553Y-26400D01*
X68477Y-26400D01*
X68477Y-26476D01*
X68477Y-27007D01*
X68477Y-27083D01*
X68553Y-27083D01*
X68612Y-27142D01*
X68734Y-27143D01*
X68878Y-27083D01*
X68947Y-27083D01*
X69033Y-27083D01*
X69169Y-26947D01*
X69169Y-26990D01*
X69169Y-27576D01*
X69169Y-27618D01*
X69033Y-27483D01*
X68947Y-27483D01*
X68878Y-27483D01*
X68734Y-27423D01*
X68612Y-27424D01*
X68553Y-27483D01*
X68477Y-27483D01*
X68477Y-27559D01*
X68477Y-28090D01*
X68477Y-28166D01*
X68553Y-28166D01*
X68612Y-28225D01*
X68734Y-28225D01*
X68878Y-28166D01*
X68947Y-28166D01*
X69033Y-28166D01*
X69169Y-28030D01*
X69169Y-28073D01*
X69169Y-28658D01*
X69169Y-28701D01*
X69033Y-28566D01*
X68947Y-28566D01*
X68878Y-28566D01*
X68734Y-28506D01*
X68612Y-28506D01*
X68553Y-28566D01*
X68477Y-28566D01*
X68477Y-28642D01*
X68477Y-29172D01*
X68477Y-29248D01*
X68553Y-29248D01*
X68612Y-29308D01*
X68734Y-29308D01*
X68878Y-29248D01*
X68947Y-29248D01*
X69033Y-29248D01*
X69169Y-29113D01*
X69169Y-29156D01*
X69169Y-29741D01*
X69169Y-29784D01*
X69033Y-29648D01*
X68947Y-29648D01*
X68926Y-29648D01*
X68734Y-29569D01*
X68612Y-29569D01*
X68533Y-29648D01*
X68477Y-29648D01*
X68477Y-29705D01*
X68477Y-30255D01*
X68477Y-30311D01*
X68533Y-30311D01*
X68612Y-30390D01*
X68734Y-30391D01*
X68926Y-30311D01*
X68947Y-30311D01*
X69033Y-30311D01*
X69169Y-30176D01*
X69169Y-30219D01*
X69169Y-30804D01*
X69169Y-30847D01*
X69033Y-30711D01*
X68947Y-30711D01*
X68926Y-30711D01*
X68734Y-30632D01*
X68612Y-30632D01*
X68533Y-30711D01*
X68477Y-30711D01*
X68477Y-30768D01*
X68477Y-31318D01*
X68477Y-31374D01*
X68533Y-31374D01*
X68612Y-31453D01*
X68734Y-31454D01*
X68926Y-31374D01*
X68947Y-31374D01*
X69033Y-31374D01*
X69169Y-31239D01*
X69169Y-31282D01*
X69169Y-31867D01*
X69169Y-31910D01*
X69033Y-31774D01*
X68947Y-31774D01*
X68477Y-31774D01*
X68477Y-31827D01*
X68177Y-31827D01*
X68177Y-31774D01*
X68074Y-31774D01*
X68074Y-31421D01*
X68120Y-31374D01*
X68177Y-31374D01*
X68177Y-31318D01*
X68177Y-30768D01*
X68177Y-30711D01*
X68120Y-30711D01*
X68074Y-30665D01*
X68074Y-30358D01*
X68120Y-30311D01*
X68177Y-30311D01*
X68177Y-30255D01*
X68177Y-29705D01*
X68177Y-29648D01*
X68120Y-29648D01*
X68074Y-29602D01*
X68074Y-29275D01*
X68101Y-29248D01*
X68177Y-29248D01*
X68177Y-29172D01*
X68177Y-28642D01*
X68177Y-28566D01*
X68101Y-28566D01*
X68074Y-28539D01*
X68074Y-28193D01*
X68101Y-28166D01*
X68177Y-28166D01*
X68177Y-28090D01*
X68177Y-27559D01*
X68177Y-27483D01*
X68101Y-27483D01*
X68074Y-27456D01*
X68074Y-27110D01*
X68101Y-27083D01*
X68177Y-27083D01*
X68177Y-27007D01*
X68177Y-26476D01*
X68177Y-26400D01*
X68101Y-26400D01*
X68074Y-26373D01*
X68074Y-26000D01*
X68177Y-26000D01*
X68177Y-25947D01*
X68477Y-25947D01*
X68477Y-26000D01*
X68947Y-26000D01*
X69033Y-26000D01*
X69169Y-25865D01*
X69169Y-25908D01*
X69169Y-25692D01*
X69086Y-25493D01*
X68947Y-25354D01*
X68933Y-25340D01*
X68734Y-25258D01*
X68612Y-25258D01*
X68572Y-25298D01*
X68572Y-25258D01*
X68512Y-25258D01*
X68917Y-24853D01*
X68947Y-24853D01*
X68947Y-24823D01*
X69227Y-24542D01*
X69227Y-24542D01*
X69292Y-24445D01*
X69315Y-24330D01*
X69315Y-24330D01*
X69315Y-24302D01*
X69373Y-24326D01*
X69589Y-24326D01*
X69546Y-24326D01*
X69681Y-24191D01*
X69681Y-23634D01*
X69628Y-23634D01*
X69628Y-23334D01*
X69681Y-23334D01*
X69681Y-23231D01*
X70081Y-23231D01*
X70081Y-23334D01*
X70135Y-23334D01*
X70135Y-23634D01*
X70081Y-23634D01*
X70081Y-24191D01*
X70217Y-24326D01*
X70174Y-24326D01*
X70390Y-24326D01*
X70561Y-24255D01*
X70553Y-24273D01*
X70553Y-24512D01*
X70619Y-24671D01*
X70619Y-25115D01*
X70619Y-25115D01*
G37*
G54D33*
X70619Y-25115D02*
X70553Y-25273D01*
X70553Y-25512D01*
X70586Y-25593D01*
X70149Y-25593D01*
X70034Y-25616D01*
X69937Y-25681D01*
X69925Y-25693D01*
X69925Y-25693D01*
X69295Y-26323D01*
X69230Y-26420D01*
X69207Y-26535D01*
X69207Y-31594D01*
X69207Y-31606D01*
X69230Y-31721D01*
X69295Y-31818D01*
X69782Y-32305D01*
X69766Y-32344D01*
X69766Y-32583D01*
X69812Y-32695D01*
X69812Y-33203D01*
X68947Y-33203D01*
X68858Y-33203D01*
X68743Y-33226D01*
X68646Y-33291D01*
X67819Y-34118D01*
X67754Y-34215D01*
X67733Y-34318D01*
X67700Y-34236D01*
X67575Y-34111D01*
X67545Y-34099D01*
X67814Y-33830D01*
X67922Y-33830D01*
X68086Y-33763D01*
X68211Y-33638D01*
X68279Y-33474D01*
X68279Y-33297D01*
X68212Y-33134D01*
X68086Y-33008D01*
X67923Y-32941D01*
X67746Y-32940D01*
X67582Y-33008D01*
X67457Y-33133D01*
X67389Y-33296D01*
X67389Y-33406D01*
X67276Y-33519D01*
X67295Y-33474D01*
X67295Y-33297D01*
X67227Y-33134D01*
X67102Y-33008D01*
X66939Y-32941D01*
X66762Y-32940D01*
X66598Y-33008D01*
X66473Y-33133D01*
X66405Y-33296D01*
X66405Y-33406D01*
X66194Y-33617D01*
X66129Y-33551D01*
X66153Y-33494D01*
X66153Y-33317D01*
X66086Y-33153D01*
X65960Y-33028D01*
X65797Y-32960D01*
X65632Y-32960D01*
X65574Y-32819D01*
X65449Y-32693D01*
X65285Y-32626D01*
X65108Y-32625D01*
X65058Y-32646D01*
X65058Y-32621D01*
X65020Y-32529D01*
X64950Y-32459D01*
X64858Y-32420D01*
X64758Y-32420D01*
X64158Y-32420D01*
X64066Y-32458D01*
X63996Y-32529D01*
X63958Y-32620D01*
X63958Y-32720D01*
X63958Y-33520D01*
X63996Y-33612D01*
X64066Y-33682D01*
X64098Y-33696D01*
X63617Y-33696D01*
X63649Y-33682D01*
X63720Y-33612D01*
X63758Y-33520D01*
X63758Y-33421D01*
X63758Y-32621D01*
X63720Y-32529D01*
X63650Y-32459D01*
X63558Y-32420D01*
X63458Y-32420D01*
X62858Y-32420D01*
X62783Y-32451D01*
X62798Y-32437D01*
X62866Y-32273D01*
X62866Y-32096D01*
X62798Y-31933D01*
X62711Y-31846D01*
X62880Y-31677D01*
X64796Y-31677D01*
X65772Y-32653D01*
X65772Y-32653D01*
X65869Y-32718D01*
X65984Y-32740D01*
X68450Y-32740D01*
X68527Y-32817D01*
X68690Y-32885D01*
X68867Y-32885D01*
X68947Y-32852D01*
X69031Y-32818D01*
X69156Y-32693D01*
X69224Y-32529D01*
X69224Y-32352D01*
X69156Y-32189D01*
X69134Y-32166D01*
X69169Y-32083D01*
X69169Y-31867D01*
X69169Y-31282D01*
X69169Y-31066D01*
X69159Y-31043D01*
X69169Y-31020D01*
X69169Y-30804D01*
X69169Y-30219D01*
X69169Y-30003D01*
X69159Y-29980D01*
X69169Y-29957D01*
X69169Y-29741D01*
X69169Y-29156D01*
X69169Y-28940D01*
X69155Y-28907D01*
X69169Y-28874D01*
X69169Y-28658D01*
X69169Y-28073D01*
X69169Y-27857D01*
X69155Y-27824D01*
X69169Y-27791D01*
X69169Y-27576D01*
X69169Y-26990D01*
X69169Y-26775D01*
X69155Y-26742D01*
X69169Y-26709D01*
X69169Y-26493D01*
X69169Y-26536D01*
X69033Y-26400D01*
X68947Y-26400D01*
X68878Y-26400D01*
X68734Y-26341D01*
X68612Y-26341D01*
X68553Y-26400D01*
X68477Y-26400D01*
X68477Y-26476D01*
X68477Y-27007D01*
X68477Y-27083D01*
X68553Y-27083D01*
X68612Y-27142D01*
X68734Y-27143D01*
X68878Y-27083D01*
X68947Y-27083D01*
X69033Y-27083D01*
X69169Y-26947D01*
X69169Y-26990D01*
X69169Y-27576D01*
X69169Y-27618D01*
X69033Y-27483D01*
X68947Y-27483D01*
X68878Y-27483D01*
X68734Y-27423D01*
X68612Y-27424D01*
X68553Y-27483D01*
X68477Y-27483D01*
X68477Y-27559D01*
X68477Y-28090D01*
X68477Y-28166D01*
X68553Y-28166D01*
X68612Y-28225D01*
X68734Y-28225D01*
X68878Y-28166D01*
X68947Y-28166D01*
X69033Y-28166D01*
X69169Y-28030D01*
X69169Y-28073D01*
X69169Y-28658D01*
X69169Y-28701D01*
X69033Y-28566D01*
X68947Y-28566D01*
X68878Y-28566D01*
X68734Y-28506D01*
X68612Y-28506D01*
X68553Y-28566D01*
X68477Y-28566D01*
X68477Y-28642D01*
X68477Y-29172D01*
X68477Y-29248D01*
X68553Y-29248D01*
X68612Y-29308D01*
X68734Y-29308D01*
X68878Y-29248D01*
X68947Y-29248D01*
X69033Y-29248D01*
X69169Y-29113D01*
X69169Y-29156D01*
X69169Y-29741D01*
X69169Y-29784D01*
X69033Y-29648D01*
X68947Y-29648D01*
X68926Y-29648D01*
X68734Y-29569D01*
X68612Y-29569D01*
X68533Y-29648D01*
X68477Y-29648D01*
X68477Y-29705D01*
X68477Y-30255D01*
X68477Y-30311D01*
X68533Y-30311D01*
X68612Y-30390D01*
X68734Y-30391D01*
X68926Y-30311D01*
X68947Y-30311D01*
X69033Y-30311D01*
X69169Y-30176D01*
X69169Y-30219D01*
X69169Y-30804D01*
X69169Y-30847D01*
X69033Y-30711D01*
X68947Y-30711D01*
X68926Y-30711D01*
X68734Y-30632D01*
X68612Y-30632D01*
X68533Y-30711D01*
X68477Y-30711D01*
X68477Y-30768D01*
X68477Y-31318D01*
X68477Y-31374D01*
X68533Y-31374D01*
X68612Y-31453D01*
X68734Y-31454D01*
X68926Y-31374D01*
X68947Y-31374D01*
X69033Y-31374D01*
X69169Y-31239D01*
X69169Y-31282D01*
X69169Y-31867D01*
X69169Y-31910D01*
X69033Y-31774D01*
X68947Y-31774D01*
X68477Y-31774D01*
X68477Y-31827D01*
X68177Y-31827D01*
X68177Y-31774D01*
X68074Y-31774D01*
X68074Y-31421D01*
X68120Y-31374D01*
X68177Y-31374D01*
X68177Y-31318D01*
X68177Y-30768D01*
X68177Y-30711D01*
X68120Y-30711D01*
X68074Y-30665D01*
X68074Y-30358D01*
X68120Y-30311D01*
X68177Y-30311D01*
X68177Y-30255D01*
X68177Y-29705D01*
X68177Y-29648D01*
X68120Y-29648D01*
X68074Y-29602D01*
X68074Y-29275D01*
X68101Y-29248D01*
X68177Y-29248D01*
X68177Y-29172D01*
X68177Y-28642D01*
X68177Y-28566D01*
X68101Y-28566D01*
X68074Y-28539D01*
X68074Y-28193D01*
X68101Y-28166D01*
X68177Y-28166D01*
X68177Y-28090D01*
X68177Y-27559D01*
X68177Y-27483D01*
X68101Y-27483D01*
X68074Y-27456D01*
X68074Y-27110D01*
X68101Y-27083D01*
X68177Y-27083D01*
X68177Y-27007D01*
X68177Y-26476D01*
X68177Y-26400D01*
X68101Y-26400D01*
X68074Y-26373D01*
X68074Y-26000D01*
X68177Y-26000D01*
X68177Y-25947D01*
X68477Y-25947D01*
X68477Y-26000D01*
X68947Y-26000D01*
X69033Y-26000D01*
X69169Y-25865D01*
X69169Y-25908D01*
X69169Y-25692D01*
X69086Y-25493D01*
X68947Y-25354D01*
X68933Y-25340D01*
X68734Y-25258D01*
X68612Y-25258D01*
X68572Y-25298D01*
X68572Y-25258D01*
X68512Y-25258D01*
X68917Y-24853D01*
X68947Y-24853D01*
X68947Y-24823D01*
X69227Y-24542D01*
X69227Y-24542D01*
X69292Y-24445D01*
X69315Y-24330D01*
X69315Y-24330D01*
X69315Y-24302D01*
X69373Y-24326D01*
X69589Y-24326D01*
X69546Y-24326D01*
X69681Y-24191D01*
X69681Y-23634D01*
X69628Y-23634D01*
X69628Y-23334D01*
X69681Y-23334D01*
X69681Y-23231D01*
X70081Y-23231D01*
X70081Y-23334D01*
X70135Y-23334D01*
X70135Y-23634D01*
X70081Y-23634D01*
X70081Y-24191D01*
X70217Y-24326D01*
X70174Y-24326D01*
X70390Y-24326D01*
X70561Y-24255D01*
X70553Y-24273D01*
X70553Y-24512D01*
X70619Y-24671D01*
X70619Y-25115D01*
G54D10*
G36*
X70849Y-21156D02*
X70078Y-21156D01*
X69963Y-21179D01*
X69866Y-21244D01*
X69669Y-21441D01*
X69604Y-21538D01*
X69585Y-21634D01*
X69432Y-21634D01*
X69340Y-21672D01*
X69315Y-21697D01*
X69315Y-19448D01*
X69292Y-19334D01*
X69227Y-19236D01*
X69029Y-19038D01*
X69029Y-19034D01*
X68947Y-18837D01*
X68947Y-18453D01*
X64910Y-18453D01*
X64910Y-18837D01*
X64829Y-19033D01*
X64829Y-19272D01*
X64910Y-19469D01*
X64910Y-19837D01*
X64829Y-20033D01*
X64829Y-20272D01*
X64910Y-20469D01*
X64910Y-20837D01*
X64829Y-21033D01*
X64829Y-21272D01*
X64910Y-21469D01*
X64910Y-21837D01*
X64829Y-22033D01*
X64829Y-22272D01*
X64910Y-22469D01*
X64910Y-22837D01*
X64831Y-23028D01*
X64405Y-22602D01*
X64307Y-22537D01*
X64192Y-22514D01*
X63923Y-22514D01*
X63829Y-22421D01*
X63829Y-18160D01*
X69923Y-18160D01*
X69622Y-18885D01*
X69622Y-19693D01*
X69930Y-20440D01*
X70501Y-21012D01*
X70849Y-21156D01*
X70849Y-21156D01*
G37*
G54D33*
X70849Y-21156D02*
X70078Y-21156D01*
X69963Y-21179D01*
X69866Y-21244D01*
X69669Y-21441D01*
X69604Y-21538D01*
X69585Y-21634D01*
X69432Y-21634D01*
X69340Y-21672D01*
X69315Y-21697D01*
X69315Y-19448D01*
X69292Y-19334D01*
X69227Y-19236D01*
X69029Y-19038D01*
X69029Y-19034D01*
X68947Y-18837D01*
X68947Y-18453D01*
X64910Y-18453D01*
X64910Y-18837D01*
X64829Y-19033D01*
X64829Y-19272D01*
X64910Y-19469D01*
X64910Y-19837D01*
X64829Y-20033D01*
X64829Y-20272D01*
X64910Y-20469D01*
X64910Y-20837D01*
X64829Y-21033D01*
X64829Y-21272D01*
X64910Y-21469D01*
X64910Y-21837D01*
X64829Y-22033D01*
X64829Y-22272D01*
X64910Y-22469D01*
X64910Y-22837D01*
X64831Y-23028D01*
X64405Y-22602D01*
X64307Y-22537D01*
X64192Y-22514D01*
X63923Y-22514D01*
X63829Y-22421D01*
X63829Y-18160D01*
X69923Y-18160D01*
X69622Y-18885D01*
X69622Y-19693D01*
X69930Y-20440D01*
X70501Y-21012D01*
X70849Y-21156D01*
G54D10*
G36*
X72784Y-45908D02*
X72687Y-45868D01*
X72059Y-45607D01*
X71920Y-45606D01*
X71251Y-45606D01*
X70504Y-45914D01*
X69932Y-46485D01*
X69622Y-47232D01*
X69622Y-48040D01*
X69923Y-48768D01*
X68947Y-48768D01*
X68897Y-48768D01*
X68160Y-48768D01*
X68160Y-45140D01*
X68190Y-45094D01*
X68213Y-44979D01*
X68213Y-44979D01*
X68213Y-43916D01*
X68362Y-43916D01*
X68454Y-43878D01*
X68525Y-43808D01*
X68563Y-43716D01*
X68563Y-43617D01*
X68563Y-43017D01*
X68525Y-42925D01*
X68455Y-42854D01*
X68363Y-42816D01*
X68349Y-42816D01*
X68358Y-42795D01*
X68358Y-42618D01*
X68357Y-42616D01*
X68362Y-42616D01*
X68454Y-42578D01*
X68525Y-42508D01*
X68563Y-42416D01*
X68563Y-42317D01*
X68563Y-42294D01*
X68637Y-42368D01*
X68637Y-43110D01*
X68659Y-43225D01*
X68724Y-43322D01*
X68947Y-43545D01*
X69811Y-44409D01*
X69812Y-44538D01*
X69948Y-44538D01*
X69948Y-44538D01*
X70022Y-44588D01*
X70137Y-44611D01*
X70787Y-44611D01*
X70787Y-44611D01*
X70902Y-44588D01*
X70902Y-44588D01*
X70977Y-44538D01*
X71920Y-44538D01*
X71920Y-44231D01*
X71927Y-44224D01*
X71966Y-44132D01*
X71966Y-44032D01*
X71966Y-43332D01*
X71928Y-43240D01*
X71920Y-43232D01*
X71920Y-43038D01*
X72023Y-43141D01*
X72191Y-43115D01*
X72274Y-42770D01*
X72220Y-42419D01*
X72191Y-42349D01*
X72023Y-42322D01*
X71920Y-42425D01*
X71920Y-41962D01*
X71966Y-41852D01*
X71966Y-41613D01*
X71920Y-41501D01*
X71920Y-40962D01*
X71966Y-40852D01*
X71966Y-40613D01*
X71920Y-40501D01*
X71920Y-39962D01*
X71966Y-39852D01*
X71966Y-39613D01*
X71949Y-39573D01*
X72523Y-38999D01*
X72523Y-38999D01*
X72588Y-38902D01*
X72611Y-38787D01*
X72611Y-38787D01*
X72611Y-32409D01*
X72588Y-32294D01*
X72523Y-32197D01*
X72523Y-32197D01*
X72475Y-32150D01*
X72475Y-32150D01*
X72475Y-32150D01*
X71949Y-31623D01*
X71966Y-31584D01*
X71966Y-31345D01*
X71949Y-31305D01*
X72687Y-30567D01*
X72784Y-30470D01*
X72784Y-45908D01*
X72784Y-45908D01*
G37*
G54D33*
X72784Y-45908D02*
X72687Y-45868D01*
X72059Y-45607D01*
X71920Y-45606D01*
X71251Y-45606D01*
X70504Y-45914D01*
X69932Y-46485D01*
X69622Y-47232D01*
X69622Y-48040D01*
X69923Y-48768D01*
X68947Y-48768D01*
X68897Y-48768D01*
X68160Y-48768D01*
X68160Y-45140D01*
X68190Y-45094D01*
X68213Y-44979D01*
X68213Y-44979D01*
X68213Y-43916D01*
X68362Y-43916D01*
X68454Y-43878D01*
X68525Y-43808D01*
X68563Y-43716D01*
X68563Y-43617D01*
X68563Y-43017D01*
X68525Y-42925D01*
X68455Y-42854D01*
X68363Y-42816D01*
X68349Y-42816D01*
X68358Y-42795D01*
X68358Y-42618D01*
X68357Y-42616D01*
X68362Y-42616D01*
X68454Y-42578D01*
X68525Y-42508D01*
X68563Y-42416D01*
X68563Y-42317D01*
X68563Y-42294D01*
X68637Y-42368D01*
X68637Y-43110D01*
X68659Y-43225D01*
X68724Y-43322D01*
X68947Y-43545D01*
X69811Y-44409D01*
X69812Y-44538D01*
X69948Y-44538D01*
X69948Y-44538D01*
X70022Y-44588D01*
X70137Y-44611D01*
X70787Y-44611D01*
X70787Y-44611D01*
X70902Y-44588D01*
X70902Y-44588D01*
X70977Y-44538D01*
X71920Y-44538D01*
X71920Y-44231D01*
X71927Y-44224D01*
X71966Y-44132D01*
X71966Y-44032D01*
X71966Y-43332D01*
X71928Y-43240D01*
X71920Y-43232D01*
X71920Y-43038D01*
X72023Y-43141D01*
X72191Y-43115D01*
X72274Y-42770D01*
X72220Y-42419D01*
X72191Y-42349D01*
X72023Y-42322D01*
X71920Y-42425D01*
X71920Y-41962D01*
X71966Y-41852D01*
X71966Y-41613D01*
X71920Y-41501D01*
X71920Y-40962D01*
X71966Y-40852D01*
X71966Y-40613D01*
X71920Y-40501D01*
X71920Y-39962D01*
X71966Y-39852D01*
X71966Y-39613D01*
X71949Y-39573D01*
X72523Y-38999D01*
X72523Y-38999D01*
X72588Y-38902D01*
X72611Y-38787D01*
X72611Y-38787D01*
X72611Y-32409D01*
X72588Y-32294D01*
X72523Y-32197D01*
X72523Y-32197D01*
X72475Y-32150D01*
X72475Y-32150D01*
X72475Y-32150D01*
X71949Y-31623D01*
X71966Y-31584D01*
X71966Y-31345D01*
X71949Y-31305D01*
X72687Y-30567D01*
X72784Y-30470D01*
X72784Y-45908D01*
M02*
