M48
METRIC,TZ
T1C0.500
T2C0.813
T3C1.016
T4C1.199
T5C1.600
T6C3.048
%
G90
G05
T1
X94.Y-54.3
X94.6Y-110.6
X97.5Y-102.
X100.5Y-108.5
X103.3Y-73.2
X105.55Y-73.15
X105.8Y-110.4
X106.6Y-102.
X107.5Y-61.5
X109.45Y-108.5
X114.6Y-110.4
X115.6Y-102.
X116.5Y-61.5
X118.45Y-108.5
X119.25Y-91.6
X120.7Y-110.4
X124.6Y-102.1
X125.5Y-61.5
X127.45Y-108.5
X130.6Y-110.4
X131.Y-88.5
X131.2Y-89.8
X131.4Y-80.6
X131.4Y-82.6
X131.8Y-84.3
X132.7Y-80.5
X133.4Y-82.6
X133.6Y-102.
X134.45Y-80.3
X134.5Y-61.5
X135.2Y-83.2
X135.55Y-88.25
X135.95Y-79.95
X136.2Y-73.4
X136.5Y-108.5
X137.3Y-90.75
X137.3Y-92.65
X137.951Y-79.851
X138.69Y-90.73
X140.2Y-87.2
X140.9Y-89.1
X141.Y-111.
X141.75Y-88.1
X141.8Y-86.3
X142.6Y-102.
X143.5Y-61.5
X145.45Y-85.9
X145.45Y-108.5
X146.1Y-80.9
X146.2Y-92.5
X146.775Y-85.45
X147.95Y-84.6
X148.575Y-85.775
X149.4Y-111.
X149.9Y-73.4
X150.9Y-84.8
X151.6Y-102.
X151.7Y-83.
X152.3Y-84.9
X152.5Y-61.5
X152.8Y-81.8
X154.Y-56.6
X154.35Y-108.5
X154.8Y-81.75
X155.15Y-92.6
X158.55Y-81.75
X158.58Y-83.97
X159.4Y-110.2
X160.6Y-102.
X163.3Y-54.9
X163.45Y-108.5
X164.Y-75.5
X164.2Y-92.45
X165.6Y-84.
X165.7Y-75.9
X166.4Y-111.
X166.9Y-84.85
X167.25Y-86.1
X168.95Y-86.9
X169.22Y-90.16
X169.6Y-101.9
X169.8Y-84.8
X171.Y-87.6
X171.8Y-88.6
X172.3Y-84.8
X172.43Y-90.41
X172.5Y-108.475
X173.6Y-96.35
X174.7Y-82.4
X176.13Y-88.81
X178.6Y-96.35
T2
X95.18Y-108.5
X97.72Y-108.5
X102.23Y-61.5
X104.18Y-108.5
X104.77Y-61.5
X106.72Y-108.5
X110.23Y-61.5
X112.77Y-61.5
X113.18Y-108.5
X115.72Y-108.5
X119.23Y-61.5
X121.77Y-61.5
X122.18Y-108.5
X124.72Y-108.5
X128.23Y-61.5
X130.77Y-61.5
X131.18Y-108.5
X133.72Y-108.5
X137.23Y-61.5
X139.77Y-61.5
X140.18Y-108.5
X142.72Y-108.5
X146.23Y-61.5
X148.77Y-61.5
X149.18Y-108.5
X151.72Y-108.5
X155.23Y-61.5
X157.77Y-61.5
X158.18Y-108.5
X160.72Y-108.5
X167.18Y-108.5
X169.72Y-108.5
T3
X119.6Y-82.16
X119.6Y-87.24
X166.19Y-48.65
X166.19Y-51.19
X166.19Y-53.73
X166.19Y-56.27
X166.19Y-58.81
X166.19Y-61.35
X173.81Y-48.65
X173.81Y-51.19
X173.81Y-53.73
X173.81Y-56.27
X173.81Y-58.81
X173.81Y-61.35
X178.73Y-79.92
X178.73Y-82.46
X178.73Y-85.
X178.73Y-87.54
X178.73Y-90.08
X178.73Y-100.92
X178.73Y-103.46
X178.73Y-106.
X178.73Y-108.54
X178.73Y-111.08
X180.73Y-56.88
X180.73Y-59.42
X180.73Y-61.96
X180.73Y-64.5
X180.73Y-67.04
X180.73Y-69.58
X180.73Y-72.12
X181.27Y-79.92
X181.27Y-82.46
X181.27Y-85.
X181.27Y-87.54
X181.27Y-90.08
X181.27Y-100.92
X181.27Y-103.46
X181.27Y-106.
X181.27Y-108.54
X181.27Y-111.08
X183.27Y-56.88
X183.27Y-59.42
X183.27Y-61.96
X183.27Y-64.5
X183.27Y-67.04
X183.27Y-69.58
X183.27Y-72.12
T4
X97.701Y-82.06
X97.701Y-87.14
X101.752Y-48.501
X101.752Y-53.499
X101.752Y-116.501
X101.752Y-121.499
X102.7Y-82.06
X102.7Y-87.14
X104.251Y-48.501
X104.251Y-53.499
X104.251Y-116.501
X104.251Y-121.499
X106.75Y-48.501
X106.75Y-53.499
X106.75Y-116.501
X106.75Y-121.499
X109.25Y-48.501
X109.25Y-53.499
X109.25Y-116.501
X109.25Y-121.499
X111.749Y-48.501
X111.749Y-53.499
X111.749Y-116.501
X111.749Y-121.499
X114.248Y-48.501
X114.248Y-53.499
X114.248Y-116.501
X114.248Y-121.499
X129.752Y-48.501
X129.752Y-53.499
X129.752Y-116.501
X129.752Y-121.499
X132.251Y-48.501
X132.251Y-53.499
X132.251Y-116.501
X132.251Y-121.499
X134.75Y-48.501
X134.75Y-53.499
X134.75Y-116.501
X134.75Y-121.499
X137.25Y-48.501
X137.25Y-53.499
X137.25Y-116.501
X137.25Y-121.499
X139.749Y-48.501
X139.749Y-53.499
X139.749Y-116.501
X139.749Y-121.499
X142.248Y-48.501
X142.248Y-53.499
X142.248Y-116.501
X142.248Y-121.499
X157.75Y-48.501
X157.75Y-53.499
X157.752Y-116.501
X157.752Y-121.499
X160.25Y-48.501
X160.25Y-53.499
X160.251Y-116.501
X160.251Y-121.499
X162.75Y-116.501
X162.75Y-121.499
X165.25Y-116.501
X165.25Y-121.499
X167.749Y-116.501
X167.749Y-121.499
X170.248Y-116.501
X170.248Y-121.499
T5
X90.6Y-55.2
X90.6Y-80.2
T6
X90.Y-49.
X90.Y-121.
X182.Y-49.
X182.Y-121.
T0
M30
