G04 (created by PCBNEW (2013-may-18)-stable) date Fr 02 Mai 2014 14:18:07 CEST*
%MOIN*%
G04 Gerber Fmt 3.4, Leading zero omitted, Abs format*
%FSLAX34Y34*%
G01*
G70*
G90*
G04 APERTURE LIST*
%ADD10C,0.00590551*%
%ADD11R,0.043348X0.114248*%
%ADD12R,0.055148X0.114248*%
%ADD13R,0.094448X0.047248*%
%ADD14C,0.129921*%
%ADD15R,0.085748X0.085748*%
%ADD16C,0.085748*%
%ADD17R,0.073648X0.032248*%
%ADD18R,0.102348X0.078748*%
%ADD19O,0.086548X0.157448*%
%ADD20R,0.070748X0.070748*%
%ADD21C,0.070748*%
%ADD22R,0.095748X0.075748*%
%ADD23R,0.075748X0.095748*%
%ADD24C,0.175748*%
%ADD25O,0.157448X0.086548*%
%ADD26R,0.0944882X0.240157*%
%ADD27R,0.240157X0.0944882*%
G04 APERTURE END LIST*
G54D10*
G36*
X66201Y-40217D02*
X66004Y-40669D01*
X65452Y-40669D01*
X65255Y-40217D01*
X66201Y-40217D01*
X66201Y-40217D01*
G37*
G54D11*
X66319Y-41083D03*
X65137Y-41083D03*
X66319Y-39231D03*
G54D12*
X65728Y-39231D03*
G54D11*
X65137Y-39231D03*
G54D12*
X65728Y-41083D03*
G54D10*
G36*
X65255Y-40097D02*
X65452Y-39645D01*
X66004Y-39645D01*
X66201Y-40097D01*
X65255Y-40097D01*
X65255Y-40097D01*
G37*
G54D13*
X65728Y-40157D03*
G54D10*
G36*
X62657Y-40217D02*
X62460Y-40669D01*
X61909Y-40669D01*
X61712Y-40217D01*
X62657Y-40217D01*
X62657Y-40217D01*
G37*
G54D11*
X62776Y-41083D03*
X61594Y-41083D03*
X62776Y-39231D03*
G54D12*
X62185Y-39231D03*
G54D11*
X61594Y-39231D03*
G54D12*
X62185Y-41083D03*
G54D10*
G36*
X61712Y-40097D02*
X61909Y-39645D01*
X62460Y-39645D01*
X62657Y-40097D01*
X61712Y-40097D01*
X61712Y-40097D01*
G37*
G54D13*
X62185Y-40157D03*
G54D10*
G36*
X59114Y-40217D02*
X58917Y-40669D01*
X58365Y-40669D01*
X58168Y-40217D01*
X59114Y-40217D01*
X59114Y-40217D01*
G37*
G54D11*
X59232Y-41083D03*
X58050Y-41083D03*
X59232Y-39231D03*
G54D12*
X58641Y-39231D03*
G54D11*
X58050Y-39231D03*
G54D12*
X58641Y-41083D03*
G54D10*
G36*
X58168Y-40097D02*
X58365Y-39645D01*
X58917Y-39645D01*
X59114Y-40097D01*
X58168Y-40097D01*
X58168Y-40097D01*
G37*
G54D13*
X58641Y-40157D03*
G54D10*
G36*
X55571Y-40217D02*
X55374Y-40669D01*
X54822Y-40669D01*
X54625Y-40217D01*
X55571Y-40217D01*
X55571Y-40217D01*
G37*
G54D11*
X55689Y-41083D03*
X54507Y-41083D03*
X55689Y-39231D03*
G54D12*
X55098Y-39231D03*
G54D11*
X54507Y-39231D03*
G54D12*
X55098Y-41083D03*
G54D10*
G36*
X54625Y-40097D02*
X54822Y-39645D01*
X55374Y-39645D01*
X55571Y-40097D01*
X54625Y-40097D01*
X54625Y-40097D01*
G37*
G54D13*
X55098Y-40157D03*
G54D10*
G36*
X48484Y-40217D02*
X48287Y-40669D01*
X47736Y-40669D01*
X47539Y-40217D01*
X48484Y-40217D01*
X48484Y-40217D01*
G37*
G54D11*
X48602Y-41083D03*
X47420Y-41083D03*
X48602Y-39231D03*
G54D12*
X48011Y-39231D03*
G54D11*
X47420Y-39231D03*
G54D12*
X48011Y-41083D03*
G54D10*
G36*
X47539Y-40097D02*
X47736Y-39645D01*
X48287Y-39645D01*
X48484Y-40097D01*
X47539Y-40097D01*
X47539Y-40097D01*
G37*
G54D13*
X48011Y-40157D03*
G54D10*
G36*
X52027Y-40217D02*
X51830Y-40669D01*
X51279Y-40669D01*
X51082Y-40217D01*
X52027Y-40217D01*
X52027Y-40217D01*
G37*
G54D11*
X52146Y-41083D03*
X50964Y-41083D03*
X52146Y-39231D03*
G54D12*
X51555Y-39231D03*
G54D11*
X50964Y-39231D03*
G54D12*
X51555Y-41083D03*
G54D10*
G36*
X51082Y-40097D02*
X51279Y-39645D01*
X51830Y-39645D01*
X52027Y-40097D01*
X51082Y-40097D01*
X51082Y-40097D01*
G37*
G54D13*
X51555Y-40157D03*
G54D10*
G36*
X44941Y-40217D02*
X44744Y-40669D01*
X44192Y-40669D01*
X43995Y-40217D01*
X44941Y-40217D01*
X44941Y-40217D01*
G37*
G54D11*
X45059Y-41083D03*
X43877Y-41083D03*
X45059Y-39231D03*
G54D12*
X44468Y-39231D03*
G54D11*
X43877Y-39231D03*
G54D12*
X44468Y-41083D03*
G54D10*
G36*
X43995Y-40097D02*
X44192Y-39645D01*
X44744Y-39645D01*
X44941Y-40097D01*
X43995Y-40097D01*
X43995Y-40097D01*
G37*
G54D13*
X44468Y-40157D03*
G54D10*
G36*
X41397Y-40217D02*
X41200Y-40669D01*
X40649Y-40669D01*
X40452Y-40217D01*
X41397Y-40217D01*
X41397Y-40217D01*
G37*
G54D11*
X41516Y-41083D03*
X40334Y-41083D03*
X41516Y-39231D03*
G54D12*
X40925Y-39231D03*
G54D11*
X40334Y-39231D03*
G54D12*
X40925Y-41083D03*
G54D10*
G36*
X40452Y-40097D02*
X40649Y-39645D01*
X41200Y-39645D01*
X41397Y-40097D01*
X40452Y-40097D01*
X40452Y-40097D01*
G37*
G54D13*
X40925Y-40157D03*
G54D10*
G36*
X37854Y-40217D02*
X37657Y-40669D01*
X37106Y-40669D01*
X36909Y-40217D01*
X37854Y-40217D01*
X37854Y-40217D01*
G37*
G54D11*
X37972Y-41083D03*
X36790Y-41083D03*
X37972Y-39231D03*
G54D12*
X37381Y-39231D03*
G54D11*
X36790Y-39231D03*
G54D12*
X37381Y-41083D03*
G54D10*
G36*
X36909Y-40097D02*
X37106Y-39645D01*
X37657Y-39645D01*
X37854Y-40097D01*
X36909Y-40097D01*
X36909Y-40097D01*
G37*
G54D13*
X37381Y-40157D03*
G54D10*
G36*
X61731Y-26711D02*
X61928Y-26259D01*
X62480Y-26259D01*
X62677Y-26711D01*
X61731Y-26711D01*
X61731Y-26711D01*
G37*
G54D11*
X61613Y-25845D03*
X62795Y-25845D03*
X61613Y-27697D03*
G54D12*
X62204Y-27697D03*
G54D11*
X62795Y-27697D03*
G54D12*
X62204Y-25845D03*
G54D10*
G36*
X62677Y-26831D02*
X62480Y-27283D01*
X61928Y-27283D01*
X61731Y-26831D01*
X62677Y-26831D01*
X62677Y-26831D01*
G37*
G54D13*
X62204Y-26771D03*
G54D10*
G36*
X58188Y-26711D02*
X58385Y-26259D01*
X58937Y-26259D01*
X59134Y-26711D01*
X58188Y-26711D01*
X58188Y-26711D01*
G37*
G54D11*
X58070Y-25845D03*
X59252Y-25845D03*
X58070Y-27697D03*
G54D12*
X58661Y-27697D03*
G54D11*
X59252Y-27697D03*
G54D12*
X58661Y-25845D03*
G54D10*
G36*
X59134Y-26831D02*
X58937Y-27283D01*
X58385Y-27283D01*
X58188Y-26831D01*
X59134Y-26831D01*
X59134Y-26831D01*
G37*
G54D13*
X58661Y-26771D03*
G54D10*
G36*
X51102Y-26711D02*
X51299Y-26259D01*
X51850Y-26259D01*
X52047Y-26711D01*
X51102Y-26711D01*
X51102Y-26711D01*
G37*
G54D11*
X50983Y-25845D03*
X52165Y-25845D03*
X50983Y-27697D03*
G54D12*
X51574Y-27697D03*
G54D11*
X52165Y-27697D03*
G54D12*
X51574Y-25845D03*
G54D10*
G36*
X52047Y-26831D02*
X51850Y-27283D01*
X51299Y-27283D01*
X51102Y-26831D01*
X52047Y-26831D01*
X52047Y-26831D01*
G37*
G54D13*
X51574Y-26771D03*
G54D10*
G36*
X47558Y-26711D02*
X47755Y-26259D01*
X48307Y-26259D01*
X48504Y-26711D01*
X47558Y-26711D01*
X47558Y-26711D01*
G37*
G54D11*
X47440Y-25845D03*
X48622Y-25845D03*
X47440Y-27697D03*
G54D12*
X48031Y-27697D03*
G54D11*
X48622Y-27697D03*
G54D12*
X48031Y-25845D03*
G54D10*
G36*
X48504Y-26831D02*
X48307Y-27283D01*
X47755Y-27283D01*
X47558Y-26831D01*
X48504Y-26831D01*
X48504Y-26831D01*
G37*
G54D13*
X48031Y-26771D03*
G54D10*
G36*
X44015Y-26711D02*
X44212Y-26259D01*
X44763Y-26259D01*
X44960Y-26711D01*
X44015Y-26711D01*
X44015Y-26711D01*
G37*
G54D11*
X43897Y-25845D03*
X45079Y-25845D03*
X43897Y-27697D03*
G54D12*
X44488Y-27697D03*
G54D11*
X45079Y-27697D03*
G54D12*
X44488Y-25845D03*
G54D10*
G36*
X44960Y-26831D02*
X44763Y-27283D01*
X44212Y-27283D01*
X44015Y-26831D01*
X44960Y-26831D01*
X44960Y-26831D01*
G37*
G54D13*
X44488Y-26771D03*
G54D10*
G36*
X40472Y-26711D02*
X40669Y-26259D01*
X41220Y-26259D01*
X41417Y-26711D01*
X40472Y-26711D01*
X40472Y-26711D01*
G37*
G54D11*
X40353Y-25845D03*
X41535Y-25845D03*
X40353Y-27697D03*
G54D12*
X40944Y-27697D03*
G54D11*
X41535Y-27697D03*
G54D12*
X40944Y-25845D03*
G54D10*
G36*
X41417Y-26831D02*
X41220Y-27283D01*
X40669Y-27283D01*
X40472Y-26831D01*
X41417Y-26831D01*
X41417Y-26831D01*
G37*
G54D13*
X40944Y-26771D03*
G54D14*
X35669Y-21732D03*
X35669Y-31574D03*
G54D15*
X71366Y-43732D03*
G54D16*
X70366Y-43732D03*
X71366Y-42732D03*
X70366Y-42732D03*
X71366Y-41732D03*
X70366Y-41732D03*
X71366Y-40732D03*
X70366Y-40732D03*
X71366Y-39732D03*
X70366Y-39732D03*
G54D15*
X71366Y-35464D03*
G54D16*
X70366Y-35464D03*
X71366Y-34464D03*
X70366Y-34464D03*
X71366Y-33464D03*
X70366Y-33464D03*
X71366Y-32464D03*
X70366Y-32464D03*
X71366Y-31464D03*
X70366Y-31464D03*
X71153Y-22393D03*
X72153Y-22393D03*
G54D15*
X72153Y-28393D03*
G54D16*
X71153Y-28393D03*
X72153Y-27393D03*
X71153Y-27393D03*
X72153Y-26393D03*
X71153Y-26393D03*
X72153Y-25393D03*
X71153Y-25393D03*
X72153Y-24393D03*
X71153Y-24393D03*
X72153Y-23393D03*
X71153Y-23393D03*
X68429Y-24153D03*
X68429Y-23153D03*
X68429Y-22153D03*
X68429Y-21153D03*
X68429Y-20153D03*
X68429Y-19153D03*
X65429Y-19153D03*
X65429Y-20153D03*
X65429Y-21153D03*
X65429Y-22153D03*
X65429Y-23153D03*
X65429Y-24153D03*
G54D17*
X56515Y-33690D03*
X56515Y-33434D03*
X56515Y-33178D03*
X56515Y-32922D03*
X54313Y-34454D03*
X56515Y-34458D03*
X56515Y-34202D03*
X56515Y-33946D03*
X54311Y-32666D03*
X54311Y-32922D03*
X54311Y-33178D03*
X54311Y-33434D03*
X54311Y-33690D03*
X54311Y-33946D03*
X56515Y-32666D03*
X54313Y-34202D03*
X56515Y-34714D03*
X56515Y-32410D03*
X54311Y-32410D03*
X54311Y-34714D03*
X56515Y-34969D03*
X56515Y-32155D03*
X54311Y-32155D03*
X54311Y-34969D03*
X56515Y-35225D03*
X56515Y-31899D03*
X54311Y-31899D03*
X54311Y-35225D03*
G54D10*
G36*
X54645Y-26711D02*
X54842Y-26259D01*
X55393Y-26259D01*
X55590Y-26711D01*
X54645Y-26711D01*
X54645Y-26711D01*
G37*
G54D11*
X54527Y-25845D03*
X55709Y-25845D03*
X54527Y-27697D03*
G54D12*
X55118Y-27697D03*
G54D11*
X55709Y-27697D03*
G54D12*
X55118Y-25845D03*
G54D10*
G36*
X55590Y-26831D02*
X55393Y-27283D01*
X54842Y-27283D01*
X54645Y-26831D01*
X55590Y-26831D01*
X55590Y-26831D01*
G37*
G54D13*
X55118Y-26771D03*
G54D18*
X42696Y-39409D03*
X42696Y-40905D03*
X56889Y-27519D03*
X56889Y-26023D03*
X50629Y-34015D03*
X50629Y-32519D03*
X39153Y-39409D03*
X39153Y-40905D03*
X49803Y-27519D03*
X49803Y-26023D03*
X53346Y-27519D03*
X53346Y-26023D03*
X60433Y-27519D03*
X60433Y-26023D03*
X49783Y-39409D03*
X49783Y-40905D03*
X53326Y-39409D03*
X53326Y-40905D03*
X56870Y-39409D03*
X56870Y-40905D03*
X67500Y-39409D03*
X67500Y-40905D03*
X38976Y-24960D03*
X38976Y-23464D03*
X63956Y-39409D03*
X63956Y-40905D03*
X60413Y-39409D03*
X60413Y-40905D03*
X46259Y-27519D03*
X46259Y-26023D03*
X42716Y-27519D03*
X42716Y-26023D03*
X46240Y-39409D03*
X46240Y-40905D03*
G54D19*
X67026Y-47834D03*
X66042Y-47834D03*
X65058Y-47834D03*
X64074Y-47834D03*
X63090Y-47834D03*
X62106Y-47834D03*
X67026Y-45866D03*
X66042Y-45866D03*
X65058Y-45866D03*
X64074Y-45866D03*
X63090Y-45866D03*
X62106Y-45866D03*
X40059Y-19094D03*
X41043Y-19094D03*
X42027Y-19094D03*
X43011Y-19094D03*
X43995Y-19094D03*
X44979Y-19094D03*
X40059Y-21062D03*
X41043Y-21062D03*
X42027Y-21062D03*
X43011Y-21062D03*
X43995Y-21062D03*
X44979Y-21062D03*
X56003Y-47834D03*
X55019Y-47834D03*
X54035Y-47834D03*
X53051Y-47834D03*
X52067Y-47834D03*
X51083Y-47834D03*
X56003Y-45866D03*
X55019Y-45866D03*
X54035Y-45866D03*
X53051Y-45866D03*
X52067Y-45866D03*
X51083Y-45866D03*
X51083Y-19094D03*
X52067Y-19094D03*
X53051Y-19094D03*
X54035Y-19094D03*
X55019Y-19094D03*
X56003Y-19094D03*
X51083Y-21062D03*
X52067Y-21062D03*
X53051Y-21062D03*
X54035Y-21062D03*
X55019Y-21062D03*
X56003Y-21062D03*
X44979Y-47834D03*
X43995Y-47834D03*
X43011Y-47834D03*
X42027Y-47834D03*
X41043Y-47834D03*
X40059Y-47834D03*
X44979Y-45866D03*
X43995Y-45866D03*
X43011Y-45866D03*
X42027Y-45866D03*
X41043Y-45866D03*
X40059Y-45866D03*
X62106Y-19094D03*
X63090Y-19094D03*
X62106Y-21062D03*
X63090Y-21062D03*
G54D15*
X47086Y-32346D03*
G54D16*
X47086Y-34346D03*
G54D20*
X49102Y-42716D03*
G54D21*
X48102Y-42716D03*
G54D20*
X52645Y-42716D03*
G54D21*
X51645Y-42716D03*
G54D20*
X56188Y-42716D03*
G54D21*
X55188Y-42716D03*
G54D20*
X66818Y-42716D03*
G54D21*
X65818Y-42716D03*
G54D20*
X40248Y-24212D03*
G54D21*
X41248Y-24212D03*
G54D20*
X63275Y-42716D03*
G54D21*
X62275Y-42716D03*
G54D20*
X59732Y-42716D03*
G54D21*
X58732Y-42716D03*
G54D20*
X46940Y-24212D03*
G54D21*
X47940Y-24212D03*
G54D20*
X43397Y-24212D03*
G54D21*
X44397Y-24212D03*
G54D20*
X45559Y-42716D03*
G54D21*
X44559Y-42716D03*
G54D20*
X61114Y-24212D03*
G54D21*
X62114Y-24212D03*
G54D20*
X54027Y-24212D03*
G54D21*
X55027Y-24212D03*
G54D20*
X57570Y-24212D03*
G54D21*
X58570Y-24212D03*
G54D20*
X42015Y-42716D03*
G54D21*
X41015Y-42716D03*
G54D20*
X38472Y-42716D03*
G54D21*
X37472Y-42716D03*
G54D20*
X50484Y-24212D03*
G54D21*
X51484Y-24212D03*
G54D22*
X64370Y-42066D03*
X64370Y-43366D03*
G54D23*
X68327Y-31574D03*
X67027Y-31574D03*
X68327Y-28366D03*
X67027Y-28366D03*
G54D22*
X57283Y-42066D03*
X57283Y-43366D03*
G54D23*
X68327Y-29448D03*
X67027Y-29448D03*
X68327Y-30511D03*
X67027Y-30511D03*
X68327Y-27283D03*
X67027Y-27283D03*
X68327Y-26200D03*
X67027Y-26200D03*
G54D22*
X39566Y-42066D03*
X39566Y-43366D03*
X60826Y-42066D03*
X60826Y-43366D03*
X43110Y-42066D03*
X43110Y-43366D03*
X50196Y-42066D03*
X50196Y-43366D03*
X46653Y-42066D03*
X46653Y-43366D03*
X56496Y-24862D03*
X56496Y-23562D03*
X53740Y-42066D03*
X53740Y-43366D03*
X67913Y-42066D03*
X67913Y-43366D03*
X45866Y-24862D03*
X45866Y-23562D03*
X52952Y-24862D03*
X52952Y-23562D03*
X60039Y-24862D03*
X60039Y-23562D03*
X63582Y-24862D03*
X63582Y-23562D03*
X42322Y-24862D03*
X42322Y-23562D03*
X49409Y-24862D03*
X49409Y-23562D03*
X52480Y-35216D03*
X52480Y-33916D03*
X69881Y-23484D03*
X69881Y-22184D03*
G54D24*
X35433Y-19291D03*
X71653Y-19291D03*
X35433Y-47637D03*
X71653Y-47637D03*
G54D25*
X40433Y-32307D03*
X40433Y-34307D03*
X38465Y-32307D03*
X38465Y-34307D03*
G54D23*
X64508Y-33070D03*
X63208Y-33070D03*
G54D26*
X44291Y-37303D03*
X46023Y-37303D03*
X51377Y-37303D03*
X53110Y-37303D03*
X47401Y-29685D03*
X49133Y-29685D03*
X58464Y-37303D03*
X60196Y-37303D03*
G54D27*
X38818Y-27795D03*
X38818Y-29527D03*
G54D26*
X62007Y-37303D03*
X63740Y-37303D03*
X65551Y-37303D03*
X67283Y-37303D03*
X54921Y-37303D03*
X56653Y-37303D03*
X47834Y-37303D03*
X49566Y-37303D03*
X43779Y-29685D03*
X45511Y-29685D03*
X61614Y-29724D03*
X63346Y-29724D03*
X54566Y-29724D03*
X56299Y-29724D03*
X40748Y-37303D03*
X42480Y-37303D03*
X58110Y-29724D03*
X59842Y-29724D03*
X37224Y-37283D03*
X38956Y-37283D03*
X50984Y-29685D03*
X52716Y-29685D03*
M02*
